G04 DipTrace 3.0.0.1*
G04 TopAssy.gbr*
%MOIN*%
G04 #@! TF.FileFunction,Drawing,Top*
G04 #@! TF.Part,Single*
%ADD10C,0.009843*%
%ADD57C,0.012351*%
%ADD58C,0.015439*%
%ADD60C,0.004632*%
%ADD61C,0.003088*%
%FSLAX26Y26*%
G04*
G70*
G90*
G75*
G01*
G04 TopAssy*
%LPD*%
X6Y-250976D2*
D10*
Y251000D1*
X1109845Y139370D2*
Y-139370D1*
X0Y-750000D2*
X472441D1*
Y-907000D1*
X0D1*
Y-750000D1*
Y-907000D2*
X472441D1*
Y-1064000D1*
X0D1*
Y-907000D1*
Y-1064000D2*
X472441D1*
Y-1221000D1*
X0D1*
Y-1064000D1*
Y-1221000D2*
X472441D1*
Y-1378000D1*
X0D1*
Y-1221000D1*
Y-1378000D2*
X472441D1*
Y-1535000D1*
X0D1*
Y-1378000D1*
Y-1535000D2*
X472441D1*
Y-1692000D1*
X0D1*
Y-1535000D1*
Y-1692000D2*
X472441D1*
Y-1849000D1*
X0D1*
Y-1692000D1*
Y-1849000D2*
X472441D1*
Y-2006000D1*
X0D1*
Y-1849000D1*
Y-2006000D2*
X472441D1*
Y-2163000D1*
X0D1*
Y-2006000D1*
Y-2163000D2*
X472441D1*
Y-2320000D1*
X0D1*
Y-2163000D1*
Y-2320000D2*
X472441D1*
Y-2477000D1*
X0D1*
Y-2320000D1*
Y-2477000D2*
X472441D1*
Y-2634000D1*
X0D1*
Y-2477000D1*
Y-2634000D2*
X472441D1*
Y-2791000D1*
X0D1*
Y-2634000D1*
X472441Y-750000D2*
X1259843D1*
Y-907000D1*
X472441D1*
Y-750000D1*
Y-907000D2*
X1259843D1*
Y-1064000D1*
X472441D1*
Y-907000D1*
Y-1064000D2*
X1259843D1*
Y-1221000D1*
X472441D1*
Y-1064000D1*
Y-1221000D2*
X1259843D1*
Y-1378000D1*
X472441D1*
Y-1221000D1*
Y-1378000D2*
X1259843D1*
Y-1535000D1*
X472441D1*
Y-1378000D1*
Y-1535000D2*
X1259843D1*
Y-1692000D1*
X472441D1*
Y-1535000D1*
Y-1692000D2*
X1259843D1*
Y-1849000D1*
X472441D1*
Y-1692000D1*
Y-1849000D2*
X1259843D1*
Y-2006000D1*
X472441D1*
Y-1849000D1*
Y-2006000D2*
X1259843D1*
Y-2163000D1*
X472441D1*
Y-2006000D1*
Y-2163000D2*
X1259843D1*
Y-2320000D1*
X472441D1*
Y-2163000D1*
Y-2320000D2*
X1259843D1*
Y-2477000D1*
X472441D1*
Y-2320000D1*
Y-2477000D2*
X1259843D1*
Y-2634000D1*
X472441D1*
Y-2477000D1*
Y-2634000D2*
X1259843D1*
Y-2791000D1*
X472441D1*
Y-2634000D1*
X1259843Y-750000D2*
X2047244D1*
Y-907000D1*
X1259843D1*
Y-750000D1*
Y-907000D2*
X2047244D1*
Y-1064000D1*
X1259843D1*
Y-907000D1*
Y-1064000D2*
X2047244D1*
Y-1221000D1*
X1259843D1*
Y-1064000D1*
Y-1221000D2*
X2047244D1*
Y-1378000D1*
X1259843D1*
Y-1221000D1*
Y-1378000D2*
X2047244D1*
Y-1535000D1*
X1259843D1*
Y-1378000D1*
Y-1535000D2*
X2047244D1*
Y-1692000D1*
X1259843D1*
Y-1535000D1*
Y-1692000D2*
X2047244D1*
Y-1849000D1*
X1259843D1*
Y-1692000D1*
Y-1849000D2*
X2047244D1*
Y-2006000D1*
X1259843D1*
Y-1849000D1*
Y-2006000D2*
X2047244D1*
Y-2163000D1*
X1259843D1*
Y-2006000D1*
Y-2163000D2*
X2047244D1*
Y-2320000D1*
X1259843D1*
Y-2163000D1*
Y-2320000D2*
X2047244D1*
Y-2477000D1*
X1259843D1*
Y-2320000D1*
Y-2477000D2*
X2047244D1*
Y-2634000D1*
X1259843D1*
Y-2477000D1*
Y-2634000D2*
X2047244D1*
Y-2791000D1*
X1259843D1*
Y-2634000D1*
X2047244Y-750000D2*
X2834646D1*
Y-907000D1*
X2047244D1*
Y-750000D1*
Y-907000D2*
X2834646D1*
Y-1064000D1*
X2047244D1*
Y-907000D1*
Y-1064000D2*
X2834646D1*
Y-1221000D1*
X2047244D1*
Y-1064000D1*
Y-1221000D2*
X2834646D1*
Y-1378000D1*
X2047244D1*
Y-1221000D1*
Y-1378000D2*
X2834646D1*
Y-1535000D1*
X2047244D1*
Y-1378000D1*
Y-1535000D2*
X2834646D1*
Y-1692000D1*
X2047244D1*
Y-1535000D1*
Y-1692000D2*
X2834646D1*
Y-1849000D1*
X2047244D1*
Y-1692000D1*
Y-1849000D2*
X2834646D1*
Y-2006000D1*
X2047244D1*
Y-1849000D1*
Y-2006000D2*
X2834646D1*
Y-2163000D1*
X2047244D1*
Y-2006000D1*
Y-2163000D2*
X2834646D1*
Y-2320000D1*
X2047244D1*
Y-2163000D1*
Y-2320000D2*
X2834646D1*
Y-2477000D1*
X2047244D1*
Y-2320000D1*
Y-2477000D2*
X2834646D1*
Y-2634000D1*
X2047244D1*
Y-2477000D1*
Y-2634000D2*
X2834646D1*
Y-2791000D1*
X2047244D1*
Y-2634000D1*
X2834646Y-750000D2*
X3425197D1*
Y-907000D1*
X2834646D1*
Y-750000D1*
Y-907000D2*
X3425197D1*
Y-1064000D1*
X2834646D1*
Y-907000D1*
Y-1064000D2*
X3425197D1*
Y-1221000D1*
X2834646D1*
Y-1064000D1*
Y-1221000D2*
X3425197D1*
Y-1378000D1*
X2834646D1*
Y-1221000D1*
Y-1378000D2*
X3425197D1*
Y-1535000D1*
X2834646D1*
Y-1378000D1*
Y-1535000D2*
X3425197D1*
Y-1692000D1*
X2834646D1*
Y-1535000D1*
Y-1692000D2*
X3425197D1*
Y-1849000D1*
X2834646D1*
Y-1692000D1*
Y-1849000D2*
X3425197D1*
Y-2006000D1*
X2834646D1*
Y-1849000D1*
Y-2006000D2*
X3425197D1*
Y-2163000D1*
X2834646D1*
Y-2006000D1*
Y-2163000D2*
X3425197D1*
Y-2320000D1*
X2834646D1*
Y-2163000D1*
Y-2320000D2*
X3425197D1*
Y-2477000D1*
X2834646D1*
Y-2320000D1*
Y-2477000D2*
X3425197D1*
Y-2634000D1*
X2834646D1*
Y-2477000D1*
Y-2634000D2*
X3425197D1*
Y-2791000D1*
X2834646D1*
Y-2634000D1*
X3425197Y-750000D2*
X3897638D1*
Y-907000D1*
X3425197D1*
Y-750000D1*
Y-907000D2*
X3897638D1*
Y-1064000D1*
X3425197D1*
Y-907000D1*
Y-1064000D2*
X3897638D1*
Y-1221000D1*
X3425197D1*
Y-1064000D1*
Y-1221000D2*
X3897638D1*
Y-1378000D1*
X3425197D1*
Y-1221000D1*
Y-1378000D2*
X3897638D1*
Y-1535000D1*
X3425197D1*
Y-1378000D1*
Y-1535000D2*
X3897638D1*
Y-1692000D1*
X3425197D1*
Y-1535000D1*
Y-1692000D2*
X3897638D1*
Y-1849000D1*
X3425197D1*
Y-1692000D1*
Y-1849000D2*
X3897638D1*
Y-2006000D1*
X3425197D1*
Y-1849000D1*
Y-2006000D2*
X3897638D1*
Y-2163000D1*
X3425197D1*
Y-2006000D1*
Y-2163000D2*
X3897638D1*
Y-2320000D1*
X3425197D1*
Y-2163000D1*
Y-2320000D2*
X3897638D1*
Y-2477000D1*
X3425197D1*
Y-2320000D1*
Y-2477000D2*
X3897638D1*
Y-2634000D1*
X3425197D1*
Y-2477000D1*
Y-2634000D2*
X3897638D1*
Y-2791000D1*
X3425197D1*
Y-2634000D1*
X3897638Y-750000D2*
X4685039D1*
Y-907000D1*
X3897638D1*
Y-750000D1*
Y-907000D2*
X4685039D1*
Y-1064000D1*
X3897638D1*
Y-907000D1*
Y-1064000D2*
X4685039D1*
Y-1221000D1*
X3897638D1*
Y-1064000D1*
Y-1221000D2*
X4685039D1*
Y-1378000D1*
X3897638D1*
Y-1221000D1*
Y-1378000D2*
X4685039D1*
Y-1535000D1*
X3897638D1*
Y-1378000D1*
Y-1535000D2*
X4685039D1*
Y-1692000D1*
X3897638D1*
Y-1535000D1*
Y-1692000D2*
X4685039D1*
Y-1849000D1*
X3897638D1*
Y-1692000D1*
Y-1849000D2*
X4685039D1*
Y-2006000D1*
X3897638D1*
Y-1849000D1*
Y-2006000D2*
X4685039D1*
Y-2163000D1*
X3897638D1*
Y-2006000D1*
Y-2163000D2*
X4685039D1*
Y-2320000D1*
X3897638D1*
Y-2163000D1*
Y-2320000D2*
X4685039D1*
Y-2477000D1*
X3897638D1*
Y-2320000D1*
Y-2477000D2*
X4685039D1*
Y-2634000D1*
X3897638D1*
Y-2477000D1*
Y-2634000D2*
X4685039D1*
Y-2791000D1*
X3897638D1*
Y-2634000D1*
X0Y-3400000D2*
X472441D1*
Y-3557480D1*
X0D1*
Y-3400000D1*
Y-3557480D2*
X472441D1*
Y-3714961D1*
X0D1*
Y-3557480D1*
Y-3714961D2*
X472441D1*
Y-3872441D1*
X0D1*
Y-3714961D1*
Y-3872441D2*
X472441D1*
Y-4029921D1*
X0D1*
Y-3872441D1*
Y-4029921D2*
X472441D1*
Y-4187402D1*
X0D1*
Y-4029921D1*
Y-4187402D2*
X472441D1*
Y-4344882D1*
X0D1*
Y-4187402D1*
Y-4344882D2*
X472441D1*
Y-4502362D1*
X0D1*
Y-4344882D1*
Y-4502362D2*
X472441D1*
Y-4659843D1*
X0D1*
Y-4502362D1*
Y-4659843D2*
X472441D1*
Y-4817323D1*
X0D1*
Y-4659843D1*
Y-4817323D2*
X472441D1*
Y-4974803D1*
X0D1*
Y-4817323D1*
Y-4974803D2*
X472441D1*
Y-5132283D1*
X0D1*
Y-4974803D1*
Y-5132283D2*
X472441D1*
Y-5289764D1*
X0D1*
Y-5132283D1*
Y-5289764D2*
X472441D1*
Y-5447244D1*
X0D1*
Y-5289764D1*
X472441Y-3400000D2*
X1259843D1*
Y-3557480D1*
X472441D1*
Y-3400000D1*
Y-3557480D2*
X1259843D1*
Y-3714961D1*
X472441D1*
Y-3557480D1*
Y-3714961D2*
X1259843D1*
Y-3872441D1*
X472441D1*
Y-3714961D1*
Y-3872441D2*
X1259843D1*
Y-4029921D1*
X472441D1*
Y-3872441D1*
Y-4029921D2*
X1259843D1*
Y-4187402D1*
X472441D1*
Y-4029921D1*
Y-4187402D2*
X1259843D1*
Y-4344882D1*
X472441D1*
Y-4187402D1*
Y-4344882D2*
X1259843D1*
Y-4502362D1*
X472441D1*
Y-4344882D1*
Y-4502362D2*
X1259843D1*
Y-4659843D1*
X472441D1*
Y-4502362D1*
Y-4659843D2*
X1259843D1*
Y-4817323D1*
X472441D1*
Y-4659843D1*
Y-4817323D2*
X1259843D1*
Y-4974803D1*
X472441D1*
Y-4817323D1*
Y-4974803D2*
X1259843D1*
Y-5132283D1*
X472441D1*
Y-4974803D1*
Y-5132283D2*
X1259843D1*
Y-5289764D1*
X472441D1*
Y-5132283D1*
Y-5289764D2*
X1259843D1*
Y-5447244D1*
X472441D1*
Y-5289764D1*
X1259843Y-3400000D2*
X2047244D1*
Y-3557480D1*
X1259843D1*
Y-3400000D1*
Y-3557480D2*
X2047244D1*
Y-3714961D1*
X1259843D1*
Y-3557480D1*
Y-3714961D2*
X2047244D1*
Y-3872441D1*
X1259843D1*
Y-3714961D1*
Y-3872441D2*
X2047244D1*
Y-4029921D1*
X1259843D1*
Y-3872441D1*
Y-4029921D2*
X2047244D1*
Y-4187402D1*
X1259843D1*
Y-4029921D1*
Y-4187402D2*
X2047244D1*
Y-4344882D1*
X1259843D1*
Y-4187402D1*
Y-4344882D2*
X2047244D1*
Y-4502362D1*
X1259843D1*
Y-4344882D1*
Y-4502362D2*
X2047244D1*
Y-4659843D1*
X1259843D1*
Y-4502362D1*
Y-4659843D2*
X2047244D1*
Y-4817323D1*
X1259843D1*
Y-4659843D1*
Y-4817323D2*
X2047244D1*
Y-4974803D1*
X1259843D1*
Y-4817323D1*
Y-4974803D2*
X2047244D1*
Y-5132283D1*
X1259843D1*
Y-4974803D1*
Y-5132283D2*
X2047244D1*
Y-5289764D1*
X1259843D1*
Y-5132283D1*
Y-5289764D2*
X2047244D1*
Y-5447244D1*
X1259843D1*
Y-5289764D1*
X2047244Y-3400000D2*
X2834646D1*
Y-3557480D1*
X2047244D1*
Y-3400000D1*
Y-3557480D2*
X2834646D1*
Y-3714961D1*
X2047244D1*
Y-3557480D1*
Y-3714961D2*
X2834646D1*
Y-3872441D1*
X2047244D1*
Y-3714961D1*
Y-3872441D2*
X2834646D1*
Y-4029921D1*
X2047244D1*
Y-3872441D1*
Y-4029921D2*
X2834646D1*
Y-4187402D1*
X2047244D1*
Y-4029921D1*
Y-4187402D2*
X2834646D1*
Y-4344882D1*
X2047244D1*
Y-4187402D1*
Y-4344882D2*
X2834646D1*
Y-4502362D1*
X2047244D1*
Y-4344882D1*
Y-4502362D2*
X2834646D1*
Y-4659843D1*
X2047244D1*
Y-4502362D1*
Y-4659843D2*
X2834646D1*
Y-4817323D1*
X2047244D1*
Y-4659843D1*
Y-4817323D2*
X2834646D1*
Y-4974803D1*
X2047244D1*
Y-4817323D1*
Y-4974803D2*
X2834646D1*
Y-5132283D1*
X2047244D1*
Y-4974803D1*
Y-5132283D2*
X2834646D1*
Y-5289764D1*
X2047244D1*
Y-5132283D1*
Y-5289764D2*
X2834646D1*
Y-5447244D1*
X2047244D1*
Y-5289764D1*
X2834646Y-3400000D2*
X3425197D1*
Y-3557480D1*
X2834646D1*
Y-3400000D1*
Y-3557480D2*
X3425197D1*
Y-3714961D1*
X2834646D1*
Y-3557480D1*
Y-3714961D2*
X3425197D1*
Y-3872441D1*
X2834646D1*
Y-3714961D1*
Y-3872441D2*
X3425197D1*
Y-4029921D1*
X2834646D1*
Y-3872441D1*
Y-4029921D2*
X3425197D1*
Y-4187402D1*
X2834646D1*
Y-4029921D1*
Y-4187402D2*
X3425197D1*
Y-4344882D1*
X2834646D1*
Y-4187402D1*
Y-4344882D2*
X3425197D1*
Y-4502362D1*
X2834646D1*
Y-4344882D1*
Y-4502362D2*
X3425197D1*
Y-4659843D1*
X2834646D1*
Y-4502362D1*
Y-4659843D2*
X3425197D1*
Y-4817323D1*
X2834646D1*
Y-4659843D1*
Y-4817323D2*
X3425197D1*
Y-4974803D1*
X2834646D1*
Y-4817323D1*
Y-4974803D2*
X3425197D1*
Y-5132283D1*
X2834646D1*
Y-4974803D1*
Y-5132283D2*
X3425197D1*
Y-5289764D1*
X2834646D1*
Y-5132283D1*
Y-5289764D2*
X3425197D1*
Y-5447244D1*
X2834646D1*
Y-5289764D1*
X3425197Y-3400000D2*
X3897638D1*
Y-3557480D1*
X3425197D1*
Y-3400000D1*
Y-3557480D2*
X3897638D1*
Y-3714961D1*
X3425197D1*
Y-3557480D1*
Y-3714961D2*
X3897638D1*
Y-3872441D1*
X3425197D1*
Y-3714961D1*
Y-3872441D2*
X3897638D1*
Y-4029921D1*
X3425197D1*
Y-3872441D1*
Y-4029921D2*
X3897638D1*
Y-4187402D1*
X3425197D1*
Y-4029921D1*
Y-4187402D2*
X3897638D1*
Y-4344882D1*
X3425197D1*
Y-4187402D1*
Y-4344882D2*
X3897638D1*
Y-4502362D1*
X3425197D1*
Y-4344882D1*
Y-4502362D2*
X3897638D1*
Y-4659843D1*
X3425197D1*
Y-4502362D1*
Y-4659843D2*
X3897638D1*
Y-4817323D1*
X3425197D1*
Y-4659843D1*
Y-4817323D2*
X3897638D1*
Y-4974803D1*
X3425197D1*
Y-4817323D1*
Y-4974803D2*
X3897638D1*
Y-5132283D1*
X3425197D1*
Y-4974803D1*
Y-5132283D2*
X3897638D1*
Y-5289764D1*
X3425197D1*
Y-5132283D1*
Y-5289764D2*
X3897638D1*
Y-5447244D1*
X3425197D1*
Y-5289764D1*
X3897638Y-3400000D2*
X4685039D1*
Y-3557480D1*
X3897638D1*
Y-3400000D1*
Y-3557480D2*
X4685039D1*
Y-3714961D1*
X3897638D1*
Y-3557480D1*
Y-3714961D2*
X4685039D1*
Y-3872441D1*
X3897638D1*
Y-3714961D1*
Y-3872441D2*
X4685039D1*
Y-4029921D1*
X3897638D1*
Y-3872441D1*
Y-4029921D2*
X4685039D1*
Y-4187402D1*
X3897638D1*
Y-4029921D1*
Y-4187402D2*
X4685039D1*
Y-4344882D1*
X3897638D1*
Y-4187402D1*
Y-4344882D2*
X4685039D1*
Y-4502362D1*
X3897638D1*
Y-4344882D1*
Y-4502362D2*
X4685039D1*
Y-4659843D1*
X3897638D1*
Y-4502362D1*
Y-4659843D2*
X4685039D1*
Y-4817323D1*
X3897638D1*
Y-4659843D1*
Y-4817323D2*
X4685039D1*
Y-4974803D1*
X3897638D1*
Y-4817323D1*
Y-4974803D2*
X4685039D1*
Y-5132283D1*
X3897638D1*
Y-4974803D1*
Y-5132283D2*
X4685039D1*
Y-5289764D1*
X3897638D1*
Y-5132283D1*
Y-5289764D2*
X4685039D1*
Y-5447244D1*
X3897638D1*
Y-5289764D1*
X45546Y-821779D2*
D57*
X79946D1*
X91442Y-817888D1*
X95333Y-814086D1*
X99135Y-806481D1*
Y-798787D1*
X95333Y-791182D1*
X91442Y-787291D1*
X79946Y-783488D1*
X45546D1*
Y-863873D1*
X72340Y-821779D2*
X99135Y-863873D1*
X123838Y-833275D2*
X169734D1*
Y-825582D1*
X165931Y-817888D1*
X162129Y-814086D1*
X154435Y-810283D1*
X142939D1*
X135334Y-814086D1*
X127640Y-821779D1*
X123838Y-833275D1*
Y-840880D1*
X127640Y-852376D1*
X135334Y-859982D1*
X142939Y-863873D1*
X154435D1*
X162129Y-859982D1*
X169734Y-852376D1*
X225034Y-783488D2*
X217429D1*
X209735Y-787291D1*
X205933Y-798787D1*
Y-863873D1*
X194437Y-810283D2*
X221231D1*
X249737Y-783488D2*
Y-863873D1*
X276531D1*
X288027Y-859982D1*
X295721Y-852376D1*
X299523Y-844683D1*
X303326Y-833275D1*
Y-814086D1*
X299523Y-802590D1*
X295721Y-794985D1*
X288027Y-787291D1*
X276531Y-783488D1*
X249737D1*
X328029Y-833275D2*
X373924D1*
Y-825582D1*
X370122Y-817888D1*
X366319Y-814086D1*
X358626Y-810283D1*
X347130D1*
X339525Y-814086D1*
X331831Y-821779D1*
X328029Y-833275D1*
Y-840880D1*
X331831Y-852376D1*
X339525Y-859982D1*
X347130Y-863873D1*
X358626D1*
X366319Y-859982D1*
X373924Y-852376D1*
X440721Y-821779D2*
X436918Y-814086D1*
X425422Y-810283D1*
X413926D1*
X402430Y-814086D1*
X398627Y-821779D1*
X402430Y-829384D1*
X410123Y-833275D1*
X429224Y-837078D1*
X436918Y-840880D1*
X440721Y-848574D1*
Y-852376D1*
X436918Y-859982D1*
X425422Y-863873D1*
X413926D1*
X402430Y-859982D1*
X398627Y-852376D1*
X102938Y-959590D2*
X99135Y-951985D1*
X91442Y-944291D1*
X83837Y-940488D1*
X68538D1*
X60844Y-944291D1*
X53239Y-951985D1*
X49348Y-959590D1*
X45546Y-971086D1*
Y-990275D1*
X49348Y-1001683D1*
X53239Y-1009376D1*
X60844Y-1016982D1*
X68538Y-1020873D1*
X83837D1*
X91442Y-1016982D1*
X99135Y-1009376D1*
X102938Y-1001683D1*
X127640Y-955876D2*
X135334Y-951985D1*
X146830Y-940577D1*
Y-1020873D1*
X102938Y-1116590D2*
X99135Y-1108985D1*
X91442Y-1101291D1*
X83837Y-1097488D1*
X68538D1*
X60844Y-1101291D1*
X53239Y-1108985D1*
X49348Y-1116590D1*
X45546Y-1128086D1*
Y-1147275D1*
X49348Y-1158683D1*
X53239Y-1166376D1*
X60844Y-1173982D1*
X68538Y-1177873D1*
X83837D1*
X91442Y-1173982D1*
X99135Y-1166376D1*
X102938Y-1158683D1*
X131531Y-1116678D2*
Y-1112876D1*
X135334Y-1105182D1*
X139137Y-1101379D1*
X146830Y-1097577D1*
X162129D1*
X169734Y-1101379D1*
X173536Y-1105182D1*
X177427Y-1112876D1*
Y-1120481D1*
X173536Y-1128174D1*
X165931Y-1139582D1*
X127640Y-1177873D1*
X181230D1*
X45546Y-1254488D2*
Y-1334873D1*
X72340D1*
X83837Y-1330982D1*
X91530Y-1323376D1*
X95333Y-1315683D1*
X99135Y-1304275D1*
Y-1285086D1*
X95333Y-1273590D1*
X91530Y-1265985D1*
X83837Y-1258291D1*
X72340Y-1254488D1*
X45546D1*
X123838Y-1269876D2*
X131531Y-1265985D1*
X143027Y-1254577D1*
Y-1334873D1*
X45546Y-1411488D2*
Y-1491873D1*
X72340D1*
X83837Y-1487982D1*
X91530Y-1480376D1*
X95333Y-1472683D1*
X99135Y-1461275D1*
Y-1442086D1*
X95333Y-1430590D1*
X91530Y-1422985D1*
X83837Y-1415291D1*
X72340Y-1411488D1*
X45546D1*
X127729Y-1430678D2*
Y-1426876D1*
X131531Y-1419182D1*
X135334Y-1415379D1*
X143027Y-1411577D1*
X158326D1*
X165931Y-1415379D1*
X169734Y-1419182D1*
X173625Y-1426876D1*
Y-1434481D1*
X169734Y-1442174D1*
X162129Y-1453582D1*
X123838Y-1491873D1*
X177427D1*
X83837Y-1568488D2*
Y-1629683D1*
X80034Y-1641179D1*
X76143Y-1644982D1*
X68538Y-1648873D1*
X60844D1*
X53239Y-1644982D1*
X49437Y-1641179D1*
X45546Y-1629683D1*
Y-1622078D1*
X108539Y-1583876D2*
X116233Y-1579985D1*
X127729Y-1568577D1*
Y-1648873D1*
X83837Y-1725488D2*
Y-1786683D1*
X80034Y-1798179D1*
X76143Y-1801982D1*
X68538Y-1805873D1*
X60844D1*
X53239Y-1801982D1*
X49437Y-1798179D1*
X45546Y-1786683D1*
Y-1779078D1*
X112430Y-1744678D2*
Y-1740876D1*
X116233Y-1733182D1*
X120035Y-1729379D1*
X127729Y-1725577D1*
X143027D1*
X150633Y-1729379D1*
X154435Y-1733182D1*
X158326Y-1740876D1*
Y-1748481D1*
X154435Y-1756174D1*
X146830Y-1767582D1*
X108539Y-1805873D1*
X162129D1*
X68538Y-1882488D2*
X60933Y-1886203D1*
X53239Y-1893896D1*
X49437Y-1901590D1*
X45546Y-1913086D1*
Y-1932187D1*
X49437Y-1943683D1*
X53239Y-1951288D1*
X60933Y-1958982D1*
X68538Y-1962784D1*
X83837D1*
X91530Y-1958982D1*
X99135Y-1951288D1*
X102938Y-1943683D1*
X106829Y-1932187D1*
Y-1913086D1*
X102938Y-1901590D1*
X99135Y-1893896D1*
X91530Y-1886203D1*
X83837Y-1882488D1*
X68538D1*
X80034Y-1947485D2*
X102938Y-1970478D1*
X131531Y-1897876D2*
X139225Y-1893985D1*
X150721Y-1882577D1*
Y-1962873D1*
X45546Y-2077779D2*
X79946D1*
X91442Y-2073888D1*
X95333Y-2070086D1*
X99135Y-2062481D1*
Y-2054787D1*
X95333Y-2047182D1*
X91442Y-2043291D1*
X79946Y-2039488D1*
X45546D1*
Y-2119873D1*
X72340Y-2077779D2*
X99135Y-2119873D1*
X123838Y-2054876D2*
X131531Y-2050985D1*
X143027Y-2039577D1*
Y-2119873D1*
X45546Y-2234779D2*
X79946D1*
X91442Y-2230888D1*
X95333Y-2227086D1*
X99135Y-2219481D1*
Y-2211787D1*
X95333Y-2204182D1*
X91442Y-2200291D1*
X79946Y-2196488D1*
X45546D1*
Y-2276873D1*
X72340Y-2234779D2*
X99135Y-2276873D1*
X127729Y-2215678D2*
Y-2211876D1*
X131531Y-2204182D1*
X135334Y-2200379D1*
X143027Y-2196577D1*
X158326D1*
X165931Y-2200379D1*
X169734Y-2204182D1*
X173625Y-2211876D1*
Y-2219481D1*
X169734Y-2227174D1*
X162129Y-2238582D1*
X123838Y-2276873D1*
X177427D1*
X45546Y-2391779D2*
X79946D1*
X91442Y-2387888D1*
X95333Y-2384086D1*
X99135Y-2376481D1*
Y-2368787D1*
X95333Y-2361182D1*
X91442Y-2357291D1*
X79946Y-2353488D1*
X45546D1*
Y-2433873D1*
X72340Y-2391779D2*
X99135Y-2433873D1*
X131531Y-2353577D2*
X173536D1*
X150633Y-2384174D1*
X162129D1*
X169734Y-2387977D1*
X173536Y-2391779D1*
X177427Y-2403275D1*
Y-2410880D1*
X173536Y-2422376D1*
X165931Y-2430070D1*
X154435Y-2433873D1*
X142939D1*
X131531Y-2430070D1*
X127729Y-2426179D1*
X123838Y-2418574D1*
X45546Y-2548779D2*
X79946D1*
X91442Y-2544888D1*
X95333Y-2541086D1*
X99135Y-2533481D1*
Y-2525787D1*
X95333Y-2518182D1*
X91442Y-2514291D1*
X79946Y-2510488D1*
X45546D1*
Y-2590873D1*
X72340Y-2548779D2*
X99135Y-2590873D1*
X162129D2*
Y-2510577D1*
X123838Y-2564078D1*
X181230D1*
X45546Y-2667488D2*
X76143Y-2747873D1*
X106740Y-2667488D1*
X154435D2*
X146742Y-2671291D1*
X139137Y-2678985D1*
X135246Y-2686590D1*
X131443Y-2698086D1*
Y-2717275D1*
X135246Y-2728683D1*
X139137Y-2736376D1*
X146742Y-2743982D1*
X154435Y-2747873D1*
X169734D1*
X177339Y-2743982D1*
X185032Y-2736376D1*
X188835Y-2728683D1*
X192637Y-2717275D1*
Y-2698086D1*
X188835Y-2686590D1*
X185032Y-2678985D1*
X177339Y-2671291D1*
X169734Y-2667488D1*
X154435D1*
X217340Y-2682876D2*
X225034Y-2678985D1*
X236530Y-2667577D1*
Y-2747873D1*
X571576Y-783488D2*
Y-863873D1*
X517987Y-783488D1*
Y-863873D1*
X642175Y-810283D2*
Y-863873D1*
Y-821779D2*
X634570Y-814086D1*
X626876Y-810283D1*
X615468D1*
X607775Y-814086D1*
X600170Y-821779D1*
X596279Y-833275D1*
Y-840880D1*
X600170Y-852376D1*
X607775Y-859982D1*
X615468Y-863873D1*
X626876D1*
X634570Y-859982D1*
X642175Y-852376D1*
X666877Y-810283D2*
Y-863873D1*
Y-825582D2*
X678374Y-814086D1*
X686067Y-810283D1*
X697475D1*
X705168Y-814086D1*
X708971Y-825582D1*
Y-863873D1*
Y-825582D2*
X720467Y-814086D1*
X728160Y-810283D1*
X739568D1*
X747261Y-814086D1*
X751152Y-825582D1*
Y-863873D1*
X775855Y-833275D2*
X821751D1*
Y-825582D1*
X817949Y-817888D1*
X814146Y-814086D1*
X806452Y-810283D1*
X794956D1*
X787351Y-814086D1*
X779658Y-821779D1*
X775855Y-833275D1*
Y-840880D1*
X779658Y-852376D1*
X787351Y-859982D1*
X794956Y-863873D1*
X806452D1*
X814146Y-859982D1*
X821751Y-852376D1*
X517987Y-982582D2*
X552475D1*
X563883Y-978779D1*
X567774Y-974888D1*
X571576Y-967283D1*
Y-955787D1*
X567774Y-948182D1*
X563883Y-944291D1*
X552475Y-940488D1*
X517987D1*
Y-1020873D1*
X619271Y-940488D2*
X611577Y-944291D1*
X603972Y-951985D1*
X600081Y-959590D1*
X596279Y-971086D1*
Y-990275D1*
X600081Y-1001683D1*
X603972Y-1009376D1*
X611577Y-1016982D1*
X619271Y-1020873D1*
X634570D1*
X642175Y-1016982D1*
X649868Y-1009376D1*
X653671Y-1001683D1*
X657473Y-990275D1*
Y-971086D1*
X653671Y-959590D1*
X649868Y-951985D1*
X642175Y-944291D1*
X634570Y-940488D1*
X619271D1*
X682176D2*
Y-1020873D1*
X728072D1*
X810167Y-959590D2*
X806364Y-951985D1*
X798671Y-944291D1*
X791065Y-940488D1*
X775767D1*
X768073Y-944291D1*
X760468Y-951985D1*
X756577Y-959590D1*
X752775Y-971086D1*
Y-990275D1*
X756577Y-1001683D1*
X760468Y-1009376D1*
X768073Y-1016982D1*
X775767Y-1020873D1*
X791065D1*
X798671Y-1016982D1*
X806364Y-1009376D1*
X810167Y-1001683D1*
X896152Y-1020873D2*
X865467Y-940488D1*
X834869Y-1020873D1*
X846365Y-994078D2*
X884656D1*
X920855Y-982582D2*
X955343D1*
X966751Y-978779D1*
X970642Y-974888D1*
X974444Y-967283D1*
Y-955787D1*
X970642Y-948182D1*
X966751Y-944291D1*
X955343Y-940488D1*
X920855D1*
Y-1020873D1*
X517987Y-1139582D2*
X552475D1*
X563883Y-1135779D1*
X567774Y-1131888D1*
X571576Y-1124283D1*
Y-1112787D1*
X567774Y-1105182D1*
X563883Y-1101291D1*
X552475Y-1097488D1*
X517987D1*
Y-1177873D1*
X619271Y-1097488D2*
X611577Y-1101291D1*
X603972Y-1108985D1*
X600081Y-1116590D1*
X596279Y-1128086D1*
Y-1147275D1*
X600081Y-1158683D1*
X603972Y-1166376D1*
X611577Y-1173982D1*
X619271Y-1177873D1*
X634570D1*
X642175Y-1173982D1*
X649868Y-1166376D1*
X653671Y-1158683D1*
X657473Y-1147275D1*
Y-1128086D1*
X653671Y-1116590D1*
X649868Y-1108985D1*
X642175Y-1101291D1*
X634570Y-1097488D1*
X619271D1*
X682176D2*
Y-1177873D1*
X728072D1*
X810167Y-1116590D2*
X806364Y-1108985D1*
X798671Y-1101291D1*
X791065Y-1097488D1*
X775767D1*
X768073Y-1101291D1*
X760468Y-1108985D1*
X756577Y-1116590D1*
X752775Y-1128086D1*
Y-1147275D1*
X756577Y-1158683D1*
X760468Y-1166376D1*
X768073Y-1173982D1*
X775767Y-1177873D1*
X791065D1*
X798671Y-1173982D1*
X806364Y-1166376D1*
X810167Y-1158683D1*
X896152Y-1177873D2*
X865467Y-1097488D1*
X834869Y-1177873D1*
X846365Y-1151078D2*
X884656D1*
X920855Y-1139582D2*
X955343D1*
X966751Y-1135779D1*
X970642Y-1131888D1*
X974444Y-1124283D1*
Y-1112787D1*
X970642Y-1105182D1*
X966751Y-1101291D1*
X955343Y-1097488D1*
X920855D1*
Y-1177873D1*
X517987Y-1254488D2*
Y-1334873D1*
X544781D1*
X556277Y-1330982D1*
X563971Y-1323376D1*
X567774Y-1315683D1*
X571576Y-1304275D1*
Y-1285086D1*
X567774Y-1273590D1*
X563971Y-1265985D1*
X556277Y-1258291D1*
X544781Y-1254488D1*
X517987D1*
X596279D2*
Y-1334873D1*
X643974Y-1254488D2*
X636280Y-1258291D1*
X628675Y-1265985D1*
X624784Y-1273590D1*
X620982Y-1285086D1*
Y-1304275D1*
X624784Y-1315683D1*
X628675Y-1323376D1*
X636280Y-1330982D1*
X643974Y-1334873D1*
X659272D1*
X666877Y-1330982D1*
X674571Y-1323376D1*
X678374Y-1315683D1*
X682176Y-1304275D1*
Y-1285086D1*
X678374Y-1273590D1*
X674571Y-1265985D1*
X666877Y-1258291D1*
X659272Y-1254488D1*
X643974D1*
X517987Y-1411488D2*
Y-1491873D1*
X544781D1*
X556277Y-1487982D1*
X563971Y-1480376D1*
X567774Y-1472683D1*
X571576Y-1461275D1*
Y-1442086D1*
X567774Y-1430590D1*
X563971Y-1422985D1*
X556277Y-1415291D1*
X544781Y-1411488D1*
X517987D1*
X596279D2*
Y-1491873D1*
X643974Y-1411488D2*
X636280Y-1415291D1*
X628675Y-1422985D1*
X624784Y-1430590D1*
X620982Y-1442086D1*
Y-1461275D1*
X624784Y-1472683D1*
X628675Y-1480376D1*
X636280Y-1487982D1*
X643974Y-1491873D1*
X659272D1*
X666877Y-1487982D1*
X674571Y-1480376D1*
X678374Y-1472683D1*
X682176Y-1461275D1*
Y-1442086D1*
X678374Y-1430590D1*
X674571Y-1422985D1*
X666877Y-1415291D1*
X659272Y-1411488D1*
X643974D1*
X517987Y-1568488D2*
Y-1648873D1*
X544781D1*
X556277Y-1644982D1*
X563971Y-1637376D1*
X567774Y-1629683D1*
X571576Y-1618275D1*
Y-1599086D1*
X567774Y-1587590D1*
X563971Y-1579985D1*
X556277Y-1572291D1*
X544781Y-1568488D1*
X517987D1*
X596279D2*
Y-1648873D1*
X630767D1*
X642263Y-1644982D1*
X646066Y-1641179D1*
X649868Y-1633574D1*
Y-1622078D1*
X646066Y-1614384D1*
X642263Y-1610582D1*
X630767Y-1606779D1*
X642263Y-1602888D1*
X646066Y-1599086D1*
X649868Y-1591481D1*
Y-1583787D1*
X646066Y-1576182D1*
X642263Y-1572291D1*
X630767Y-1568488D1*
X596279D1*
Y-1606779D2*
X630767D1*
X724358Y-1595283D2*
X720467Y-1606779D1*
X712862Y-1614473D1*
X701366Y-1618275D1*
X697563D1*
X686067Y-1614473D1*
X678462Y-1606779D1*
X674571Y-1595283D1*
Y-1591481D1*
X678462Y-1579985D1*
X686067Y-1572379D1*
X697563Y-1568577D1*
X701366D1*
X712862Y-1572379D1*
X720467Y-1579985D1*
X724358Y-1595283D1*
Y-1614473D1*
X720467Y-1633574D1*
X712862Y-1645070D1*
X701366Y-1648873D1*
X693761D1*
X682265Y-1645070D1*
X678462Y-1637376D1*
X798847Y-1568488D2*
X749061D1*
Y-1648873D1*
Y-1606779D2*
X779658D1*
X563883Y-1736985D2*
X560080Y-1729379D1*
X548584Y-1725577D1*
X540979D1*
X529483Y-1729379D1*
X521789Y-1740876D1*
X517987Y-1759977D1*
Y-1779078D1*
X521789Y-1794376D1*
X529483Y-1802070D1*
X540979Y-1805873D1*
X544781D1*
X556189Y-1802070D1*
X563883Y-1794376D1*
X567685Y-1782880D1*
Y-1779078D1*
X563883Y-1767582D1*
X556189Y-1759977D1*
X544781Y-1756174D1*
X540979D1*
X529483Y-1759977D1*
X521789Y-1767582D1*
X517987Y-1779078D1*
X630679Y-1805873D2*
Y-1725577D1*
X592388Y-1779078D1*
X649780D1*
X712773Y-1805873D2*
Y-1725577D1*
X674483Y-1779078D1*
X731874D1*
X794868Y-1805873D2*
Y-1725577D1*
X756577Y-1779078D1*
X813969D1*
X884568Y-1725577D2*
X846365D1*
X842563Y-1759977D1*
X846365Y-1756174D1*
X857861Y-1752283D1*
X869269D1*
X880765Y-1756174D1*
X888459Y-1763779D1*
X892261Y-1775275D1*
Y-1782880D1*
X888459Y-1794376D1*
X880765Y-1802070D1*
X869269Y-1805873D1*
X857861D1*
X846365Y-1802070D1*
X842563Y-1798179D1*
X838672Y-1790574D1*
X962860Y-1736985D2*
X959057Y-1729379D1*
X947561Y-1725577D1*
X939956D1*
X928460Y-1729379D1*
X920767Y-1740876D1*
X916964Y-1759977D1*
Y-1779078D1*
X920767Y-1794376D1*
X928460Y-1802070D1*
X939956Y-1805873D1*
X943759D1*
X955166Y-1802070D1*
X962860Y-1794376D1*
X966662Y-1782880D1*
Y-1779078D1*
X962860Y-1767582D1*
X955166Y-1759977D1*
X943759Y-1756174D1*
X939956D1*
X928460Y-1759977D1*
X920767Y-1767582D1*
X916964Y-1779078D1*
X991365Y-1765725D2*
X1035581D1*
X1064175Y-1744678D2*
Y-1740876D1*
X1067977Y-1733182D1*
X1071780Y-1729379D1*
X1079473Y-1725577D1*
X1094772D1*
X1102377Y-1729379D1*
X1106179Y-1733182D1*
X1110070Y-1740876D1*
Y-1748481D1*
X1106179Y-1756174D1*
X1098574Y-1767582D1*
X1060284Y-1805873D1*
X1113873D1*
X579181Y-1962873D2*
Y-1882488D1*
X548584Y-1962873D1*
X517987Y-1882488D1*
Y-1962873D1*
X665078D2*
Y-1882488D1*
X634481Y-1962873D1*
X603884Y-1882488D1*
Y-1962873D1*
X689781Y-1882488D2*
Y-1962873D1*
X724269D1*
X735765Y-1958982D1*
X739568Y-1955179D1*
X743371Y-1947574D1*
Y-1936078D1*
X739568Y-1928384D1*
X735765Y-1924582D1*
X724269Y-1920779D1*
X735765Y-1916888D1*
X739568Y-1913086D1*
X743371Y-1905481D1*
Y-1897787D1*
X739568Y-1890182D1*
X735765Y-1886291D1*
X724269Y-1882488D1*
X689781D1*
Y-1920779D2*
X724269D1*
X817860Y-1882488D2*
X768073D1*
Y-1962873D1*
Y-1920779D2*
X798671D1*
X842563Y-1897876D2*
X850256Y-1893985D1*
X861752Y-1882577D1*
Y-1962873D1*
X901754D2*
X940045Y-1882577D1*
X886455D1*
X987740D2*
X976243Y-1886379D1*
X968550Y-1897876D1*
X964747Y-1916977D1*
Y-1928473D1*
X968550Y-1947574D1*
X976243Y-1959070D1*
X987740Y-1962873D1*
X995345D1*
X1006841Y-1959070D1*
X1014446Y-1947574D1*
X1018337Y-1928473D1*
Y-1916977D1*
X1014446Y-1897876D1*
X1006841Y-1886379D1*
X995345Y-1882577D1*
X987740D1*
X1014446Y-1897876D2*
X968550Y-1947574D1*
X517987Y-2077779D2*
X552386D1*
X563883Y-2073888D1*
X567774Y-2070086D1*
X571576Y-2062481D1*
Y-2054787D1*
X567774Y-2047182D1*
X563883Y-2043291D1*
X552386Y-2039488D1*
X517987D1*
Y-2119873D1*
X544781Y-2077779D2*
X571576Y-2119873D1*
X645977Y-2039488D2*
X596279D1*
Y-2119873D1*
X645977D1*
X596279Y-2077779D2*
X626876D1*
X724269Y-2050985D2*
X716664Y-2043291D1*
X705168Y-2039488D1*
X689870D1*
X678374Y-2043291D1*
X670680Y-2050985D1*
Y-2058590D1*
X674571Y-2066283D1*
X678374Y-2070086D1*
X685979Y-2073888D1*
X708971Y-2081582D1*
X716664Y-2085384D1*
X720467Y-2089275D1*
X724269Y-2096880D1*
Y-2108376D1*
X716664Y-2115982D1*
X705168Y-2119873D1*
X689870D1*
X678374Y-2115982D1*
X670680Y-2108376D1*
X517987Y-2234779D2*
X552386D1*
X563883Y-2230888D1*
X567774Y-2227086D1*
X571576Y-2219481D1*
Y-2211787D1*
X567774Y-2204182D1*
X563883Y-2200291D1*
X552386Y-2196488D1*
X517987D1*
Y-2276873D1*
X544781Y-2234779D2*
X571576Y-2276873D1*
X645977Y-2196488D2*
X596279D1*
Y-2276873D1*
X645977D1*
X596279Y-2234779D2*
X626876D1*
X724269Y-2207985D2*
X716664Y-2200291D1*
X705168Y-2196488D1*
X689870D1*
X678374Y-2200291D1*
X670680Y-2207985D1*
Y-2215590D1*
X674571Y-2223283D1*
X678374Y-2227086D1*
X685979Y-2230888D1*
X708971Y-2238582D1*
X716664Y-2242384D1*
X720467Y-2246275D1*
X724269Y-2253880D1*
Y-2265376D1*
X716664Y-2272982D1*
X705168Y-2276873D1*
X689870D1*
X678374Y-2272982D1*
X670680Y-2265376D1*
X517987Y-2391779D2*
X552386D1*
X563883Y-2387888D1*
X567774Y-2384086D1*
X571576Y-2376481D1*
Y-2368787D1*
X567774Y-2361182D1*
X563883Y-2357291D1*
X552386Y-2353488D1*
X517987D1*
Y-2433873D1*
X544781Y-2391779D2*
X571576Y-2433873D1*
X645977Y-2353488D2*
X596279D1*
Y-2433873D1*
X645977D1*
X596279Y-2391779D2*
X626876D1*
X724269Y-2364985D2*
X716664Y-2357291D1*
X705168Y-2353488D1*
X689870D1*
X678374Y-2357291D1*
X670680Y-2364985D1*
Y-2372590D1*
X674571Y-2380283D1*
X678374Y-2384086D1*
X685979Y-2387888D1*
X708971Y-2395582D1*
X716664Y-2399384D1*
X720467Y-2403275D1*
X724269Y-2410880D1*
Y-2422376D1*
X716664Y-2429982D1*
X705168Y-2433873D1*
X689870D1*
X678374Y-2429982D1*
X670680Y-2422376D1*
X517987Y-2548779D2*
X552386D1*
X563883Y-2544888D1*
X567774Y-2541086D1*
X571576Y-2533481D1*
Y-2525787D1*
X567774Y-2518182D1*
X563883Y-2514291D1*
X552386Y-2510488D1*
X517987D1*
Y-2590873D1*
X544781Y-2548779D2*
X571576Y-2590873D1*
X645977Y-2510488D2*
X596279D1*
Y-2590873D1*
X645977D1*
X596279Y-2548779D2*
X626876D1*
X724269Y-2521985D2*
X716664Y-2514291D1*
X705168Y-2510488D1*
X689870D1*
X678374Y-2514291D1*
X670680Y-2521985D1*
Y-2529590D1*
X674571Y-2537283D1*
X678374Y-2541086D1*
X685979Y-2544888D1*
X708971Y-2552582D1*
X716664Y-2556384D1*
X720467Y-2560275D1*
X724269Y-2567880D1*
Y-2579376D1*
X716664Y-2586982D1*
X705168Y-2590873D1*
X689870D1*
X678374Y-2586982D1*
X670680Y-2579376D1*
X517987Y-2709582D2*
X552475D1*
X563883Y-2705779D1*
X567774Y-2701888D1*
X571576Y-2694283D1*
Y-2682787D1*
X567774Y-2675182D1*
X563883Y-2671291D1*
X552475Y-2667488D1*
X517987D1*
Y-2747873D1*
X649868Y-2678985D2*
X642263Y-2671291D1*
X630767Y-2667488D1*
X615468D1*
X603972Y-2671291D1*
X596279Y-2678985D1*
Y-2686590D1*
X600170Y-2694283D1*
X603972Y-2698086D1*
X611577Y-2701888D1*
X634570Y-2709582D1*
X642263Y-2713384D1*
X646066Y-2717275D1*
X649868Y-2724880D1*
Y-2736376D1*
X642263Y-2743982D1*
X630767Y-2747873D1*
X615468D1*
X603972Y-2743982D1*
X596279Y-2736376D1*
X678462Y-2686678D2*
Y-2682876D1*
X682265Y-2675182D1*
X686067Y-2671379D1*
X693761Y-2667577D1*
X709059D1*
X716664Y-2671379D1*
X720467Y-2675182D1*
X724358Y-2682876D1*
Y-2690481D1*
X720467Y-2698174D1*
X712862Y-2709582D1*
X674571Y-2747873D1*
X728160D1*
X798759Y-2667577D2*
X760557D1*
X756754Y-2701977D1*
X760557Y-2698174D1*
X772053Y-2694283D1*
X783460D1*
X794956Y-2698174D1*
X802650Y-2705779D1*
X806452Y-2717275D1*
Y-2724880D1*
X802650Y-2736376D1*
X794956Y-2744070D1*
X783460Y-2747873D1*
X772053D1*
X760557Y-2744070D1*
X756754Y-2740179D1*
X752863Y-2732574D1*
X854147Y-2667577D2*
X842651Y-2671379D1*
X834958Y-2682876D1*
X831155Y-2701977D1*
Y-2713473D1*
X834958Y-2732574D1*
X842651Y-2744070D1*
X854147Y-2747873D1*
X861752D1*
X873249Y-2744070D1*
X880854Y-2732574D1*
X884745Y-2713473D1*
Y-2701977D1*
X880854Y-2682876D1*
X873249Y-2671379D1*
X861752Y-2667577D1*
X854147D1*
X880854Y-2682876D2*
X834958Y-2732574D1*
X909447Y-2682876D2*
X917141Y-2678985D1*
X928637Y-2667577D1*
Y-2747873D1*
X953340Y-2667488D2*
Y-2747873D1*
X999236D1*
X1023938Y-2707725D2*
X1068154D1*
X1092857Y-2682876D2*
X1100550Y-2678985D1*
X1112046Y-2667577D1*
Y-2747873D1*
X1305388Y-783488D2*
X1358978Y-863873D1*
Y-783488D2*
X1305388Y-863873D1*
X1488237Y-762530D2*
X1480543Y-770135D1*
X1472938Y-781631D1*
X1465245Y-796930D1*
X1461442Y-816120D1*
Y-831418D1*
X1465245Y-850519D1*
X1472938Y-865818D1*
X1480543Y-877314D1*
X1488237Y-884919D1*
X1512939Y-783488D2*
X1516742Y-787291D1*
X1520633Y-783488D1*
X1516742Y-779598D1*
X1512939Y-783488D1*
X1516742Y-810283D2*
Y-863873D1*
X1545336Y-810283D2*
Y-863873D1*
Y-825582D2*
X1556832Y-814086D1*
X1564525Y-810283D1*
X1575933D1*
X1583626Y-814086D1*
X1587429Y-825582D1*
Y-863873D1*
X1612132Y-762530D2*
X1619825Y-770135D1*
X1627430Y-781631D1*
X1635124Y-796930D1*
X1638926Y-816120D1*
Y-831418D1*
X1635124Y-850519D1*
X1627430Y-865818D1*
X1619825Y-877314D1*
X1612132Y-884919D1*
X1328380Y-940577D2*
X1316884Y-944379D1*
X1309191Y-955876D1*
X1305388Y-974977D1*
Y-986473D1*
X1309191Y-1005574D1*
X1316884Y-1017070D1*
X1328380Y-1020873D1*
X1335986D1*
X1347482Y-1017070D1*
X1355087Y-1005574D1*
X1358978Y-986473D1*
Y-974977D1*
X1355087Y-955876D1*
X1347482Y-944379D1*
X1335986Y-940577D1*
X1328380D1*
X1355087Y-955876D2*
X1309191Y-1005574D1*
X1387483Y-1013179D2*
X1383680Y-1017070D1*
X1387483Y-1020873D1*
X1391374Y-1017070D1*
X1387483Y-1013179D1*
X1454367Y-1020873D2*
Y-940577D1*
X1416077Y-994078D1*
X1473469D1*
X1536462Y-1020873D2*
Y-940577D1*
X1498171Y-994078D1*
X1555563D1*
X1584157Y-959678D2*
Y-955876D1*
X1587960Y-948182D1*
X1591762Y-944379D1*
X1599456Y-940577D1*
X1614754D1*
X1622359Y-944379D1*
X1626162Y-948182D1*
X1630053Y-955876D1*
Y-963481D1*
X1626162Y-971174D1*
X1618557Y-982582D1*
X1580266Y-1020873D1*
X1633855D1*
X1328380Y-1097577D2*
X1316884Y-1101379D1*
X1309191Y-1112876D1*
X1305388Y-1131977D1*
Y-1143473D1*
X1309191Y-1162574D1*
X1316884Y-1174070D1*
X1328380Y-1177873D1*
X1335986D1*
X1347482Y-1174070D1*
X1355087Y-1162574D1*
X1358978Y-1143473D1*
Y-1131977D1*
X1355087Y-1112876D1*
X1347482Y-1101379D1*
X1335986Y-1097577D1*
X1328380D1*
X1355087Y-1112876D2*
X1309191Y-1162574D1*
X1387483Y-1170179D2*
X1383680Y-1174070D1*
X1387483Y-1177873D1*
X1391374Y-1174070D1*
X1387483Y-1170179D1*
X1454367Y-1177873D2*
Y-1097577D1*
X1416077Y-1151078D1*
X1473469D1*
X1521164Y-1097577D2*
X1509667Y-1101379D1*
X1501974Y-1112876D1*
X1498171Y-1131977D1*
Y-1143473D1*
X1501974Y-1162574D1*
X1509667Y-1174070D1*
X1521164Y-1177873D1*
X1528769D1*
X1540265Y-1174070D1*
X1547870Y-1162574D1*
X1551761Y-1143473D1*
Y-1131977D1*
X1547870Y-1112876D1*
X1540265Y-1101379D1*
X1528769Y-1097577D1*
X1521164D1*
X1547870Y-1112876D2*
X1501974Y-1162574D1*
X1595565Y-1097577D2*
X1584157Y-1101379D1*
X1580266Y-1108985D1*
Y-1116678D1*
X1584157Y-1124283D1*
X1591762Y-1128174D1*
X1607061Y-1131977D1*
X1618557Y-1135779D1*
X1626162Y-1143473D1*
X1629964Y-1151078D1*
Y-1162574D1*
X1626162Y-1170179D1*
X1622359Y-1174070D1*
X1610863Y-1177873D1*
X1595565D1*
X1584157Y-1174070D1*
X1580266Y-1170179D1*
X1576464Y-1162574D1*
Y-1151078D1*
X1580266Y-1143473D1*
X1587960Y-1135779D1*
X1599367Y-1131977D1*
X1614666Y-1128174D1*
X1622359Y-1124283D1*
X1626162Y-1116678D1*
Y-1108985D1*
X1622359Y-1101379D1*
X1610863Y-1097577D1*
X1595565D1*
X1328380Y-1254577D2*
X1316884Y-1258379D1*
X1309191Y-1269876D1*
X1305388Y-1288977D1*
Y-1300473D1*
X1309191Y-1319574D1*
X1316884Y-1331070D1*
X1328380Y-1334873D1*
X1335986D1*
X1347482Y-1331070D1*
X1355087Y-1319574D1*
X1358978Y-1300473D1*
Y-1288977D1*
X1355087Y-1269876D1*
X1347482Y-1258379D1*
X1335986Y-1254577D1*
X1328380D1*
X1355087Y-1269876D2*
X1309191Y-1319574D1*
X1387483Y-1327179D2*
X1383680Y-1331070D1*
X1387483Y-1334873D1*
X1391374Y-1331070D1*
X1387483Y-1327179D1*
X1419968Y-1273678D2*
Y-1269876D1*
X1423770Y-1262182D1*
X1427573Y-1258379D1*
X1435266Y-1254577D1*
X1450565D1*
X1458170Y-1258379D1*
X1461973Y-1262182D1*
X1465864Y-1269876D1*
Y-1277481D1*
X1461973Y-1285174D1*
X1454367Y-1296582D1*
X1416077Y-1334873D1*
X1469666D1*
X1532660D2*
Y-1254577D1*
X1494369Y-1308078D1*
X1551761D1*
X1576464Y-1269876D2*
X1584157Y-1265985D1*
X1595653Y-1254577D1*
Y-1334873D1*
X1328380Y-1411577D2*
X1316884Y-1415379D1*
X1309191Y-1426876D1*
X1305388Y-1445977D1*
Y-1457473D1*
X1309191Y-1476574D1*
X1316884Y-1488070D1*
X1328380Y-1491873D1*
X1335986D1*
X1347482Y-1488070D1*
X1355087Y-1476574D1*
X1358978Y-1457473D1*
Y-1445977D1*
X1355087Y-1426876D1*
X1347482Y-1415379D1*
X1335986Y-1411577D1*
X1328380D1*
X1355087Y-1426876D2*
X1309191Y-1476574D1*
X1387483Y-1484179D2*
X1383680Y-1488070D1*
X1387483Y-1491873D1*
X1391374Y-1488070D1*
X1387483Y-1484179D1*
X1419968Y-1430678D2*
Y-1426876D1*
X1423770Y-1419182D1*
X1427573Y-1415379D1*
X1435266Y-1411577D1*
X1450565D1*
X1458170Y-1415379D1*
X1461973Y-1419182D1*
X1465864Y-1426876D1*
Y-1434481D1*
X1461973Y-1442174D1*
X1454367Y-1453582D1*
X1416077Y-1491873D1*
X1469666D1*
X1498260Y-1430678D2*
Y-1426876D1*
X1502062Y-1419182D1*
X1505865Y-1415379D1*
X1513558Y-1411577D1*
X1528857D1*
X1536462Y-1415379D1*
X1540265Y-1419182D1*
X1544156Y-1426876D1*
Y-1434481D1*
X1540265Y-1442174D1*
X1532660Y-1453582D1*
X1494369Y-1491873D1*
X1547958D1*
X1618557Y-1411577D2*
X1580355D1*
X1576552Y-1445977D1*
X1580355Y-1442174D1*
X1591851Y-1438283D1*
X1603258D1*
X1614754Y-1442174D1*
X1622448Y-1449779D1*
X1626250Y-1461275D1*
Y-1468880D1*
X1622448Y-1480376D1*
X1614754Y-1488070D1*
X1603258Y-1491873D1*
X1591851D1*
X1580355Y-1488070D1*
X1576552Y-1484179D1*
X1572661Y-1476574D1*
X1328380Y-1568577D2*
X1316884Y-1572379D1*
X1309191Y-1583876D1*
X1305388Y-1602977D1*
Y-1614473D1*
X1309191Y-1633574D1*
X1316884Y-1645070D1*
X1328380Y-1648873D1*
X1335986D1*
X1347482Y-1645070D1*
X1355087Y-1633574D1*
X1358978Y-1614473D1*
Y-1602977D1*
X1355087Y-1583876D1*
X1347482Y-1572379D1*
X1335986Y-1568577D1*
X1328380D1*
X1355087Y-1583876D2*
X1309191Y-1633574D1*
X1387483Y-1641179D2*
X1383680Y-1645070D1*
X1387483Y-1648873D1*
X1391374Y-1645070D1*
X1387483Y-1641179D1*
X1439069Y-1568577D2*
X1427573Y-1572379D1*
X1419879Y-1583876D1*
X1416077Y-1602977D1*
Y-1614473D1*
X1419879Y-1633574D1*
X1427573Y-1645070D1*
X1439069Y-1648873D1*
X1446674D1*
X1458170Y-1645070D1*
X1465775Y-1633574D1*
X1469666Y-1614473D1*
Y-1602977D1*
X1465775Y-1583876D1*
X1458170Y-1572379D1*
X1446674Y-1568577D1*
X1439069D1*
X1465775Y-1583876D2*
X1419879Y-1633574D1*
X1540265Y-1579985D2*
X1536462Y-1572379D1*
X1524966Y-1568577D1*
X1517361D1*
X1505865Y-1572379D1*
X1498171Y-1583876D1*
X1494369Y-1602977D1*
Y-1622078D1*
X1498171Y-1637376D1*
X1505865Y-1645070D1*
X1517361Y-1648873D1*
X1521164D1*
X1532571Y-1645070D1*
X1540265Y-1637376D1*
X1544067Y-1625880D1*
Y-1622078D1*
X1540265Y-1610582D1*
X1532571Y-1602977D1*
X1521164Y-1599174D1*
X1517361D1*
X1505865Y-1602977D1*
X1498171Y-1610582D1*
X1494369Y-1622078D1*
X1614666Y-1568577D2*
X1576464D1*
X1572661Y-1602977D1*
X1576464Y-1599174D1*
X1587960Y-1595283D1*
X1599367D1*
X1610863Y-1599174D1*
X1618557Y-1606779D1*
X1622359Y-1618275D1*
Y-1625880D1*
X1618557Y-1637376D1*
X1610863Y-1645070D1*
X1599367Y-1648873D1*
X1587960D1*
X1576464Y-1645070D1*
X1572661Y-1641179D1*
X1568770Y-1633574D1*
X1305388Y-1740876D2*
X1313082Y-1736985D1*
X1324578Y-1725577D1*
Y-1805873D1*
X1353083Y-1798179D2*
X1349281Y-1802070D1*
X1353083Y-1805873D1*
X1356974Y-1802070D1*
X1353083Y-1798179D1*
X1404669Y-1725577D2*
X1393173Y-1729379D1*
X1385480Y-1740876D1*
X1381677Y-1759977D1*
Y-1771473D1*
X1385480Y-1790574D1*
X1393173Y-1802070D1*
X1404669Y-1805873D1*
X1412274D1*
X1423770Y-1802070D1*
X1431375Y-1790574D1*
X1435266Y-1771473D1*
Y-1759977D1*
X1431375Y-1740876D1*
X1423770Y-1729379D1*
X1412274Y-1725577D1*
X1404669D1*
X1431375Y-1740876D2*
X1385480Y-1790574D1*
X1475268Y-1805873D2*
X1513558Y-1725577D1*
X1459969D1*
X1584157D2*
X1545955D1*
X1542152Y-1759977D1*
X1545955Y-1756174D1*
X1557451Y-1752283D1*
X1568858D1*
X1580355Y-1756174D1*
X1588048Y-1763779D1*
X1591851Y-1775275D1*
Y-1782880D1*
X1588048Y-1794376D1*
X1580355Y-1802070D1*
X1568858Y-1805873D1*
X1557451D1*
X1545955Y-1802070D1*
X1542152Y-1798179D1*
X1538261Y-1790574D1*
X1328380Y-1882577D2*
X1316884Y-1886379D1*
X1309191Y-1897876D1*
X1305388Y-1916977D1*
Y-1928473D1*
X1309191Y-1947574D1*
X1316884Y-1959070D1*
X1328380Y-1962873D1*
X1335986D1*
X1347482Y-1959070D1*
X1355087Y-1947574D1*
X1358978Y-1928473D1*
Y-1916977D1*
X1355087Y-1897876D1*
X1347482Y-1886379D1*
X1335986Y-1882577D1*
X1328380D1*
X1355087Y-1897876D2*
X1309191Y-1947574D1*
X1387483Y-1955179D2*
X1383680Y-1959070D1*
X1387483Y-1962873D1*
X1391374Y-1959070D1*
X1387483Y-1955179D1*
X1461973Y-1882577D2*
X1423770D1*
X1419968Y-1916977D1*
X1423770Y-1913174D1*
X1435266Y-1909283D1*
X1446674D1*
X1458170Y-1913174D1*
X1465864Y-1920779D1*
X1469666Y-1932275D1*
Y-1939880D1*
X1465864Y-1951376D1*
X1458170Y-1959070D1*
X1446674Y-1962873D1*
X1435266D1*
X1423770Y-1959070D1*
X1419968Y-1955179D1*
X1416077Y-1947574D1*
X1544156Y-1909283D2*
X1540265Y-1920779D1*
X1532660Y-1928473D1*
X1521164Y-1932275D1*
X1517361D1*
X1505865Y-1928473D1*
X1498260Y-1920779D1*
X1494369Y-1909283D1*
Y-1905481D1*
X1498260Y-1893985D1*
X1505865Y-1886379D1*
X1517361Y-1882577D1*
X1521164D1*
X1532660Y-1886379D1*
X1540265Y-1893985D1*
X1544156Y-1909283D1*
Y-1928473D1*
X1540265Y-1947574D1*
X1532660Y-1959070D1*
X1521164Y-1962873D1*
X1513558D1*
X1502062Y-1959070D1*
X1498260Y-1951376D1*
X1576552Y-1882577D2*
X1618557D1*
X1595653Y-1913174D1*
X1607149D1*
X1614754Y-1916977D1*
X1618557Y-1920779D1*
X1622448Y-1932275D1*
Y-1939880D1*
X1618557Y-1951376D1*
X1610952Y-1959070D1*
X1599456Y-1962873D1*
X1587960D1*
X1576552Y-1959070D1*
X1572749Y-1955179D1*
X1568858Y-1947574D1*
X1328380Y-2039577D2*
X1316884Y-2043379D1*
X1309191Y-2054876D1*
X1305388Y-2073977D1*
Y-2085473D1*
X1309191Y-2104574D1*
X1316884Y-2116070D1*
X1328380Y-2119873D1*
X1335986D1*
X1347482Y-2116070D1*
X1355087Y-2104574D1*
X1358978Y-2085473D1*
Y-2073977D1*
X1355087Y-2054876D1*
X1347482Y-2043379D1*
X1335986Y-2039577D1*
X1328380D1*
X1355087Y-2054876D2*
X1309191Y-2104574D1*
X1387483Y-2112179D2*
X1383680Y-2116070D1*
X1387483Y-2119873D1*
X1391374Y-2116070D1*
X1387483Y-2112179D1*
X1419968Y-2058678D2*
Y-2054876D1*
X1423770Y-2047182D1*
X1427573Y-2043379D1*
X1435266Y-2039577D1*
X1450565D1*
X1458170Y-2043379D1*
X1461973Y-2047182D1*
X1465864Y-2054876D1*
Y-2062481D1*
X1461973Y-2070174D1*
X1454367Y-2081582D1*
X1416077Y-2119873D1*
X1469666D1*
X1502062Y-2039577D2*
X1544067D1*
X1521164Y-2070174D1*
X1532660D1*
X1540265Y-2073977D1*
X1544067Y-2077779D1*
X1547958Y-2089275D1*
Y-2096880D1*
X1544067Y-2108376D1*
X1536462Y-2116070D1*
X1524966Y-2119873D1*
X1513470D1*
X1502062Y-2116070D1*
X1498260Y-2112179D1*
X1494369Y-2104574D1*
X1591762Y-2039577D2*
X1580355Y-2043379D1*
X1576464Y-2050985D1*
Y-2058678D1*
X1580355Y-2066283D1*
X1587960Y-2070174D1*
X1603258Y-2073977D1*
X1614754Y-2077779D1*
X1622359Y-2085473D1*
X1626162Y-2093078D1*
Y-2104574D1*
X1622359Y-2112179D1*
X1618557Y-2116070D1*
X1607061Y-2119873D1*
X1591762D1*
X1580355Y-2116070D1*
X1576464Y-2112179D1*
X1572661Y-2104574D1*
Y-2093078D1*
X1576464Y-2085473D1*
X1584157Y-2077779D1*
X1595565Y-2073977D1*
X1610863Y-2070174D1*
X1618557Y-2066283D1*
X1622359Y-2058678D1*
Y-2050985D1*
X1618557Y-2043379D1*
X1607061Y-2039577D1*
X1591762D1*
X1328380Y-2196577D2*
X1316884Y-2200379D1*
X1309191Y-2211876D1*
X1305388Y-2230977D1*
Y-2242473D1*
X1309191Y-2261574D1*
X1316884Y-2273070D1*
X1328380Y-2276873D1*
X1335986D1*
X1347482Y-2273070D1*
X1355087Y-2261574D1*
X1358978Y-2242473D1*
Y-2230977D1*
X1355087Y-2211876D1*
X1347482Y-2200379D1*
X1335986Y-2196577D1*
X1328380D1*
X1355087Y-2211876D2*
X1309191Y-2261574D1*
X1387483Y-2269179D2*
X1383680Y-2273070D1*
X1387483Y-2276873D1*
X1391374Y-2273070D1*
X1387483Y-2269179D1*
X1419968Y-2215678D2*
Y-2211876D1*
X1423770Y-2204182D1*
X1427573Y-2200379D1*
X1435266Y-2196577D1*
X1450565D1*
X1458170Y-2200379D1*
X1461973Y-2204182D1*
X1465864Y-2211876D1*
Y-2219481D1*
X1461973Y-2227174D1*
X1454367Y-2238582D1*
X1416077Y-2276873D1*
X1469666D1*
X1498260Y-2215678D2*
Y-2211876D1*
X1502062Y-2204182D1*
X1505865Y-2200379D1*
X1513558Y-2196577D1*
X1528857D1*
X1536462Y-2200379D1*
X1540265Y-2204182D1*
X1544156Y-2211876D1*
Y-2219481D1*
X1540265Y-2227174D1*
X1532660Y-2238582D1*
X1494369Y-2276873D1*
X1547958D1*
X1618557Y-2196577D2*
X1580355D1*
X1576552Y-2230977D1*
X1580355Y-2227174D1*
X1591851Y-2223283D1*
X1603258D1*
X1614754Y-2227174D1*
X1622448Y-2234779D1*
X1626250Y-2246275D1*
Y-2253880D1*
X1622448Y-2265376D1*
X1614754Y-2273070D1*
X1603258Y-2276873D1*
X1591851D1*
X1580355Y-2273070D1*
X1576552Y-2269179D1*
X1572661Y-2261574D1*
X1328380Y-2353577D2*
X1316884Y-2357379D1*
X1309191Y-2368876D1*
X1305388Y-2387977D1*
Y-2399473D1*
X1309191Y-2418574D1*
X1316884Y-2430070D1*
X1328380Y-2433873D1*
X1335986D1*
X1347482Y-2430070D1*
X1355087Y-2418574D1*
X1358978Y-2399473D1*
Y-2387977D1*
X1355087Y-2368876D1*
X1347482Y-2357379D1*
X1335986Y-2353577D1*
X1328380D1*
X1355087Y-2368876D2*
X1309191Y-2418574D1*
X1387483Y-2426179D2*
X1383680Y-2430070D1*
X1387483Y-2433873D1*
X1391374Y-2430070D1*
X1387483Y-2426179D1*
X1454367Y-2433873D2*
Y-2353577D1*
X1416077Y-2407078D1*
X1473469D1*
X1513470Y-2433873D2*
X1551761Y-2353577D1*
X1498171D1*
X1622359D2*
X1584157D1*
X1580355Y-2387977D1*
X1584157Y-2384174D1*
X1595653Y-2380283D1*
X1607061D1*
X1618557Y-2384174D1*
X1626250Y-2391779D1*
X1630053Y-2403275D1*
Y-2410880D1*
X1626250Y-2422376D1*
X1618557Y-2430070D1*
X1607061Y-2433873D1*
X1595653D1*
X1584157Y-2430070D1*
X1580355Y-2426179D1*
X1576464Y-2418574D1*
X1328380Y-2510577D2*
X1316884Y-2514379D1*
X1309191Y-2525876D1*
X1305388Y-2544977D1*
Y-2556473D1*
X1309191Y-2575574D1*
X1316884Y-2587070D1*
X1328380Y-2590873D1*
X1335986D1*
X1347482Y-2587070D1*
X1355087Y-2575574D1*
X1358978Y-2556473D1*
Y-2544977D1*
X1355087Y-2525876D1*
X1347482Y-2514379D1*
X1335986Y-2510577D1*
X1328380D1*
X1355087Y-2525876D2*
X1309191Y-2575574D1*
X1387483Y-2583179D2*
X1383680Y-2587070D1*
X1387483Y-2590873D1*
X1391374Y-2587070D1*
X1387483Y-2583179D1*
X1419968Y-2529678D2*
Y-2525876D1*
X1423770Y-2518182D1*
X1427573Y-2514379D1*
X1435266Y-2510577D1*
X1450565D1*
X1458170Y-2514379D1*
X1461973Y-2518182D1*
X1465864Y-2525876D1*
Y-2533481D1*
X1461973Y-2541174D1*
X1454367Y-2552582D1*
X1416077Y-2590873D1*
X1469666D1*
X1540265Y-2521985D2*
X1536462Y-2514379D1*
X1524966Y-2510577D1*
X1517361D1*
X1505865Y-2514379D1*
X1498171Y-2525876D1*
X1494369Y-2544977D1*
Y-2564078D1*
X1498171Y-2579376D1*
X1505865Y-2587070D1*
X1517361Y-2590873D1*
X1521164D1*
X1532571Y-2587070D1*
X1540265Y-2579376D1*
X1544067Y-2567880D1*
Y-2564078D1*
X1540265Y-2552582D1*
X1532571Y-2544977D1*
X1521164Y-2541174D1*
X1517361D1*
X1505865Y-2544977D1*
X1498171Y-2552582D1*
X1494369Y-2564078D1*
X1568770Y-2525876D2*
X1576464Y-2521985D1*
X1587960Y-2510577D1*
Y-2590873D1*
X1328380Y-2667577D2*
X1316884Y-2671379D1*
X1309191Y-2682876D1*
X1305388Y-2701977D1*
Y-2713473D1*
X1309191Y-2732574D1*
X1316884Y-2744070D1*
X1328380Y-2747873D1*
X1335986D1*
X1347482Y-2744070D1*
X1355087Y-2732574D1*
X1358978Y-2713473D1*
Y-2701977D1*
X1355087Y-2682876D1*
X1347482Y-2671379D1*
X1335986Y-2667577D1*
X1328380D1*
X1355087Y-2682876D2*
X1309191Y-2732574D1*
X1387483Y-2740179D2*
X1383680Y-2744070D1*
X1387483Y-2747873D1*
X1391374Y-2744070D1*
X1387483Y-2740179D1*
X1431375Y-2747873D2*
X1469666Y-2667577D1*
X1416077D1*
X1540265D2*
X1502062D1*
X1498260Y-2701977D1*
X1502062Y-2698174D1*
X1513558Y-2694283D1*
X1524966D1*
X1536462Y-2698174D1*
X1544156Y-2705779D1*
X1547958Y-2717275D1*
Y-2724880D1*
X1544156Y-2736376D1*
X1536462Y-2744070D1*
X1524966Y-2747873D1*
X1513558D1*
X1502062Y-2744070D1*
X1498260Y-2740179D1*
X1494369Y-2732574D1*
X1618557Y-2667577D2*
X1580355D1*
X1576552Y-2701977D1*
X1580355Y-2698174D1*
X1591851Y-2694283D1*
X1603258D1*
X1614754Y-2698174D1*
X1622448Y-2705779D1*
X1626250Y-2717275D1*
Y-2724880D1*
X1622448Y-2736376D1*
X1614754Y-2744070D1*
X1603258Y-2747873D1*
X1591851D1*
X1580355Y-2744070D1*
X1576552Y-2740179D1*
X1572661Y-2732574D1*
X2092790Y-783488D2*
X2123387Y-821779D1*
Y-863873D1*
X2153984Y-783488D2*
X2123387Y-821779D1*
X2283243Y-762530D2*
X2275550Y-770135D1*
X2267945Y-781631D1*
X2260251Y-796930D1*
X2256449Y-816120D1*
Y-831418D1*
X2260251Y-850519D1*
X2267945Y-865818D1*
X2275550Y-877314D1*
X2283243Y-884919D1*
X2307946Y-783488D2*
X2311749Y-787291D1*
X2315640Y-783488D1*
X2311749Y-779598D1*
X2307946Y-783488D1*
X2311749Y-810283D2*
Y-863873D1*
X2340342Y-810283D2*
Y-863873D1*
Y-825582D2*
X2351838Y-814086D1*
X2359532Y-810283D1*
X2370940D1*
X2378633Y-814086D1*
X2382436Y-825582D1*
Y-863873D1*
X2407138Y-762530D2*
X2414832Y-770135D1*
X2422437Y-781631D1*
X2430131Y-796930D1*
X2433933Y-816120D1*
Y-831418D1*
X2430131Y-850519D1*
X2422437Y-865818D1*
X2414832Y-877314D1*
X2407138Y-884919D1*
X2092790Y-980725D2*
X2137005D1*
X2184700Y-940577D2*
X2173204Y-944379D1*
X2165511Y-955876D1*
X2161708Y-974977D1*
Y-986473D1*
X2165511Y-1005574D1*
X2173204Y-1017070D1*
X2184700Y-1020873D1*
X2192306D1*
X2203802Y-1017070D1*
X2211407Y-1005574D1*
X2215298Y-986473D1*
Y-974977D1*
X2211407Y-955876D1*
X2203802Y-944379D1*
X2192306Y-940577D1*
X2184700D1*
X2211407Y-955876D2*
X2165511Y-1005574D1*
X2243803Y-1013179D2*
X2240000Y-1017070D1*
X2243803Y-1020873D1*
X2247694Y-1017070D1*
X2243803Y-1013179D1*
X2276288Y-959678D2*
Y-955876D1*
X2280090Y-948182D1*
X2283893Y-944379D1*
X2291586Y-940577D1*
X2306885D1*
X2314490Y-944379D1*
X2318293Y-948182D1*
X2322184Y-955876D1*
Y-963481D1*
X2318293Y-971174D1*
X2310687Y-982582D1*
X2272397Y-1020873D1*
X2325986D1*
X2350689Y-955876D2*
X2358382Y-951985D1*
X2369878Y-940577D1*
Y-1020873D1*
X2398472Y-959678D2*
Y-955876D1*
X2402275Y-948182D1*
X2406077Y-944379D1*
X2413771Y-940577D1*
X2429069D1*
X2436675Y-944379D1*
X2440477Y-948182D1*
X2444368Y-955876D1*
Y-963481D1*
X2440477Y-971174D1*
X2432872Y-982582D1*
X2394581Y-1020873D1*
X2448171D1*
X2115782Y-1097577D2*
X2104286Y-1101379D1*
X2096592Y-1112876D1*
X2092790Y-1131977D1*
Y-1143473D1*
X2096592Y-1162574D1*
X2104286Y-1174070D1*
X2115782Y-1177873D1*
X2123387D1*
X2134883Y-1174070D1*
X2142488Y-1162574D1*
X2146379Y-1143473D1*
Y-1131977D1*
X2142488Y-1112876D1*
X2134883Y-1101379D1*
X2123387Y-1097577D1*
X2115782D1*
X2142488Y-1112876D2*
X2096592Y-1162574D1*
X2174885Y-1170179D2*
X2171082Y-1174070D1*
X2174885Y-1177873D1*
X2178776Y-1174070D1*
X2174885Y-1170179D1*
X2207369Y-1116678D2*
Y-1112876D1*
X2211172Y-1105182D1*
X2214974Y-1101379D1*
X2222668Y-1097577D1*
X2237967D1*
X2245572Y-1101379D1*
X2249374Y-1105182D1*
X2253265Y-1112876D1*
Y-1120481D1*
X2249374Y-1128174D1*
X2241769Y-1139582D1*
X2203478Y-1177873D1*
X2257068D1*
X2281770Y-1112876D2*
X2289464Y-1108985D1*
X2300960Y-1097577D1*
Y-1177873D1*
X2329554Y-1116678D2*
Y-1112876D1*
X2333356Y-1105182D1*
X2337159Y-1101379D1*
X2344852Y-1097577D1*
X2360151D1*
X2367756Y-1101379D1*
X2371559Y-1105182D1*
X2375450Y-1112876D1*
Y-1120481D1*
X2371559Y-1128174D1*
X2363954Y-1139582D1*
X2325663Y-1177873D1*
X2379252D1*
X2092790Y-1294725D2*
X2137005D1*
X2184700Y-1254577D2*
X2173204Y-1258379D1*
X2165511Y-1269876D1*
X2161708Y-1288977D1*
Y-1300473D1*
X2165511Y-1319574D1*
X2173204Y-1331070D1*
X2184700Y-1334873D1*
X2192306D1*
X2203802Y-1331070D1*
X2211407Y-1319574D1*
X2215298Y-1300473D1*
Y-1288977D1*
X2211407Y-1269876D1*
X2203802Y-1258379D1*
X2192306Y-1254577D1*
X2184700D1*
X2211407Y-1269876D2*
X2165511Y-1319574D1*
X2243803Y-1327179D2*
X2240000Y-1331070D1*
X2243803Y-1334873D1*
X2247694Y-1331070D1*
X2243803Y-1327179D1*
X2295389Y-1254577D2*
X2283893Y-1258379D1*
X2276199Y-1269876D1*
X2272397Y-1288977D1*
Y-1300473D1*
X2276199Y-1319574D1*
X2283893Y-1331070D1*
X2295389Y-1334873D1*
X2302994D1*
X2314490Y-1331070D1*
X2322095Y-1319574D1*
X2325986Y-1300473D1*
Y-1288977D1*
X2322095Y-1269876D1*
X2314490Y-1258379D1*
X2302994Y-1254577D1*
X2295389D1*
X2322095Y-1269876D2*
X2276199Y-1319574D1*
X2396585Y-1265985D2*
X2392782Y-1258379D1*
X2381286Y-1254577D1*
X2373681D1*
X2362185Y-1258379D1*
X2354491Y-1269876D1*
X2350689Y-1288977D1*
Y-1308078D1*
X2354491Y-1323376D1*
X2362185Y-1331070D1*
X2373681Y-1334873D1*
X2377484D1*
X2388891Y-1331070D1*
X2396585Y-1323376D1*
X2400387Y-1311880D1*
Y-1308078D1*
X2396585Y-1296582D1*
X2388891Y-1288977D1*
X2377484Y-1285174D1*
X2373681D1*
X2362185Y-1288977D1*
X2354491Y-1296582D1*
X2350689Y-1308078D1*
X2470986Y-1254577D2*
X2432784D1*
X2428981Y-1288977D1*
X2432784Y-1285174D1*
X2444280Y-1281283D1*
X2455687D1*
X2467183Y-1285174D1*
X2474877Y-1292779D1*
X2478679Y-1304275D1*
Y-1311880D1*
X2474877Y-1323376D1*
X2467183Y-1331070D1*
X2455687Y-1334873D1*
X2444280D1*
X2432784Y-1331070D1*
X2428981Y-1327179D1*
X2425090Y-1319574D1*
X2092790Y-1451725D2*
X2137005D1*
X2184700Y-1411577D2*
X2173204Y-1415379D1*
X2165511Y-1426876D1*
X2161708Y-1445977D1*
Y-1457473D1*
X2165511Y-1476574D1*
X2173204Y-1488070D1*
X2184700Y-1491873D1*
X2192306D1*
X2203802Y-1488070D1*
X2211407Y-1476574D1*
X2215298Y-1457473D1*
Y-1445977D1*
X2211407Y-1426876D1*
X2203802Y-1415379D1*
X2192306Y-1411577D1*
X2184700D1*
X2211407Y-1426876D2*
X2165511Y-1476574D1*
X2243803Y-1484179D2*
X2240000Y-1488070D1*
X2243803Y-1491873D1*
X2247694Y-1488070D1*
X2243803Y-1484179D1*
X2295389Y-1411577D2*
X2283893Y-1415379D1*
X2276199Y-1426876D1*
X2272397Y-1445977D1*
Y-1457473D1*
X2276199Y-1476574D1*
X2283893Y-1488070D1*
X2295389Y-1491873D1*
X2302994D1*
X2314490Y-1488070D1*
X2322095Y-1476574D1*
X2325986Y-1457473D1*
Y-1445977D1*
X2322095Y-1426876D1*
X2314490Y-1415379D1*
X2302994Y-1411577D1*
X2295389D1*
X2322095Y-1426876D2*
X2276199Y-1476574D1*
X2396585Y-1422985D2*
X2392782Y-1415379D1*
X2381286Y-1411577D1*
X2373681D1*
X2362185Y-1415379D1*
X2354491Y-1426876D1*
X2350689Y-1445977D1*
Y-1465078D1*
X2354491Y-1480376D1*
X2362185Y-1488070D1*
X2373681Y-1491873D1*
X2377484D1*
X2388891Y-1488070D1*
X2396585Y-1480376D1*
X2400387Y-1468880D1*
Y-1465078D1*
X2396585Y-1453582D1*
X2388891Y-1445977D1*
X2377484Y-1442174D1*
X2373681D1*
X2362185Y-1445977D1*
X2354491Y-1453582D1*
X2350689Y-1465078D1*
X2092790Y-1608725D2*
X2137005D1*
X2184700Y-1568577D2*
X2173204Y-1572379D1*
X2165511Y-1583876D1*
X2161708Y-1602977D1*
Y-1614473D1*
X2165511Y-1633574D1*
X2173204Y-1645070D1*
X2184700Y-1648873D1*
X2192306D1*
X2203802Y-1645070D1*
X2211407Y-1633574D1*
X2215298Y-1614473D1*
Y-1602977D1*
X2211407Y-1583876D1*
X2203802Y-1572379D1*
X2192306Y-1568577D1*
X2184700D1*
X2211407Y-1583876D2*
X2165511Y-1633574D1*
X2243803Y-1641179D2*
X2240000Y-1645070D1*
X2243803Y-1648873D1*
X2247694Y-1645070D1*
X2243803Y-1641179D1*
X2295389Y-1568577D2*
X2283893Y-1572379D1*
X2276199Y-1583876D1*
X2272397Y-1602977D1*
Y-1614473D1*
X2276199Y-1633574D1*
X2283893Y-1645070D1*
X2295389Y-1648873D1*
X2302994D1*
X2314490Y-1645070D1*
X2322095Y-1633574D1*
X2325986Y-1614473D1*
Y-1602977D1*
X2322095Y-1583876D1*
X2314490Y-1572379D1*
X2302994Y-1568577D1*
X2295389D1*
X2322095Y-1583876D2*
X2276199Y-1633574D1*
X2373681Y-1568577D2*
X2362185Y-1572379D1*
X2354491Y-1583876D1*
X2350689Y-1602977D1*
Y-1614473D1*
X2354491Y-1633574D1*
X2362185Y-1645070D1*
X2373681Y-1648873D1*
X2381286D1*
X2392782Y-1645070D1*
X2400387Y-1633574D1*
X2404278Y-1614473D1*
Y-1602977D1*
X2400387Y-1583876D1*
X2392782Y-1572379D1*
X2381286Y-1568577D1*
X2373681D1*
X2400387Y-1583876D2*
X2354491Y-1633574D1*
X2432872Y-1587678D2*
Y-1583876D1*
X2436675Y-1576182D1*
X2440477Y-1572379D1*
X2448171Y-1568577D1*
X2463469D1*
X2471074Y-1572379D1*
X2474877Y-1576182D1*
X2478768Y-1583876D1*
Y-1591481D1*
X2474877Y-1599174D1*
X2467272Y-1610582D1*
X2428981Y-1648873D1*
X2482570D1*
X2115782Y-1725577D2*
X2104286Y-1729379D1*
X2096592Y-1740876D1*
X2092790Y-1759977D1*
Y-1771473D1*
X2096592Y-1790574D1*
X2104286Y-1802070D1*
X2115782Y-1805873D1*
X2123387D1*
X2134883Y-1802070D1*
X2142488Y-1790574D1*
X2146379Y-1771473D1*
Y-1759977D1*
X2142488Y-1740876D1*
X2134883Y-1729379D1*
X2123387Y-1725577D1*
X2115782D1*
X2142488Y-1740876D2*
X2096592Y-1790574D1*
X2115782Y-1882577D2*
X2104286Y-1886379D1*
X2096592Y-1897876D1*
X2092790Y-1916977D1*
Y-1928473D1*
X2096592Y-1947574D1*
X2104286Y-1959070D1*
X2115782Y-1962873D1*
X2123387D1*
X2134883Y-1959070D1*
X2142488Y-1947574D1*
X2146379Y-1928473D1*
Y-1916977D1*
X2142488Y-1897876D1*
X2134883Y-1886379D1*
X2123387Y-1882577D1*
X2115782D1*
X2142488Y-1897876D2*
X2096592Y-1947574D1*
X2174885Y-1955179D2*
X2171082Y-1959070D1*
X2174885Y-1962873D1*
X2178776Y-1959070D1*
X2174885Y-1955179D1*
X2226470Y-1882577D2*
X2214974Y-1886379D1*
X2207281Y-1897876D1*
X2203478Y-1916977D1*
Y-1928473D1*
X2207281Y-1947574D1*
X2214974Y-1959070D1*
X2226470Y-1962873D1*
X2234076D1*
X2245572Y-1959070D1*
X2253177Y-1947574D1*
X2257068Y-1928473D1*
Y-1916977D1*
X2253177Y-1897876D1*
X2245572Y-1886379D1*
X2234076Y-1882577D1*
X2226470D1*
X2253177Y-1897876D2*
X2207281Y-1947574D1*
X2304763Y-1882577D2*
X2293267Y-1886379D1*
X2285573Y-1897876D1*
X2281770Y-1916977D1*
Y-1928473D1*
X2285573Y-1947574D1*
X2293267Y-1959070D1*
X2304763Y-1962873D1*
X2312368D1*
X2323864Y-1959070D1*
X2331469Y-1947574D1*
X2335360Y-1928473D1*
Y-1916977D1*
X2331469Y-1897876D1*
X2323864Y-1886379D1*
X2312368Y-1882577D1*
X2304763D1*
X2331469Y-1897876D2*
X2285573Y-1947574D1*
X2409849Y-1909283D2*
X2405958Y-1920779D1*
X2398353Y-1928473D1*
X2386857Y-1932275D1*
X2383055D1*
X2371559Y-1928473D1*
X2363954Y-1920779D1*
X2360063Y-1909283D1*
Y-1905481D1*
X2363954Y-1893985D1*
X2371559Y-1886379D1*
X2383055Y-1882577D1*
X2386857D1*
X2398353Y-1886379D1*
X2405958Y-1893985D1*
X2409849Y-1909283D1*
Y-1928473D1*
X2405958Y-1947574D1*
X2398353Y-1959070D1*
X2386857Y-1962873D1*
X2379252D1*
X2367756Y-1959070D1*
X2363954Y-1951376D1*
X2115782Y-2039577D2*
X2104286Y-2043379D1*
X2096592Y-2054876D1*
X2092790Y-2073977D1*
Y-2085473D1*
X2096592Y-2104574D1*
X2104286Y-2116070D1*
X2115782Y-2119873D1*
X2123387D1*
X2134883Y-2116070D1*
X2142488Y-2104574D1*
X2146379Y-2085473D1*
Y-2073977D1*
X2142488Y-2054876D1*
X2134883Y-2043379D1*
X2123387Y-2039577D1*
X2115782D1*
X2142488Y-2054876D2*
X2096592Y-2104574D1*
X2174885Y-2112179D2*
X2171082Y-2116070D1*
X2174885Y-2119873D1*
X2178776Y-2116070D1*
X2174885Y-2112179D1*
X2203478Y-2054876D2*
X2211172Y-2050985D1*
X2222668Y-2039577D1*
Y-2119873D1*
X2285661D2*
Y-2039577D1*
X2247371Y-2093078D1*
X2304763D1*
X2379252Y-2066283D2*
X2375361Y-2077779D1*
X2367756Y-2085473D1*
X2356260Y-2089275D1*
X2352458D1*
X2340961Y-2085473D1*
X2333356Y-2077779D1*
X2329465Y-2066283D1*
Y-2062481D1*
X2333356Y-2050985D1*
X2340961Y-2043379D1*
X2352458Y-2039577D1*
X2356260D1*
X2367756Y-2043379D1*
X2375361Y-2050985D1*
X2379252Y-2066283D1*
Y-2085473D1*
X2375361Y-2104574D1*
X2367756Y-2116070D1*
X2356260Y-2119873D1*
X2348655D1*
X2337159Y-2116070D1*
X2333356Y-2108376D1*
X2115782Y-2196577D2*
X2104286Y-2200379D1*
X2096592Y-2211876D1*
X2092790Y-2230977D1*
Y-2242473D1*
X2096592Y-2261574D1*
X2104286Y-2273070D1*
X2115782Y-2276873D1*
X2123387D1*
X2134883Y-2273070D1*
X2142488Y-2261574D1*
X2146379Y-2242473D1*
Y-2230977D1*
X2142488Y-2211876D1*
X2134883Y-2200379D1*
X2123387Y-2196577D1*
X2115782D1*
X2142488Y-2211876D2*
X2096592Y-2261574D1*
X2174885Y-2269179D2*
X2171082Y-2273070D1*
X2174885Y-2276873D1*
X2178776Y-2273070D1*
X2174885Y-2269179D1*
X2203478Y-2211876D2*
X2211172Y-2207985D1*
X2222668Y-2196577D1*
Y-2276873D1*
X2262669D2*
X2300960Y-2196577D1*
X2247371D1*
X2371559Y-2207985D2*
X2367756Y-2200379D1*
X2356260Y-2196577D1*
X2348655D1*
X2337159Y-2200379D1*
X2329465Y-2211876D1*
X2325663Y-2230977D1*
Y-2250078D1*
X2329465Y-2265376D1*
X2337159Y-2273070D1*
X2348655Y-2276873D1*
X2352458D1*
X2363865Y-2273070D1*
X2371559Y-2265376D1*
X2375361Y-2253880D1*
Y-2250078D1*
X2371559Y-2238582D1*
X2363865Y-2230977D1*
X2352458Y-2227174D1*
X2348655D1*
X2337159Y-2230977D1*
X2329465Y-2238582D1*
X2325663Y-2250078D1*
X2092790Y-2393725D2*
X2137005D1*
X2184700Y-2353577D2*
X2173204Y-2357379D1*
X2165511Y-2368876D1*
X2161708Y-2387977D1*
Y-2399473D1*
X2165511Y-2418574D1*
X2173204Y-2430070D1*
X2184700Y-2433873D1*
X2192306D1*
X2203802Y-2430070D1*
X2211407Y-2418574D1*
X2215298Y-2399473D1*
Y-2387977D1*
X2211407Y-2368876D1*
X2203802Y-2357379D1*
X2192306Y-2353577D1*
X2184700D1*
X2211407Y-2368876D2*
X2165511Y-2418574D1*
X2243803Y-2426179D2*
X2240000Y-2430070D1*
X2243803Y-2433873D1*
X2247694Y-2430070D1*
X2243803Y-2426179D1*
X2295389Y-2353577D2*
X2283893Y-2357379D1*
X2276199Y-2368876D1*
X2272397Y-2387977D1*
Y-2399473D1*
X2276199Y-2418574D1*
X2283893Y-2430070D1*
X2295389Y-2433873D1*
X2302994D1*
X2314490Y-2430070D1*
X2322095Y-2418574D1*
X2325986Y-2399473D1*
Y-2387977D1*
X2322095Y-2368876D1*
X2314490Y-2357379D1*
X2302994Y-2353577D1*
X2295389D1*
X2322095Y-2368876D2*
X2276199Y-2418574D1*
X2388980Y-2433873D2*
Y-2353577D1*
X2350689Y-2407078D1*
X2408081D1*
X2482570Y-2380283D2*
X2478679Y-2391779D1*
X2471074Y-2399473D1*
X2459578Y-2403275D1*
X2455776D1*
X2444280Y-2399473D1*
X2436675Y-2391779D1*
X2432784Y-2380283D1*
Y-2376481D1*
X2436675Y-2364985D1*
X2444280Y-2357379D1*
X2455776Y-2353577D1*
X2459578D1*
X2471074Y-2357379D1*
X2478679Y-2364985D1*
X2482570Y-2380283D1*
Y-2399473D1*
X2478679Y-2418574D1*
X2471074Y-2430070D1*
X2459578Y-2433873D1*
X2451973D1*
X2440477Y-2430070D1*
X2436675Y-2422376D1*
X2092790Y-2550725D2*
X2137005D1*
X2184700Y-2510577D2*
X2173204Y-2514379D1*
X2165511Y-2525876D1*
X2161708Y-2544977D1*
Y-2556473D1*
X2165511Y-2575574D1*
X2173204Y-2587070D1*
X2184700Y-2590873D1*
X2192306D1*
X2203802Y-2587070D1*
X2211407Y-2575574D1*
X2215298Y-2556473D1*
Y-2544977D1*
X2211407Y-2525876D1*
X2203802Y-2514379D1*
X2192306Y-2510577D1*
X2184700D1*
X2211407Y-2525876D2*
X2165511Y-2575574D1*
X2243803Y-2583179D2*
X2240000Y-2587070D1*
X2243803Y-2590873D1*
X2247694Y-2587070D1*
X2243803Y-2583179D1*
X2276288Y-2529678D2*
Y-2525876D1*
X2280090Y-2518182D1*
X2283893Y-2514379D1*
X2291586Y-2510577D1*
X2306885D1*
X2314490Y-2514379D1*
X2318293Y-2518182D1*
X2322184Y-2525876D1*
Y-2533481D1*
X2318293Y-2541174D1*
X2310687Y-2552582D1*
X2272397Y-2590873D1*
X2325986D1*
X2350689Y-2525876D2*
X2358382Y-2521985D1*
X2369878Y-2510577D1*
Y-2590873D1*
X2398472Y-2529678D2*
Y-2525876D1*
X2402275Y-2518182D1*
X2406077Y-2514379D1*
X2413771Y-2510577D1*
X2429069D1*
X2436675Y-2514379D1*
X2440477Y-2518182D1*
X2444368Y-2525876D1*
Y-2533481D1*
X2440477Y-2541174D1*
X2432872Y-2552582D1*
X2394581Y-2590873D1*
X2448171D1*
X2115782Y-2667577D2*
X2104286Y-2671379D1*
X2096592Y-2682876D1*
X2092790Y-2701977D1*
Y-2713473D1*
X2096592Y-2732574D1*
X2104286Y-2744070D1*
X2115782Y-2747873D1*
X2123387D1*
X2134883Y-2744070D1*
X2142488Y-2732574D1*
X2146379Y-2713473D1*
Y-2701977D1*
X2142488Y-2682876D1*
X2134883Y-2671379D1*
X2123387Y-2667577D1*
X2115782D1*
X2142488Y-2682876D2*
X2096592Y-2732574D1*
X2933781Y-794985D2*
X2926176Y-787291D1*
X2914680Y-783488D1*
X2899381D1*
X2887885Y-787291D1*
X2880191Y-794985D1*
Y-802590D1*
X2884082Y-810283D1*
X2887885Y-814086D1*
X2895490Y-817888D1*
X2918482Y-825582D1*
X2926176Y-829384D1*
X2929978Y-833275D1*
X2933781Y-840880D1*
Y-852376D1*
X2926176Y-859982D1*
X2914680Y-863873D1*
X2899381D1*
X2887885Y-859982D1*
X2880191Y-852376D1*
X2958484Y-783488D2*
X2962286Y-787291D1*
X2966177Y-783488D1*
X2962286Y-779598D1*
X2958484Y-783488D1*
X2962286Y-810283D2*
Y-863873D1*
X3036776Y-783488D2*
Y-863873D1*
Y-821779D2*
X3029171Y-814086D1*
X3021477Y-810283D1*
X3009981D1*
X3002376Y-814086D1*
X2994682Y-821779D1*
X2990880Y-833275D1*
Y-840880D1*
X2994682Y-852376D1*
X3002376Y-859982D1*
X3009981Y-863873D1*
X3021477D1*
X3029171Y-859982D1*
X3036776Y-852376D1*
X3061479Y-833275D2*
X3107374D1*
Y-825582D1*
X3103572Y-817888D1*
X3099769Y-814086D1*
X3092076Y-810283D1*
X3080580D1*
X3072975Y-814086D1*
X3065281Y-821779D1*
X3061479Y-833275D1*
Y-840880D1*
X3065281Y-852376D1*
X3072975Y-859982D1*
X3080580Y-863873D1*
X3092076D1*
X3099769Y-859982D1*
X3107374Y-852376D1*
X2880191Y-940488D2*
Y-1020873D1*
X2914680D1*
X2926176Y-1016982D1*
X2929978Y-1013179D1*
X2933781Y-1005574D1*
Y-994078D1*
X2929978Y-986384D1*
X2926176Y-982582D1*
X2914680Y-978779D1*
X2926176Y-974888D1*
X2929978Y-971086D1*
X2933781Y-963481D1*
Y-955787D1*
X2929978Y-948182D1*
X2926176Y-944291D1*
X2914680Y-940488D1*
X2880191D1*
Y-978779D2*
X2914680D1*
X2977585Y-967283D2*
X2969980Y-971086D1*
X2962286Y-978779D1*
X2958484Y-990275D1*
Y-997880D1*
X2962286Y-1009376D1*
X2969980Y-1016982D1*
X2977585Y-1020873D1*
X2989081D1*
X2996774Y-1016982D1*
X3004379Y-1009376D1*
X3008270Y-997880D1*
Y-990275D1*
X3004379Y-978779D1*
X2996774Y-971086D1*
X2989081Y-967283D1*
X2977585D1*
X3044469Y-940488D2*
Y-1005574D1*
X3048272Y-1016982D1*
X3055965Y-1020873D1*
X3063570D1*
X3032973Y-967283D2*
X3059768D1*
X3099769Y-940488D2*
Y-1005574D1*
X3103572Y-1016982D1*
X3111265Y-1020873D1*
X3118870D1*
X3088273Y-967283D2*
X3115068D1*
X3162674D2*
X3155069Y-971086D1*
X3147376Y-978779D1*
X3143573Y-990275D1*
Y-997880D1*
X3147376Y-1009376D1*
X3155069Y-1016982D1*
X3162674Y-1020873D1*
X3174170D1*
X3181864Y-1016982D1*
X3189469Y-1009376D1*
X3193360Y-997880D1*
Y-990275D1*
X3189469Y-978779D1*
X3181864Y-971086D1*
X3174170Y-967283D1*
X3162674D1*
X3218063D2*
Y-1020873D1*
Y-982582D2*
X3229559Y-971086D1*
X3237252Y-967283D1*
X3248660D1*
X3256354Y-971086D1*
X3260156Y-982582D1*
Y-1020873D1*
Y-982582D2*
X3271652Y-971086D1*
X3279346Y-967283D1*
X3290753D1*
X3298447Y-971086D1*
X3302338Y-982582D1*
Y-1020873D1*
X2906986Y-1097488D2*
Y-1177873D1*
X2880191Y-1097488D2*
X2933781D1*
X2977585Y-1124283D2*
X2969980Y-1128086D1*
X2962286Y-1135779D1*
X2958484Y-1147275D1*
Y-1154880D1*
X2962286Y-1166376D1*
X2969980Y-1173982D1*
X2977585Y-1177873D1*
X2989081D1*
X2996774Y-1173982D1*
X3004379Y-1166376D1*
X3008270Y-1154880D1*
Y-1147275D1*
X3004379Y-1135779D1*
X2996774Y-1128086D1*
X2989081Y-1124283D1*
X2977585D1*
X3032973D2*
Y-1204667D1*
Y-1135779D2*
X3040667Y-1128174D1*
X3048272Y-1124283D1*
X3059768D1*
X3067461Y-1128174D1*
X3075066Y-1135779D1*
X3078957Y-1147275D1*
Y-1154969D1*
X3075066Y-1166376D1*
X3067461Y-1174070D1*
X3059768Y-1177873D1*
X3048272D1*
X3040667Y-1174070D1*
X3032973Y-1166376D1*
X2880191Y-1254488D2*
Y-1334873D1*
X2914680D1*
X2926176Y-1330982D1*
X2929978Y-1327179D1*
X2933781Y-1319574D1*
Y-1308078D1*
X2929978Y-1300384D1*
X2926176Y-1296582D1*
X2914680Y-1292779D1*
X2926176Y-1288888D1*
X2929978Y-1285086D1*
X2933781Y-1277481D1*
Y-1269787D1*
X2929978Y-1262182D1*
X2926176Y-1258291D1*
X2914680Y-1254488D1*
X2880191D1*
Y-1292779D2*
X2914680D1*
X2977585Y-1281283D2*
X2969980Y-1285086D1*
X2962286Y-1292779D1*
X2958484Y-1304275D1*
Y-1311880D1*
X2962286Y-1323376D1*
X2969980Y-1330982D1*
X2977585Y-1334873D1*
X2989081D1*
X2996774Y-1330982D1*
X3004379Y-1323376D1*
X3008270Y-1311880D1*
Y-1304275D1*
X3004379Y-1292779D1*
X2996774Y-1285086D1*
X2989081Y-1281283D1*
X2977585D1*
X3044469Y-1254488D2*
Y-1319574D1*
X3048272Y-1330982D1*
X3055965Y-1334873D1*
X3063570D1*
X3032973Y-1281283D2*
X3059768D1*
X3099769Y-1254488D2*
Y-1319574D1*
X3103572Y-1330982D1*
X3111265Y-1334873D1*
X3118870D1*
X3088273Y-1281283D2*
X3115068D1*
X3162674D2*
X3155069Y-1285086D1*
X3147376Y-1292779D1*
X3143573Y-1304275D1*
Y-1311880D1*
X3147376Y-1323376D1*
X3155069Y-1330982D1*
X3162674Y-1334873D1*
X3174170D1*
X3181864Y-1330982D1*
X3189469Y-1323376D1*
X3193360Y-1311880D1*
Y-1304275D1*
X3189469Y-1292779D1*
X3181864Y-1285086D1*
X3174170Y-1281283D1*
X3162674D1*
X3218063D2*
Y-1334873D1*
Y-1296582D2*
X3229559Y-1285086D1*
X3237252Y-1281283D1*
X3248660D1*
X3256354Y-1285086D1*
X3260156Y-1296582D1*
Y-1334873D1*
Y-1296582D2*
X3271652Y-1285086D1*
X3279346Y-1281283D1*
X3290753D1*
X3298447Y-1285086D1*
X3302338Y-1296582D1*
Y-1334873D1*
X2906986Y-1411488D2*
Y-1491873D1*
X2880191Y-1411488D2*
X2933781D1*
X2977585Y-1438283D2*
X2969980Y-1442086D1*
X2962286Y-1449779D1*
X2958484Y-1461275D1*
Y-1468880D1*
X2962286Y-1480376D1*
X2969980Y-1487982D1*
X2977585Y-1491873D1*
X2989081D1*
X2996774Y-1487982D1*
X3004379Y-1480376D1*
X3008270Y-1468880D1*
Y-1461275D1*
X3004379Y-1449779D1*
X2996774Y-1442086D1*
X2989081Y-1438283D1*
X2977585D1*
X3032973D2*
Y-1518667D1*
Y-1449779D2*
X3040667Y-1442174D1*
X3048272Y-1438283D1*
X3059768D1*
X3067461Y-1442174D1*
X3075066Y-1449779D1*
X3078957Y-1461275D1*
Y-1468969D1*
X3075066Y-1480376D1*
X3067461Y-1488070D1*
X3059768Y-1491873D1*
X3048272D1*
X3040667Y-1488070D1*
X3032973Y-1480376D1*
X2906986Y-1568488D2*
Y-1648873D1*
X2880191Y-1568488D2*
X2933781D1*
X2977585Y-1595283D2*
X2969980Y-1599086D1*
X2962286Y-1606779D1*
X2958484Y-1618275D1*
Y-1625880D1*
X2962286Y-1637376D1*
X2969980Y-1644982D1*
X2977585Y-1648873D1*
X2989081D1*
X2996774Y-1644982D1*
X3004379Y-1637376D1*
X3008270Y-1625880D1*
Y-1618275D1*
X3004379Y-1606779D1*
X2996774Y-1599086D1*
X2989081Y-1595283D1*
X2977585D1*
X3032973D2*
Y-1675667D1*
Y-1606779D2*
X3040667Y-1599174D1*
X3048272Y-1595283D1*
X3059768D1*
X3067461Y-1599174D1*
X3075066Y-1606779D1*
X3078957Y-1618275D1*
Y-1625969D1*
X3075066Y-1637376D1*
X3067461Y-1645070D1*
X3059768Y-1648873D1*
X3048272D1*
X3040667Y-1645070D1*
X3032973Y-1637376D1*
X2906986Y-1725488D2*
Y-1805873D1*
X2880191Y-1725488D2*
X2933781D1*
X2977585Y-1752283D2*
X2969980Y-1756086D1*
X2962286Y-1763779D1*
X2958484Y-1775275D1*
Y-1782880D1*
X2962286Y-1794376D1*
X2969980Y-1801982D1*
X2977585Y-1805873D1*
X2989081D1*
X2996774Y-1801982D1*
X3004379Y-1794376D1*
X3008270Y-1782880D1*
Y-1775275D1*
X3004379Y-1763779D1*
X2996774Y-1756086D1*
X2989081Y-1752283D1*
X2977585D1*
X3032973D2*
Y-1832667D1*
Y-1763779D2*
X3040667Y-1756174D1*
X3048272Y-1752283D1*
X3059768D1*
X3067461Y-1756174D1*
X3075066Y-1763779D1*
X3078957Y-1775275D1*
Y-1782969D1*
X3075066Y-1794376D1*
X3067461Y-1802070D1*
X3059768Y-1805873D1*
X3048272D1*
X3040667Y-1802070D1*
X3032973Y-1794376D1*
X2880191Y-1882488D2*
Y-1962873D1*
X2914680D1*
X2926176Y-1958982D1*
X2929978Y-1955179D1*
X2933781Y-1947574D1*
Y-1936078D1*
X2929978Y-1928384D1*
X2926176Y-1924582D1*
X2914680Y-1920779D1*
X2926176Y-1916888D1*
X2929978Y-1913086D1*
X2933781Y-1905481D1*
Y-1897787D1*
X2929978Y-1890182D1*
X2926176Y-1886291D1*
X2914680Y-1882488D1*
X2880191D1*
Y-1920779D2*
X2914680D1*
X2977585Y-1909283D2*
X2969980Y-1913086D1*
X2962286Y-1920779D1*
X2958484Y-1932275D1*
Y-1939880D1*
X2962286Y-1951376D1*
X2969980Y-1958982D1*
X2977585Y-1962873D1*
X2989081D1*
X2996774Y-1958982D1*
X3004379Y-1951376D1*
X3008270Y-1939880D1*
Y-1932275D1*
X3004379Y-1920779D1*
X2996774Y-1913086D1*
X2989081Y-1909283D1*
X2977585D1*
X3044469Y-1882488D2*
Y-1947574D1*
X3048272Y-1958982D1*
X3055965Y-1962873D1*
X3063570D1*
X3032973Y-1909283D2*
X3059768D1*
X3099769Y-1882488D2*
Y-1947574D1*
X3103572Y-1958982D1*
X3111265Y-1962873D1*
X3118870D1*
X3088273Y-1909283D2*
X3115068D1*
X3162674D2*
X3155069Y-1913086D1*
X3147376Y-1920779D1*
X3143573Y-1932275D1*
Y-1939880D1*
X3147376Y-1951376D1*
X3155069Y-1958982D1*
X3162674Y-1962873D1*
X3174170D1*
X3181864Y-1958982D1*
X3189469Y-1951376D1*
X3193360Y-1939880D1*
Y-1932275D1*
X3189469Y-1920779D1*
X3181864Y-1913086D1*
X3174170Y-1909283D1*
X3162674D1*
X3218063D2*
Y-1962873D1*
Y-1924582D2*
X3229559Y-1913086D1*
X3237252Y-1909283D1*
X3248660D1*
X3256354Y-1913086D1*
X3260156Y-1924582D1*
Y-1962873D1*
Y-1924582D2*
X3271652Y-1913086D1*
X3279346Y-1909283D1*
X3290753D1*
X3298447Y-1913086D1*
X3302338Y-1924582D1*
Y-1962873D1*
X2880191Y-2039488D2*
Y-2119873D1*
X2914680D1*
X2926176Y-2115982D1*
X2929978Y-2112179D1*
X2933781Y-2104574D1*
Y-2093078D1*
X2929978Y-2085384D1*
X2926176Y-2081582D1*
X2914680Y-2077779D1*
X2926176Y-2073888D1*
X2929978Y-2070086D1*
X2933781Y-2062481D1*
Y-2054787D1*
X2929978Y-2047182D1*
X2926176Y-2043291D1*
X2914680Y-2039488D1*
X2880191D1*
Y-2077779D2*
X2914680D1*
X2977585Y-2066283D2*
X2969980Y-2070086D1*
X2962286Y-2077779D1*
X2958484Y-2089275D1*
Y-2096880D1*
X2962286Y-2108376D1*
X2969980Y-2115982D1*
X2977585Y-2119873D1*
X2989081D1*
X2996774Y-2115982D1*
X3004379Y-2108376D1*
X3008270Y-2096880D1*
Y-2089275D1*
X3004379Y-2077779D1*
X2996774Y-2070086D1*
X2989081Y-2066283D1*
X2977585D1*
X3044469Y-2039488D2*
Y-2104574D1*
X3048272Y-2115982D1*
X3055965Y-2119873D1*
X3063570D1*
X3032973Y-2066283D2*
X3059768D1*
X3099769Y-2039488D2*
Y-2104574D1*
X3103572Y-2115982D1*
X3111265Y-2119873D1*
X3118870D1*
X3088273Y-2066283D2*
X3115068D1*
X3162674D2*
X3155069Y-2070086D1*
X3147376Y-2077779D1*
X3143573Y-2089275D1*
Y-2096880D1*
X3147376Y-2108376D1*
X3155069Y-2115982D1*
X3162674Y-2119873D1*
X3174170D1*
X3181864Y-2115982D1*
X3189469Y-2108376D1*
X3193360Y-2096880D1*
Y-2089275D1*
X3189469Y-2077779D1*
X3181864Y-2070086D1*
X3174170Y-2066283D1*
X3162674D1*
X3218063D2*
Y-2119873D1*
Y-2081582D2*
X3229559Y-2070086D1*
X3237252Y-2066283D1*
X3248660D1*
X3256354Y-2070086D1*
X3260156Y-2081582D1*
Y-2119873D1*
Y-2081582D2*
X3271652Y-2070086D1*
X3279346Y-2066283D1*
X3290753D1*
X3298447Y-2070086D1*
X3302338Y-2081582D1*
Y-2119873D1*
X2906986Y-2196488D2*
Y-2276873D1*
X2880191Y-2196488D2*
X2933781D1*
X2977585Y-2223283D2*
X2969980Y-2227086D1*
X2962286Y-2234779D1*
X2958484Y-2246275D1*
Y-2253880D1*
X2962286Y-2265376D1*
X2969980Y-2272982D1*
X2977585Y-2276873D1*
X2989081D1*
X2996774Y-2272982D1*
X3004379Y-2265376D1*
X3008270Y-2253880D1*
Y-2246275D1*
X3004379Y-2234779D1*
X2996774Y-2227086D1*
X2989081Y-2223283D1*
X2977585D1*
X3032973D2*
Y-2303667D1*
Y-2234779D2*
X3040667Y-2227174D1*
X3048272Y-2223283D1*
X3059768D1*
X3067461Y-2227174D1*
X3075066Y-2234779D1*
X3078957Y-2246275D1*
Y-2253969D1*
X3075066Y-2265376D1*
X3067461Y-2273070D1*
X3059768Y-2276873D1*
X3048272D1*
X3040667Y-2273070D1*
X3032973Y-2265376D1*
X2906986Y-2353488D2*
Y-2433873D1*
X2880191Y-2353488D2*
X2933781D1*
X2977585Y-2380283D2*
X2969980Y-2384086D1*
X2962286Y-2391779D1*
X2958484Y-2403275D1*
Y-2410880D1*
X2962286Y-2422376D1*
X2969980Y-2429982D1*
X2977585Y-2433873D1*
X2989081D1*
X2996774Y-2429982D1*
X3004379Y-2422376D1*
X3008270Y-2410880D1*
Y-2403275D1*
X3004379Y-2391779D1*
X2996774Y-2384086D1*
X2989081Y-2380283D1*
X2977585D1*
X3032973D2*
Y-2460667D1*
Y-2391779D2*
X3040667Y-2384174D1*
X3048272Y-2380283D1*
X3059768D1*
X3067461Y-2384174D1*
X3075066Y-2391779D1*
X3078957Y-2403275D1*
Y-2410969D1*
X3075066Y-2422376D1*
X3067461Y-2430070D1*
X3059768Y-2433873D1*
X3048272D1*
X3040667Y-2430070D1*
X3032973Y-2422376D1*
X2906986Y-2510488D2*
Y-2590873D1*
X2880191Y-2510488D2*
X2933781D1*
X2977585Y-2537283D2*
X2969980Y-2541086D1*
X2962286Y-2548779D1*
X2958484Y-2560275D1*
Y-2567880D1*
X2962286Y-2579376D1*
X2969980Y-2586982D1*
X2977585Y-2590873D1*
X2989081D1*
X2996774Y-2586982D1*
X3004379Y-2579376D1*
X3008270Y-2567880D1*
Y-2560275D1*
X3004379Y-2548779D1*
X2996774Y-2541086D1*
X2989081Y-2537283D1*
X2977585D1*
X3032973D2*
Y-2617667D1*
Y-2548779D2*
X3040667Y-2541174D1*
X3048272Y-2537283D1*
X3059768D1*
X3067461Y-2541174D1*
X3075066Y-2548779D1*
X3078957Y-2560275D1*
Y-2567969D1*
X3075066Y-2579376D1*
X3067461Y-2587070D1*
X3059768Y-2590873D1*
X3048272D1*
X3040667Y-2587070D1*
X3032973Y-2579376D1*
X2906986Y-2667488D2*
Y-2747873D1*
X2880191Y-2667488D2*
X2933781D1*
X2977585Y-2694283D2*
X2969980Y-2698086D1*
X2962286Y-2705779D1*
X2958484Y-2717275D1*
Y-2724880D1*
X2962286Y-2736376D1*
X2969980Y-2743982D1*
X2977585Y-2747873D1*
X2989081D1*
X2996774Y-2743982D1*
X3004379Y-2736376D1*
X3008270Y-2724880D1*
Y-2717275D1*
X3004379Y-2705779D1*
X2996774Y-2698086D1*
X2989081Y-2694283D1*
X2977585D1*
X3032973D2*
Y-2774667D1*
Y-2705779D2*
X3040667Y-2698174D1*
X3048272Y-2694283D1*
X3059768D1*
X3067461Y-2698174D1*
X3075066Y-2705779D1*
X3078957Y-2717275D1*
Y-2724969D1*
X3075066Y-2736376D1*
X3067461Y-2744070D1*
X3059768Y-2747873D1*
X3048272D1*
X3040667Y-2744070D1*
X3032973Y-2736376D1*
X3470743Y-821779D2*
X3505142D1*
X3516638Y-817888D1*
X3520529Y-814086D1*
X3524332Y-806481D1*
Y-798787D1*
X3520529Y-791182D1*
X3516638Y-787291D1*
X3505142Y-783488D1*
X3470743D1*
Y-863873D1*
X3497537Y-821779D2*
X3524332Y-863873D1*
X3568136Y-810283D2*
X3560531Y-814086D1*
X3552837Y-821779D1*
X3549035Y-833275D1*
Y-840880D1*
X3552837Y-852376D1*
X3560531Y-859982D1*
X3568136Y-863873D1*
X3579632D1*
X3587325Y-859982D1*
X3594931Y-852376D1*
X3598822Y-840880D1*
Y-833275D1*
X3594931Y-821779D1*
X3587325Y-814086D1*
X3579632Y-810283D1*
X3568136D1*
X3635020Y-783488D2*
Y-848574D1*
X3638823Y-859982D1*
X3646516Y-863873D1*
X3654122D1*
X3623524Y-810283D2*
X3650319D1*
X3724720D2*
Y-863873D1*
Y-821779D2*
X3717115Y-814086D1*
X3709422Y-810283D1*
X3698014D1*
X3690320Y-814086D1*
X3682715Y-821779D1*
X3678824Y-833275D1*
Y-840880D1*
X3682715Y-852376D1*
X3690320Y-859982D1*
X3698014Y-863873D1*
X3709422D1*
X3717115Y-859982D1*
X3724720Y-852376D1*
X3760919Y-783488D2*
Y-848574D1*
X3764722Y-859982D1*
X3772415Y-863873D1*
X3780020D1*
X3749423Y-810283D2*
X3776218D1*
X3804723Y-833275D2*
X3850619D1*
Y-825582D1*
X3846816Y-817888D1*
X3843014Y-814086D1*
X3835320Y-810283D1*
X3823824D1*
X3816219Y-814086D1*
X3808526Y-821779D1*
X3804723Y-833275D1*
Y-840880D1*
X3808526Y-852376D1*
X3816219Y-859982D1*
X3823824Y-863873D1*
X3835320D1*
X3843014Y-859982D1*
X3850619Y-852376D1*
X3470743Y-955876D2*
X3478436Y-951985D1*
X3489932Y-940577D1*
Y-1020873D1*
X3533736Y-940577D2*
X3522329Y-944379D1*
X3518438Y-951985D1*
Y-959678D1*
X3522329Y-967283D1*
X3529934Y-971174D1*
X3545232Y-974977D1*
X3556728Y-978779D1*
X3564333Y-986473D1*
X3568136Y-994078D1*
Y-1005574D1*
X3564333Y-1013179D1*
X3560531Y-1017070D1*
X3549035Y-1020873D1*
X3533736D1*
X3522329Y-1017070D1*
X3518438Y-1013179D1*
X3514635Y-1005574D1*
Y-994078D1*
X3518438Y-986473D1*
X3526131Y-978779D1*
X3537539Y-974977D1*
X3552837Y-971174D1*
X3560531Y-967283D1*
X3564333Y-959678D1*
Y-951985D1*
X3560531Y-944379D1*
X3549035Y-940577D1*
X3533736D1*
X3615831D2*
X3604335Y-944379D1*
X3596641Y-955876D1*
X3592839Y-974977D1*
Y-986473D1*
X3596641Y-1005574D1*
X3604335Y-1017070D1*
X3615831Y-1020873D1*
X3623436D1*
X3634932Y-1017070D1*
X3642537Y-1005574D1*
X3646428Y-986473D1*
Y-974977D1*
X3642537Y-955876D1*
X3634932Y-944379D1*
X3623436Y-940577D1*
X3615831D1*
X3642537Y-955876D2*
X3596641Y-1005574D1*
X3470743Y-1112876D2*
X3478436Y-1108985D1*
X3489932Y-1097577D1*
Y-1177873D1*
X3533736Y-1097577D2*
X3522329Y-1101379D1*
X3518438Y-1108985D1*
Y-1116678D1*
X3522329Y-1124283D1*
X3529934Y-1128174D1*
X3545232Y-1131977D1*
X3556728Y-1135779D1*
X3564333Y-1143473D1*
X3568136Y-1151078D1*
Y-1162574D1*
X3564333Y-1170179D1*
X3560531Y-1174070D1*
X3549035Y-1177873D1*
X3533736D1*
X3522329Y-1174070D1*
X3518438Y-1170179D1*
X3514635Y-1162574D1*
Y-1151078D1*
X3518438Y-1143473D1*
X3526131Y-1135779D1*
X3537539Y-1131977D1*
X3552837Y-1128174D1*
X3560531Y-1124283D1*
X3564333Y-1116678D1*
Y-1108985D1*
X3560531Y-1101379D1*
X3549035Y-1097577D1*
X3533736D1*
X3615831D2*
X3604335Y-1101379D1*
X3596641Y-1112876D1*
X3592839Y-1131977D1*
Y-1143473D1*
X3596641Y-1162574D1*
X3604335Y-1174070D1*
X3615831Y-1177873D1*
X3623436D1*
X3634932Y-1174070D1*
X3642537Y-1162574D1*
X3646428Y-1143473D1*
Y-1131977D1*
X3642537Y-1112876D1*
X3634932Y-1101379D1*
X3623436Y-1097577D1*
X3615831D1*
X3642537Y-1112876D2*
X3596641Y-1162574D1*
X3520529Y-1281283D2*
X3516638Y-1292779D1*
X3509033Y-1300473D1*
X3497537Y-1304275D1*
X3493735D1*
X3482239Y-1300473D1*
X3474634Y-1292779D1*
X3470743Y-1281283D1*
Y-1277481D1*
X3474634Y-1265985D1*
X3482239Y-1258379D1*
X3493735Y-1254577D1*
X3497537D1*
X3509033Y-1258379D1*
X3516638Y-1265985D1*
X3520529Y-1281283D1*
Y-1300473D1*
X3516638Y-1319574D1*
X3509033Y-1331070D1*
X3497537Y-1334873D1*
X3489932D1*
X3478436Y-1331070D1*
X3474634Y-1323376D1*
X3568224Y-1254577D2*
X3556728Y-1258379D1*
X3549035Y-1269876D1*
X3545232Y-1288977D1*
Y-1300473D1*
X3549035Y-1319574D1*
X3556728Y-1331070D1*
X3568224Y-1334873D1*
X3575829D1*
X3587325Y-1331070D1*
X3594931Y-1319574D1*
X3598822Y-1300473D1*
Y-1288977D1*
X3594931Y-1269876D1*
X3587325Y-1258379D1*
X3575829Y-1254577D1*
X3568224D1*
X3594931Y-1269876D2*
X3549035Y-1319574D1*
X3520529Y-1438283D2*
X3516638Y-1449779D1*
X3509033Y-1457473D1*
X3497537Y-1461275D1*
X3493735D1*
X3482239Y-1457473D1*
X3474634Y-1449779D1*
X3470743Y-1438283D1*
Y-1434481D1*
X3474634Y-1422985D1*
X3482239Y-1415379D1*
X3493735Y-1411577D1*
X3497537D1*
X3509033Y-1415379D1*
X3516638Y-1422985D1*
X3520529Y-1438283D1*
Y-1457473D1*
X3516638Y-1476574D1*
X3509033Y-1488070D1*
X3497537Y-1491873D1*
X3489932D1*
X3478436Y-1488070D1*
X3474634Y-1480376D1*
X3568224Y-1411577D2*
X3556728Y-1415379D1*
X3549035Y-1426876D1*
X3545232Y-1445977D1*
Y-1457473D1*
X3549035Y-1476574D1*
X3556728Y-1488070D1*
X3568224Y-1491873D1*
X3575829D1*
X3587325Y-1488070D1*
X3594931Y-1476574D1*
X3598822Y-1457473D1*
Y-1445977D1*
X3594931Y-1426876D1*
X3587325Y-1415379D1*
X3575829Y-1411577D1*
X3568224D1*
X3594931Y-1426876D2*
X3549035Y-1476574D1*
X3493735Y-1568577D2*
X3482239Y-1572379D1*
X3474545Y-1583876D1*
X3470743Y-1602977D1*
Y-1614473D1*
X3474545Y-1633574D1*
X3482239Y-1645070D1*
X3493735Y-1648873D1*
X3501340D1*
X3512836Y-1645070D1*
X3520441Y-1633574D1*
X3524332Y-1614473D1*
Y-1602977D1*
X3520441Y-1583876D1*
X3512836Y-1572379D1*
X3501340Y-1568577D1*
X3493735D1*
X3520441Y-1583876D2*
X3474545Y-1633574D1*
X3474634Y-1744678D2*
Y-1740876D1*
X3478436Y-1733182D1*
X3482239Y-1729379D1*
X3489932Y-1725577D1*
X3505231D1*
X3512836Y-1729379D1*
X3516638Y-1733182D1*
X3520529Y-1740876D1*
Y-1748481D1*
X3516638Y-1756174D1*
X3509033Y-1767582D1*
X3470743Y-1805873D1*
X3524332D1*
X3564333D2*
X3602624Y-1725577D1*
X3549035D1*
X3650319D2*
X3638823Y-1729379D1*
X3631129Y-1740876D1*
X3627327Y-1759977D1*
Y-1771473D1*
X3631129Y-1790574D1*
X3638823Y-1802070D1*
X3650319Y-1805873D1*
X3657924D1*
X3669420Y-1802070D1*
X3677025Y-1790574D1*
X3680916Y-1771473D1*
Y-1759977D1*
X3677025Y-1740876D1*
X3669420Y-1729379D1*
X3657924Y-1725577D1*
X3650319D1*
X3677025Y-1740876D2*
X3631129Y-1790574D1*
X3493735Y-1882577D2*
X3482239Y-1886379D1*
X3474545Y-1897876D1*
X3470743Y-1916977D1*
Y-1928473D1*
X3474545Y-1947574D1*
X3482239Y-1959070D1*
X3493735Y-1962873D1*
X3501340D1*
X3512836Y-1959070D1*
X3520441Y-1947574D1*
X3524332Y-1928473D1*
Y-1916977D1*
X3520441Y-1897876D1*
X3512836Y-1886379D1*
X3501340Y-1882577D1*
X3493735D1*
X3520441Y-1897876D2*
X3474545Y-1947574D1*
X3474634Y-2058678D2*
Y-2054876D1*
X3478436Y-2047182D1*
X3482239Y-2043379D1*
X3489932Y-2039577D1*
X3505231D1*
X3512836Y-2043379D1*
X3516638Y-2047182D1*
X3520529Y-2054876D1*
Y-2062481D1*
X3516638Y-2070174D1*
X3509033Y-2081582D1*
X3470743Y-2119873D1*
X3524332D1*
X3564333D2*
X3602624Y-2039577D1*
X3549035D1*
X3650319D2*
X3638823Y-2043379D1*
X3631129Y-2054876D1*
X3627327Y-2073977D1*
Y-2085473D1*
X3631129Y-2104574D1*
X3638823Y-2116070D1*
X3650319Y-2119873D1*
X3657924D1*
X3669420Y-2116070D1*
X3677025Y-2104574D1*
X3680916Y-2085473D1*
Y-2073977D1*
X3677025Y-2054876D1*
X3669420Y-2043379D1*
X3657924Y-2039577D1*
X3650319D1*
X3677025Y-2054876D2*
X3631129Y-2104574D1*
X3474634Y-2215678D2*
Y-2211876D1*
X3478436Y-2204182D1*
X3482239Y-2200379D1*
X3489932Y-2196577D1*
X3505231D1*
X3512836Y-2200379D1*
X3516638Y-2204182D1*
X3520529Y-2211876D1*
Y-2219481D1*
X3516638Y-2227174D1*
X3509033Y-2238582D1*
X3470743Y-2276873D1*
X3524332D1*
X3564333D2*
X3602624Y-2196577D1*
X3549035D1*
X3650319D2*
X3638823Y-2200379D1*
X3631129Y-2211876D1*
X3627327Y-2230977D1*
Y-2242473D1*
X3631129Y-2261574D1*
X3638823Y-2273070D1*
X3650319Y-2276873D1*
X3657924D1*
X3669420Y-2273070D1*
X3677025Y-2261574D1*
X3680916Y-2242473D1*
Y-2230977D1*
X3677025Y-2211876D1*
X3669420Y-2200379D1*
X3657924Y-2196577D1*
X3650319D1*
X3677025Y-2211876D2*
X3631129Y-2261574D1*
X3520529Y-2380283D2*
X3516638Y-2391779D1*
X3509033Y-2399473D1*
X3497537Y-2403275D1*
X3493735D1*
X3482239Y-2399473D1*
X3474634Y-2391779D1*
X3470743Y-2380283D1*
Y-2376481D1*
X3474634Y-2364985D1*
X3482239Y-2357379D1*
X3493735Y-2353577D1*
X3497537D1*
X3509033Y-2357379D1*
X3516638Y-2364985D1*
X3520529Y-2380283D1*
Y-2399473D1*
X3516638Y-2418574D1*
X3509033Y-2430070D1*
X3497537Y-2433873D1*
X3489932D1*
X3478436Y-2430070D1*
X3474634Y-2422376D1*
X3568224Y-2353577D2*
X3556728Y-2357379D1*
X3549035Y-2368876D1*
X3545232Y-2387977D1*
Y-2399473D1*
X3549035Y-2418574D1*
X3556728Y-2430070D1*
X3568224Y-2433873D1*
X3575829D1*
X3587325Y-2430070D1*
X3594931Y-2418574D1*
X3598822Y-2399473D1*
Y-2387977D1*
X3594931Y-2368876D1*
X3587325Y-2357379D1*
X3575829Y-2353577D1*
X3568224D1*
X3594931Y-2368876D2*
X3549035Y-2418574D1*
X3493735Y-2510577D2*
X3482239Y-2514379D1*
X3474545Y-2525876D1*
X3470743Y-2544977D1*
Y-2556473D1*
X3474545Y-2575574D1*
X3482239Y-2587070D1*
X3493735Y-2590873D1*
X3501340D1*
X3512836Y-2587070D1*
X3520441Y-2575574D1*
X3524332Y-2556473D1*
Y-2544977D1*
X3520441Y-2525876D1*
X3512836Y-2514379D1*
X3501340Y-2510577D1*
X3493735D1*
X3520441Y-2525876D2*
X3474545Y-2575574D1*
X3493735Y-2667577D2*
X3482239Y-2671379D1*
X3474545Y-2682876D1*
X3470743Y-2701977D1*
Y-2713473D1*
X3474545Y-2732574D1*
X3482239Y-2744070D1*
X3493735Y-2747873D1*
X3501340D1*
X3512836Y-2744070D1*
X3520441Y-2732574D1*
X3524332Y-2713473D1*
Y-2701977D1*
X3520441Y-2682876D1*
X3512836Y-2671379D1*
X3501340Y-2667577D1*
X3493735D1*
X3520441Y-2682876D2*
X3474545Y-2732574D1*
X3943184Y-783488D2*
X3973781Y-863873D1*
X4004378Y-783488D1*
X4074977Y-810283D2*
Y-863873D1*
Y-821779D2*
X4067372Y-814086D1*
X4059678Y-810283D1*
X4048270D1*
X4040577Y-814086D1*
X4032972Y-821779D1*
X4029081Y-833275D1*
Y-840880D1*
X4032972Y-852376D1*
X4040577Y-859982D1*
X4048270Y-863873D1*
X4059678D1*
X4067372Y-859982D1*
X4074977Y-852376D1*
X4099679Y-783488D2*
Y-863873D1*
X4124382Y-810283D2*
Y-848574D1*
X4128185Y-859982D1*
X4135878Y-863873D1*
X4147374D1*
X4154979Y-859982D1*
X4166475Y-848574D1*
Y-810283D2*
Y-863873D1*
X4191178Y-833275D2*
X4237074D1*
Y-825582D1*
X4233272Y-817888D1*
X4229469Y-814086D1*
X4221775Y-810283D1*
X4210279D1*
X4202674Y-814086D1*
X4194981Y-821779D1*
X4191178Y-833275D1*
Y-840880D1*
X4194981Y-852376D1*
X4202674Y-859982D1*
X4210279Y-863873D1*
X4221775D1*
X4229469Y-859982D1*
X4237074Y-852376D1*
X3981474Y-1020873D2*
Y-940577D1*
X3943184Y-994078D1*
X4000575D1*
X4040577Y-1020873D2*
X4078868Y-940577D1*
X4025278D1*
X4103570Y-967283D2*
Y-1005574D1*
X4107373Y-1016982D1*
X4115066Y-1020873D1*
X4126563D1*
X4134168Y-1016982D1*
X4145664Y-1005574D1*
Y-967283D2*
Y-1020873D1*
X3981474Y-1177873D2*
Y-1097577D1*
X3943184Y-1151078D1*
X4000575D1*
X4040577Y-1177873D2*
X4078868Y-1097577D1*
X4025278D1*
X4103570Y-1124283D2*
Y-1162574D1*
X4107373Y-1173982D1*
X4115066Y-1177873D1*
X4126563D1*
X4134168Y-1173982D1*
X4145664Y-1162574D1*
Y-1124283D2*
Y-1177873D1*
X3943184Y-1254488D2*
Y-1334873D1*
X3977672D1*
X3989168Y-1330982D1*
X3992970Y-1327179D1*
X3996773Y-1319574D1*
Y-1308078D1*
X3992970Y-1300384D1*
X3989168Y-1296582D1*
X3977672Y-1292779D1*
X3989168Y-1288888D1*
X3992970Y-1285086D1*
X3996773Y-1277481D1*
Y-1269787D1*
X3992970Y-1262182D1*
X3989168Y-1258291D1*
X3977672Y-1254488D1*
X3943184D1*
Y-1292779D2*
X3977672D1*
X4082759Y-1334873D2*
X4052073Y-1254488D1*
X4021476Y-1334873D1*
X4032972Y-1308078D2*
X4071263D1*
X4134256Y-1254488D2*
Y-1334873D1*
X4107461Y-1254488D2*
X4161051D1*
X4231649Y-1254577D2*
X4193447D1*
X4189644Y-1288977D1*
X4193447Y-1285174D1*
X4204943Y-1281283D1*
X4216351D1*
X4227847Y-1285174D1*
X4235540Y-1292779D1*
X4239343Y-1304275D1*
Y-1311880D1*
X4235540Y-1323376D1*
X4227847Y-1331070D1*
X4216351Y-1334873D1*
X4204943D1*
X4193447Y-1331070D1*
X4189644Y-1327179D1*
X4185753Y-1319574D1*
X4302336Y-1334873D2*
Y-1254577D1*
X4264046Y-1308078D1*
X4321438D1*
X4346140Y-1254488D2*
X4399730D1*
X4346140Y-1334873D1*
X4399730D1*
X4474219Y-1254488D2*
X4424432D1*
Y-1334873D1*
Y-1292779D2*
X4455030D1*
X4498922Y-1254488D2*
Y-1334873D1*
X4523625Y-1254488D2*
Y-1334873D1*
X4569521D1*
X4655418D2*
Y-1254488D1*
X4624821Y-1334873D1*
X4594223Y-1254488D1*
Y-1334873D1*
X3943184Y-1411488D2*
Y-1491873D1*
X3977672D1*
X3989168Y-1487982D1*
X3992970Y-1484179D1*
X3996773Y-1476574D1*
Y-1465078D1*
X3992970Y-1457384D1*
X3989168Y-1453582D1*
X3977672Y-1449779D1*
X3989168Y-1445888D1*
X3992970Y-1442086D1*
X3996773Y-1434481D1*
Y-1426787D1*
X3992970Y-1419182D1*
X3989168Y-1415291D1*
X3977672Y-1411488D1*
X3943184D1*
Y-1449779D2*
X3977672D1*
X4082759Y-1491873D2*
X4052073Y-1411488D1*
X4021476Y-1491873D1*
X4032972Y-1465078D2*
X4071263D1*
X4134256Y-1411488D2*
Y-1491873D1*
X4107461Y-1411488D2*
X4161051D1*
X4231649Y-1411577D2*
X4193447D1*
X4189644Y-1445977D1*
X4193447Y-1442174D1*
X4204943Y-1438283D1*
X4216351D1*
X4227847Y-1442174D1*
X4235540Y-1449779D1*
X4239343Y-1461275D1*
Y-1468880D1*
X4235540Y-1480376D1*
X4227847Y-1488070D1*
X4216351Y-1491873D1*
X4204943D1*
X4193447Y-1488070D1*
X4189644Y-1484179D1*
X4185753Y-1476574D1*
X4302336Y-1491873D2*
Y-1411577D1*
X4264046Y-1465078D1*
X4321438D1*
X4346140Y-1411488D2*
X4399730D1*
X4346140Y-1491873D1*
X4399730D1*
X4474219Y-1411488D2*
X4424432D1*
Y-1491873D1*
Y-1449779D2*
X4455030D1*
X4498922Y-1411488D2*
Y-1491873D1*
X4523625Y-1411488D2*
Y-1491873D1*
X4569521D1*
X4655418D2*
Y-1411488D1*
X4624821Y-1491873D1*
X4594223Y-1411488D1*
Y-1491873D1*
X4004378Y-1962873D2*
Y-1882488D1*
X3973781Y-1962873D1*
X3943184Y-1882488D1*
Y-1962873D1*
X4090275D2*
Y-1882488D1*
X4059678Y-1962873D1*
X4029081Y-1882488D1*
Y-1962873D1*
X4114978Y-1882488D2*
Y-1962873D1*
X4149466D1*
X4160962Y-1958982D1*
X4164765Y-1955179D1*
X4168567Y-1947574D1*
Y-1936078D1*
X4164765Y-1928384D1*
X4160962Y-1924582D1*
X4149466Y-1920779D1*
X4160962Y-1916888D1*
X4164765Y-1913086D1*
X4168567Y-1905481D1*
Y-1897787D1*
X4164765Y-1890182D1*
X4160962Y-1886291D1*
X4149466Y-1882488D1*
X4114978D1*
Y-1920779D2*
X4149466D1*
X4243057Y-1882488D2*
X4193270D1*
Y-1962873D1*
Y-1920779D2*
X4223867D1*
X4267760Y-1897876D2*
X4275453Y-1893985D1*
X4286949Y-1882577D1*
Y-1962873D1*
X4326951D2*
X4365241Y-1882577D1*
X4311652D1*
X4412936D2*
X4401440Y-1886379D1*
X4393747Y-1897876D1*
X4389944Y-1916977D1*
Y-1928473D1*
X4393747Y-1947574D1*
X4401440Y-1959070D1*
X4412936Y-1962873D1*
X4420541D1*
X4432038Y-1959070D1*
X4439643Y-1947574D1*
X4443534Y-1928473D1*
Y-1916977D1*
X4439643Y-1897876D1*
X4432038Y-1886379D1*
X4420541Y-1882577D1*
X4412936D1*
X4439643Y-1897876D2*
X4393747Y-1947574D1*
X3950877Y-2039577D2*
X3992882D1*
X3969978Y-2070174D1*
X3981474D1*
X3989079Y-2073977D1*
X3992882Y-2077779D1*
X3996773Y-2089275D1*
Y-2096880D1*
X3992882Y-2108376D1*
X3985277Y-2116070D1*
X3973781Y-2119873D1*
X3962285D1*
X3950877Y-2116070D1*
X3947075Y-2112179D1*
X3943184Y-2104574D1*
X4021476Y-2039488D2*
Y-2119873D1*
X4059766Y-2066283D2*
X4021476Y-2104574D1*
X4036774Y-2089275D2*
X4063569Y-2119873D1*
X4095965Y-2039577D2*
X4137970D1*
X4115066Y-2070174D1*
X4126563D1*
X4134168Y-2073977D1*
X4137970Y-2077779D1*
X4141861Y-2089275D1*
Y-2096880D1*
X4137970Y-2108376D1*
X4130365Y-2116070D1*
X4118869Y-2119873D1*
X4107373D1*
X4095965Y-2116070D1*
X4092163Y-2112179D1*
X4088272Y-2104574D1*
X3947075Y-2215678D2*
Y-2211876D1*
X3950877Y-2204182D1*
X3954680Y-2200379D1*
X3962373Y-2196577D1*
X3977672D1*
X3985277Y-2200379D1*
X3989079Y-2204182D1*
X3992970Y-2211876D1*
Y-2219481D1*
X3989079Y-2227174D1*
X3981474Y-2238582D1*
X3943184Y-2276873D1*
X3996773D1*
X4044468Y-2196577D2*
X4032972Y-2200379D1*
X4025278Y-2211876D1*
X4021476Y-2230977D1*
Y-2242473D1*
X4025278Y-2261574D1*
X4032972Y-2273070D1*
X4044468Y-2276873D1*
X4052073D1*
X4063569Y-2273070D1*
X4071174Y-2261574D1*
X4075065Y-2242473D1*
Y-2230977D1*
X4071174Y-2211876D1*
X4063569Y-2200379D1*
X4052073Y-2196577D1*
X4044468D1*
X4071174Y-2211876D2*
X4025278Y-2261574D1*
X4099768Y-2196488D2*
Y-2276873D1*
X4138059Y-2223283D2*
X4099768Y-2261574D1*
X4115066Y-2246275D2*
X4141861Y-2276873D1*
X3943184Y-2368876D2*
X3950877Y-2364985D1*
X3962373Y-2353577D1*
Y-2433873D1*
X4010068Y-2353577D2*
X3998572Y-2357379D1*
X3990878Y-2368876D1*
X3987076Y-2387977D1*
Y-2399473D1*
X3990878Y-2418574D1*
X3998572Y-2430070D1*
X4010068Y-2433873D1*
X4017673D1*
X4029169Y-2430070D1*
X4036774Y-2418574D1*
X4040665Y-2399473D1*
Y-2387977D1*
X4036774Y-2368876D1*
X4029169Y-2357379D1*
X4017673Y-2353577D1*
X4010068D1*
X4036774Y-2368876D2*
X3990878Y-2418574D1*
X4088360Y-2353577D2*
X4076864Y-2357379D1*
X4069171Y-2368876D1*
X4065368Y-2387977D1*
Y-2399473D1*
X4069171Y-2418574D1*
X4076864Y-2430070D1*
X4088360Y-2433873D1*
X4095965D1*
X4107461Y-2430070D1*
X4115066Y-2418574D1*
X4118957Y-2399473D1*
Y-2387977D1*
X4115066Y-2368876D1*
X4107461Y-2357379D1*
X4095965Y-2353577D1*
X4088360D1*
X4115066Y-2368876D2*
X4069171Y-2418574D1*
X4143660Y-2353488D2*
Y-2433873D1*
X4181951Y-2380283D2*
X4143660Y-2418574D1*
X4158959Y-2403275D2*
X4185753Y-2433873D1*
X3943184Y-2525876D2*
X3950877Y-2521985D1*
X3962373Y-2510577D1*
Y-2590873D1*
X3987076Y-2510488D2*
Y-2590873D1*
X4025367Y-2537283D2*
X3987076Y-2575574D1*
X4002375Y-2560275D2*
X4029169Y-2590873D1*
X45546Y-3472019D2*
X79946D1*
X91442Y-3468128D1*
X95333Y-3464326D1*
X99135Y-3456721D1*
Y-3449027D1*
X95333Y-3441422D1*
X91442Y-3437531D1*
X79946Y-3433729D1*
X45546D1*
Y-3514113D1*
X72340Y-3472019D2*
X99135Y-3514113D1*
X123838Y-3483515D2*
X169734D1*
Y-3475822D1*
X165931Y-3468128D1*
X162129Y-3464326D1*
X154435Y-3460523D1*
X142939D1*
X135334Y-3464326D1*
X127640Y-3472019D1*
X123838Y-3483515D1*
Y-3491121D1*
X127640Y-3502617D1*
X135334Y-3510222D1*
X142939Y-3514113D1*
X154435D1*
X162129Y-3510222D1*
X169734Y-3502617D1*
X225034Y-3433729D2*
X217429D1*
X209735Y-3437531D1*
X205933Y-3449027D1*
Y-3514113D1*
X194437Y-3460523D2*
X221231D1*
X249737Y-3433729D2*
Y-3514113D1*
X276531D1*
X288027Y-3510222D1*
X295721Y-3502617D1*
X299523Y-3494923D1*
X303326Y-3483515D1*
Y-3464326D1*
X299523Y-3452830D1*
X295721Y-3445225D1*
X288027Y-3437531D1*
X276531Y-3433729D1*
X249737D1*
X328029Y-3483515D2*
X373924D1*
Y-3475822D1*
X370122Y-3468128D1*
X366319Y-3464326D1*
X358626Y-3460523D1*
X347130D1*
X339525Y-3464326D1*
X331831Y-3472019D1*
X328029Y-3483515D1*
Y-3491121D1*
X331831Y-3502617D1*
X339525Y-3510222D1*
X347130Y-3514113D1*
X358626D1*
X366319Y-3510222D1*
X373924Y-3502617D1*
X440721Y-3472019D2*
X436918Y-3464326D1*
X425422Y-3460523D1*
X413926D1*
X402430Y-3464326D1*
X398627Y-3472019D1*
X402430Y-3479624D1*
X410123Y-3483515D1*
X429224Y-3487318D1*
X436918Y-3491121D1*
X440721Y-3498814D1*
Y-3502617D1*
X436918Y-3510222D1*
X425422Y-3514113D1*
X413926D1*
X402430Y-3510222D1*
X398627Y-3502617D1*
X102938Y-3610310D2*
X99135Y-3602705D1*
X91442Y-3595012D1*
X83837Y-3591209D1*
X68538D1*
X60844Y-3595012D1*
X53239Y-3602705D1*
X49348Y-3610310D1*
X45546Y-3621806D1*
Y-3640996D1*
X49348Y-3652403D1*
X53239Y-3660097D1*
X60844Y-3667702D1*
X68538Y-3671593D1*
X83837D1*
X91442Y-3667702D1*
X99135Y-3660097D1*
X102938Y-3652403D1*
X127640Y-3606596D2*
X135334Y-3602705D1*
X146830Y-3591297D1*
Y-3671593D1*
X102938Y-3767790D2*
X99135Y-3760185D1*
X91442Y-3752492D1*
X83837Y-3748689D1*
X68538D1*
X60844Y-3752492D1*
X53239Y-3760185D1*
X49348Y-3767790D1*
X45546Y-3779286D1*
Y-3798476D1*
X49348Y-3809884D1*
X53239Y-3817577D1*
X60844Y-3825182D1*
X68538Y-3829073D1*
X83837D1*
X91442Y-3825182D1*
X99135Y-3817577D1*
X102938Y-3809884D1*
X131531Y-3767879D2*
Y-3764076D1*
X135334Y-3756383D1*
X139137Y-3752580D1*
X146830Y-3748778D1*
X162129D1*
X169734Y-3752580D1*
X173536Y-3756383D1*
X177427Y-3764076D1*
Y-3771681D1*
X173536Y-3779375D1*
X165931Y-3790783D1*
X127640Y-3829073D1*
X181230D1*
X45546Y-3906170D2*
Y-3986554D1*
X72340D1*
X83837Y-3982663D1*
X91530Y-3975058D1*
X95333Y-3967364D1*
X99135Y-3955956D1*
Y-3936767D1*
X95333Y-3925271D1*
X91530Y-3917666D1*
X83837Y-3909972D1*
X72340Y-3906170D1*
X45546D1*
X123838Y-3921557D2*
X131531Y-3917666D1*
X143027Y-3906258D1*
Y-3986554D1*
X45546Y-4063650D2*
Y-4144034D1*
X72340D1*
X83837Y-4140143D1*
X91530Y-4132538D1*
X95333Y-4124844D1*
X99135Y-4113437D1*
Y-4094247D1*
X95333Y-4082751D1*
X91530Y-4075146D1*
X83837Y-4067452D1*
X72340Y-4063650D1*
X45546D1*
X127729Y-4082839D2*
Y-4079037D1*
X131531Y-4071343D1*
X135334Y-4067541D1*
X143027Y-4063738D1*
X158326D1*
X165931Y-4067541D1*
X169734Y-4071343D1*
X173625Y-4079037D1*
Y-4086642D1*
X169734Y-4094336D1*
X162129Y-4105743D1*
X123838Y-4144034D1*
X177427D1*
X83837Y-4221130D2*
Y-4282325D1*
X80034Y-4293821D1*
X76143Y-4297623D1*
X68538Y-4301514D1*
X60844D1*
X53239Y-4297623D1*
X49437Y-4293821D1*
X45546Y-4282325D1*
Y-4274720D1*
X108539Y-4236517D2*
X116233Y-4232626D1*
X127729Y-4221219D1*
Y-4301514D1*
X83837Y-4378611D2*
Y-4439805D1*
X80034Y-4451301D1*
X76143Y-4455104D1*
X68538Y-4458995D1*
X60844D1*
X53239Y-4455104D1*
X49437Y-4451301D1*
X45546Y-4439805D1*
Y-4432200D1*
X112430Y-4397800D2*
Y-4393998D1*
X116233Y-4386304D1*
X120035Y-4382502D1*
X127729Y-4378699D1*
X143027D1*
X150633Y-4382502D1*
X154435Y-4386304D1*
X158326Y-4393998D1*
Y-4401603D1*
X154435Y-4409296D1*
X146830Y-4420704D1*
X108539Y-4458995D1*
X162129D1*
X68538Y-4536091D2*
X60933Y-4539805D1*
X53239Y-4547498D1*
X49437Y-4555192D1*
X45546Y-4566688D1*
Y-4585789D1*
X49437Y-4597285D1*
X53239Y-4604890D1*
X60933Y-4612584D1*
X68538Y-4616386D1*
X83837D1*
X91530Y-4612584D1*
X99135Y-4604890D1*
X102938Y-4597285D1*
X106829Y-4585789D1*
Y-4566688D1*
X102938Y-4555192D1*
X99135Y-4547498D1*
X91530Y-4539805D1*
X83837Y-4536091D1*
X68538D1*
X80034Y-4601088D2*
X102938Y-4624080D1*
X131531Y-4551478D2*
X139225Y-4547587D1*
X150721Y-4536179D1*
Y-4616475D1*
X45546Y-4731862D2*
X79946D1*
X91442Y-4727971D1*
X95333Y-4724168D1*
X99135Y-4716563D1*
Y-4708870D1*
X95333Y-4701265D1*
X91442Y-4697374D1*
X79946Y-4693571D1*
X45546D1*
Y-4773955D1*
X72340Y-4731862D2*
X99135Y-4773955D1*
X123838Y-4708958D2*
X131531Y-4705067D1*
X143027Y-4693660D1*
Y-4773955D1*
X45546Y-4889342D2*
X79946D1*
X91442Y-4885451D1*
X95333Y-4881649D1*
X99135Y-4874044D1*
Y-4866350D1*
X95333Y-4858745D1*
X91442Y-4854854D1*
X79946Y-4851051D1*
X45546D1*
Y-4931435D1*
X72340Y-4889342D2*
X99135Y-4931435D1*
X127729Y-4870241D2*
Y-4866439D1*
X131531Y-4858745D1*
X135334Y-4854942D1*
X143027Y-4851140D1*
X158326D1*
X165931Y-4854942D1*
X169734Y-4858745D1*
X173625Y-4866439D1*
Y-4874044D1*
X169734Y-4881737D1*
X162129Y-4893145D1*
X123838Y-4931435D1*
X177427D1*
X45546Y-5046823D2*
X79946D1*
X91442Y-5042932D1*
X95333Y-5039129D1*
X99135Y-5031524D1*
Y-5023830D1*
X95333Y-5016225D1*
X91442Y-5012334D1*
X79946Y-5008532D1*
X45546D1*
Y-5088916D1*
X72340Y-5046823D2*
X99135Y-5088916D1*
X131531Y-5008620D2*
X173536D1*
X150633Y-5039217D1*
X162129D1*
X169734Y-5043020D1*
X173536Y-5046823D1*
X177427Y-5058319D1*
Y-5065924D1*
X173536Y-5077420D1*
X165931Y-5085113D1*
X154435Y-5088916D1*
X142939D1*
X131531Y-5085113D1*
X127729Y-5081222D1*
X123838Y-5073617D1*
X45546Y-5204303D2*
X79946D1*
X91442Y-5200412D1*
X95333Y-5196609D1*
X99135Y-5189004D1*
Y-5181311D1*
X95333Y-5173706D1*
X91442Y-5169815D1*
X79946Y-5166012D1*
X45546D1*
Y-5246396D1*
X72340Y-5204303D2*
X99135Y-5246396D1*
X162129D2*
Y-5166101D1*
X123838Y-5219601D1*
X181230D1*
X45546Y-5323492D2*
X76143Y-5403876D1*
X106740Y-5323492D1*
X154435D2*
X146742Y-5327295D1*
X139137Y-5334988D1*
X135246Y-5342594D1*
X131443Y-5354090D1*
Y-5373279D1*
X135246Y-5384687D1*
X139137Y-5392380D1*
X146742Y-5399985D1*
X154435Y-5403876D1*
X169734D1*
X177339Y-5399985D1*
X185032Y-5392380D1*
X188835Y-5384687D1*
X192637Y-5373279D1*
Y-5354090D1*
X188835Y-5342594D1*
X185032Y-5334988D1*
X177339Y-5327295D1*
X169734Y-5323492D1*
X154435D1*
X217340Y-5338879D2*
X225034Y-5334988D1*
X236530Y-5323581D1*
Y-5403876D1*
X571576Y-3433729D2*
Y-3514113D1*
X517987Y-3433729D1*
Y-3514113D1*
X642175Y-3460523D2*
Y-3514113D1*
Y-3472019D2*
X634570Y-3464326D1*
X626876Y-3460523D1*
X615468D1*
X607775Y-3464326D1*
X600170Y-3472019D1*
X596279Y-3483515D1*
Y-3491121D1*
X600170Y-3502617D1*
X607775Y-3510222D1*
X615468Y-3514113D1*
X626876D1*
X634570Y-3510222D1*
X642175Y-3502617D1*
X666877Y-3460523D2*
Y-3514113D1*
Y-3475822D2*
X678374Y-3464326D1*
X686067Y-3460523D1*
X697475D1*
X705168Y-3464326D1*
X708971Y-3475822D1*
Y-3514113D1*
Y-3475822D2*
X720467Y-3464326D1*
X728160Y-3460523D1*
X739568D1*
X747261Y-3464326D1*
X751152Y-3475822D1*
Y-3514113D1*
X775855Y-3483515D2*
X821751D1*
Y-3475822D1*
X817949Y-3468128D1*
X814146Y-3464326D1*
X806452Y-3460523D1*
X794956D1*
X787351Y-3464326D1*
X779658Y-3472019D1*
X775855Y-3483515D1*
Y-3491121D1*
X779658Y-3502617D1*
X787351Y-3510222D1*
X794956Y-3514113D1*
X806452D1*
X814146Y-3510222D1*
X821751Y-3502617D1*
X517987Y-3633302D2*
X552475D1*
X563883Y-3629500D1*
X567774Y-3625609D1*
X571576Y-3618004D1*
Y-3606508D1*
X567774Y-3598902D1*
X563883Y-3595012D1*
X552475Y-3591209D1*
X517987D1*
Y-3671593D1*
X619271Y-3591209D2*
X611577Y-3595012D1*
X603972Y-3602705D1*
X600081Y-3610310D1*
X596279Y-3621806D1*
Y-3640996D1*
X600081Y-3652403D1*
X603972Y-3660097D1*
X611577Y-3667702D1*
X619271Y-3671593D1*
X634570D1*
X642175Y-3667702D1*
X649868Y-3660097D1*
X653671Y-3652403D1*
X657473Y-3640996D1*
Y-3621806D1*
X653671Y-3610310D1*
X649868Y-3602705D1*
X642175Y-3595012D1*
X634570Y-3591209D1*
X619271D1*
X682176D2*
Y-3671593D1*
X728072D1*
X810167Y-3610310D2*
X806364Y-3602705D1*
X798671Y-3595012D1*
X791065Y-3591209D1*
X775767D1*
X768073Y-3595012D1*
X760468Y-3602705D1*
X756577Y-3610310D1*
X752775Y-3621806D1*
Y-3640996D1*
X756577Y-3652403D1*
X760468Y-3660097D1*
X768073Y-3667702D1*
X775767Y-3671593D1*
X791065D1*
X798671Y-3667702D1*
X806364Y-3660097D1*
X810167Y-3652403D1*
X896152Y-3671593D2*
X865467Y-3591209D1*
X834869Y-3671593D1*
X846365Y-3644798D2*
X884656D1*
X920855Y-3633302D2*
X955343D1*
X966751Y-3629500D1*
X970642Y-3625609D1*
X974444Y-3618004D1*
Y-3606508D1*
X970642Y-3598902D1*
X966751Y-3595012D1*
X955343Y-3591209D1*
X920855D1*
Y-3671593D1*
X517987Y-3790783D2*
X552475D1*
X563883Y-3786980D1*
X567774Y-3783089D1*
X571576Y-3775484D1*
Y-3763988D1*
X567774Y-3756383D1*
X563883Y-3752492D1*
X552475Y-3748689D1*
X517987D1*
Y-3829073D1*
X619271Y-3748689D2*
X611577Y-3752492D1*
X603972Y-3760185D1*
X600081Y-3767790D1*
X596279Y-3779286D1*
Y-3798476D1*
X600081Y-3809884D1*
X603972Y-3817577D1*
X611577Y-3825182D1*
X619271Y-3829073D1*
X634570D1*
X642175Y-3825182D1*
X649868Y-3817577D1*
X653671Y-3809884D1*
X657473Y-3798476D1*
Y-3779286D1*
X653671Y-3767790D1*
X649868Y-3760185D1*
X642175Y-3752492D1*
X634570Y-3748689D1*
X619271D1*
X682176D2*
Y-3829073D1*
X728072D1*
X810167Y-3767790D2*
X806364Y-3760185D1*
X798671Y-3752492D1*
X791065Y-3748689D1*
X775767D1*
X768073Y-3752492D1*
X760468Y-3760185D1*
X756577Y-3767790D1*
X752775Y-3779286D1*
Y-3798476D1*
X756577Y-3809884D1*
X760468Y-3817577D1*
X768073Y-3825182D1*
X775767Y-3829073D1*
X791065D1*
X798671Y-3825182D1*
X806364Y-3817577D1*
X810167Y-3809884D1*
X896152Y-3829073D2*
X865467Y-3748689D1*
X834869Y-3829073D1*
X846365Y-3802279D2*
X884656D1*
X920855Y-3790783D2*
X955343D1*
X966751Y-3786980D1*
X970642Y-3783089D1*
X974444Y-3775484D1*
Y-3763988D1*
X970642Y-3756383D1*
X966751Y-3752492D1*
X955343Y-3748689D1*
X920855D1*
Y-3829073D1*
X517987Y-3906170D2*
Y-3986554D1*
X544781D1*
X556277Y-3982663D1*
X563971Y-3975058D1*
X567774Y-3967364D1*
X571576Y-3955956D1*
Y-3936767D1*
X567774Y-3925271D1*
X563971Y-3917666D1*
X556277Y-3909972D1*
X544781Y-3906170D1*
X517987D1*
X596279D2*
Y-3986554D1*
X643974Y-3906170D2*
X636280Y-3909972D1*
X628675Y-3917666D1*
X624784Y-3925271D1*
X620982Y-3936767D1*
Y-3955956D1*
X624784Y-3967364D1*
X628675Y-3975058D1*
X636280Y-3982663D1*
X643974Y-3986554D1*
X659272D1*
X666877Y-3982663D1*
X674571Y-3975058D1*
X678374Y-3967364D1*
X682176Y-3955956D1*
Y-3936767D1*
X678374Y-3925271D1*
X674571Y-3917666D1*
X666877Y-3909972D1*
X659272Y-3906170D1*
X643974D1*
X517987Y-4063650D2*
Y-4144034D1*
X544781D1*
X556277Y-4140143D1*
X563971Y-4132538D1*
X567774Y-4124844D1*
X571576Y-4113437D1*
Y-4094247D1*
X567774Y-4082751D1*
X563971Y-4075146D1*
X556277Y-4067452D1*
X544781Y-4063650D1*
X517987D1*
X596279D2*
Y-4144034D1*
X643974Y-4063650D2*
X636280Y-4067452D1*
X628675Y-4075146D1*
X624784Y-4082751D1*
X620982Y-4094247D1*
Y-4113437D1*
X624784Y-4124844D1*
X628675Y-4132538D1*
X636280Y-4140143D1*
X643974Y-4144034D1*
X659272D1*
X666877Y-4140143D1*
X674571Y-4132538D1*
X678374Y-4124844D1*
X682176Y-4113437D1*
Y-4094247D1*
X678374Y-4082751D1*
X674571Y-4075146D1*
X666877Y-4067452D1*
X659272Y-4063650D1*
X643974D1*
X517987Y-4221130D2*
Y-4301514D1*
X544781D1*
X556277Y-4297623D1*
X563971Y-4290018D1*
X567774Y-4282325D1*
X571576Y-4270917D1*
Y-4251727D1*
X567774Y-4240231D1*
X563971Y-4232626D1*
X556277Y-4224933D1*
X544781Y-4221130D1*
X517987D1*
X596279D2*
Y-4301514D1*
X630767D1*
X642263Y-4297623D1*
X646066Y-4293821D1*
X649868Y-4286216D1*
Y-4274720D1*
X646066Y-4267026D1*
X642263Y-4263224D1*
X630767Y-4259421D1*
X642263Y-4255530D1*
X646066Y-4251727D1*
X649868Y-4244122D1*
Y-4236429D1*
X646066Y-4228824D1*
X642263Y-4224933D1*
X630767Y-4221130D1*
X596279D1*
Y-4259421D2*
X630767D1*
X724358Y-4247925D2*
X720467Y-4259421D1*
X712862Y-4267114D1*
X701366Y-4270917D1*
X697563D1*
X686067Y-4267114D1*
X678462Y-4259421D1*
X674571Y-4247925D1*
Y-4244122D1*
X678462Y-4232626D1*
X686067Y-4225021D1*
X697563Y-4221219D1*
X701366D1*
X712862Y-4225021D1*
X720467Y-4232626D1*
X724358Y-4247925D1*
Y-4267114D1*
X720467Y-4286216D1*
X712862Y-4297712D1*
X701366Y-4301514D1*
X693761D1*
X682265Y-4297712D1*
X678462Y-4290018D1*
X798847Y-4221130D2*
X749061D1*
Y-4301514D1*
Y-4259421D2*
X779658D1*
X563883Y-4390107D2*
X560080Y-4382502D1*
X548584Y-4378699D1*
X540979D1*
X529483Y-4382502D1*
X521789Y-4393998D1*
X517987Y-4413099D1*
Y-4432200D1*
X521789Y-4447498D1*
X529483Y-4455192D1*
X540979Y-4458995D1*
X544781D1*
X556189Y-4455192D1*
X563883Y-4447498D1*
X567685Y-4436002D1*
Y-4432200D1*
X563883Y-4420704D1*
X556189Y-4413099D1*
X544781Y-4409296D1*
X540979D1*
X529483Y-4413099D1*
X521789Y-4420704D1*
X517987Y-4432200D1*
X630679Y-4458995D2*
Y-4378699D1*
X592388Y-4432200D1*
X649780D1*
X712773Y-4458995D2*
Y-4378699D1*
X674483Y-4432200D1*
X731874D1*
X794868Y-4458995D2*
Y-4378699D1*
X756577Y-4432200D1*
X813969D1*
X884568Y-4378699D2*
X846365D1*
X842563Y-4413099D1*
X846365Y-4409296D1*
X857861Y-4405405D1*
X869269D1*
X880765Y-4409296D1*
X888459Y-4416901D1*
X892261Y-4428397D1*
Y-4436002D1*
X888459Y-4447498D1*
X880765Y-4455192D1*
X869269Y-4458995D1*
X857861D1*
X846365Y-4455192D1*
X842563Y-4451301D1*
X838672Y-4443696D1*
X962860Y-4390107D2*
X959057Y-4382502D1*
X947561Y-4378699D1*
X939956D1*
X928460Y-4382502D1*
X920767Y-4393998D1*
X916964Y-4413099D1*
Y-4432200D1*
X920767Y-4447498D1*
X928460Y-4455192D1*
X939956Y-4458995D1*
X943759D1*
X955166Y-4455192D1*
X962860Y-4447498D1*
X966662Y-4436002D1*
Y-4432200D1*
X962860Y-4420704D1*
X955166Y-4413099D1*
X943759Y-4409296D1*
X939956D1*
X928460Y-4413099D1*
X920767Y-4420704D1*
X916964Y-4432200D1*
X991365Y-4418847D2*
X1035581D1*
X1064175Y-4397800D2*
Y-4393998D1*
X1067977Y-4386304D1*
X1071780Y-4382502D1*
X1079473Y-4378699D1*
X1094772D1*
X1102377Y-4382502D1*
X1106179Y-4386304D1*
X1110070Y-4393998D1*
Y-4401603D1*
X1106179Y-4409296D1*
X1098574Y-4420704D1*
X1060284Y-4458995D1*
X1113873D1*
X579181Y-4616475D2*
Y-4536091D1*
X548584Y-4616475D1*
X517987Y-4536091D1*
Y-4616475D1*
X665078D2*
Y-4536091D1*
X634481Y-4616475D1*
X603884Y-4536091D1*
Y-4616475D1*
X689781Y-4536091D2*
Y-4616475D1*
X724269D1*
X735765Y-4612584D1*
X739568Y-4608781D1*
X743371Y-4601176D1*
Y-4589680D1*
X739568Y-4581987D1*
X735765Y-4578184D1*
X724269Y-4574382D1*
X735765Y-4570491D1*
X739568Y-4566688D1*
X743371Y-4559083D1*
Y-4551389D1*
X739568Y-4543784D1*
X735765Y-4539893D1*
X724269Y-4536091D1*
X689781D1*
Y-4574382D2*
X724269D1*
X817860Y-4536091D2*
X768073D1*
Y-4616475D1*
Y-4574382D2*
X798671D1*
X842563Y-4551478D2*
X850256Y-4547587D1*
X861752Y-4536179D1*
Y-4616475D1*
X901754D2*
X940045Y-4536179D1*
X886455D1*
X987740D2*
X976243Y-4539982D1*
X968550Y-4551478D1*
X964747Y-4570579D1*
Y-4582075D1*
X968550Y-4601176D1*
X976243Y-4612672D1*
X987740Y-4616475D1*
X995345D1*
X1006841Y-4612672D1*
X1014446Y-4601176D1*
X1018337Y-4582075D1*
Y-4570579D1*
X1014446Y-4551478D1*
X1006841Y-4539982D1*
X995345Y-4536179D1*
X987740D1*
X1014446Y-4551478D2*
X968550Y-4601176D1*
X517987Y-4731862D2*
X552386D1*
X563883Y-4727971D1*
X567774Y-4724168D1*
X571576Y-4716563D1*
Y-4708870D1*
X567774Y-4701265D1*
X563883Y-4697374D1*
X552386Y-4693571D1*
X517987D1*
Y-4773955D1*
X544781Y-4731862D2*
X571576Y-4773955D1*
X645977Y-4693571D2*
X596279D1*
Y-4773955D1*
X645977D1*
X596279Y-4731862D2*
X626876D1*
X724269Y-4705067D2*
X716664Y-4697374D1*
X705168Y-4693571D1*
X689870D1*
X678374Y-4697374D1*
X670680Y-4705067D1*
Y-4712672D1*
X674571Y-4720366D1*
X678374Y-4724168D1*
X685979Y-4727971D1*
X708971Y-4735664D1*
X716664Y-4739467D1*
X720467Y-4743358D1*
X724269Y-4750963D1*
Y-4762459D1*
X716664Y-4770064D1*
X705168Y-4773955D1*
X689870D1*
X678374Y-4770064D1*
X670680Y-4762459D1*
X517987Y-4889342D2*
X552386D1*
X563883Y-4885451D1*
X567774Y-4881649D1*
X571576Y-4874044D1*
Y-4866350D1*
X567774Y-4858745D1*
X563883Y-4854854D1*
X552386Y-4851051D1*
X517987D1*
Y-4931435D1*
X544781Y-4889342D2*
X571576Y-4931435D1*
X645977Y-4851051D2*
X596279D1*
Y-4931435D1*
X645977D1*
X596279Y-4889342D2*
X626876D1*
X724269Y-4862548D2*
X716664Y-4854854D1*
X705168Y-4851051D1*
X689870D1*
X678374Y-4854854D1*
X670680Y-4862548D1*
Y-4870153D1*
X674571Y-4877846D1*
X678374Y-4881649D1*
X685979Y-4885451D1*
X708971Y-4893145D1*
X716664Y-4896947D1*
X720467Y-4900838D1*
X724269Y-4908443D1*
Y-4919939D1*
X716664Y-4927545D1*
X705168Y-4931435D1*
X689870D1*
X678374Y-4927545D1*
X670680Y-4919939D1*
X517987Y-5046823D2*
X552386D1*
X563883Y-5042932D1*
X567774Y-5039129D1*
X571576Y-5031524D1*
Y-5023830D1*
X567774Y-5016225D1*
X563883Y-5012334D1*
X552386Y-5008532D1*
X517987D1*
Y-5088916D1*
X544781Y-5046823D2*
X571576Y-5088916D1*
X645977Y-5008532D2*
X596279D1*
Y-5088916D1*
X645977D1*
X596279Y-5046823D2*
X626876D1*
X724269Y-5020028D2*
X716664Y-5012334D1*
X705168Y-5008532D1*
X689870D1*
X678374Y-5012334D1*
X670680Y-5020028D1*
Y-5027633D1*
X674571Y-5035326D1*
X678374Y-5039129D1*
X685979Y-5042932D1*
X708971Y-5050625D1*
X716664Y-5054428D1*
X720467Y-5058319D1*
X724269Y-5065924D1*
Y-5077420D1*
X716664Y-5085025D1*
X705168Y-5088916D1*
X689870D1*
X678374Y-5085025D1*
X670680Y-5077420D1*
X517987Y-5204303D2*
X552386D1*
X563883Y-5200412D1*
X567774Y-5196609D1*
X571576Y-5189004D1*
Y-5181311D1*
X567774Y-5173706D1*
X563883Y-5169815D1*
X552386Y-5166012D1*
X517987D1*
Y-5246396D1*
X544781Y-5204303D2*
X571576Y-5246396D1*
X645977Y-5166012D2*
X596279D1*
Y-5246396D1*
X645977D1*
X596279Y-5204303D2*
X626876D1*
X724269Y-5177508D2*
X716664Y-5169815D1*
X705168Y-5166012D1*
X689870D1*
X678374Y-5169815D1*
X670680Y-5177508D1*
Y-5185113D1*
X674571Y-5192807D1*
X678374Y-5196609D1*
X685979Y-5200412D1*
X708971Y-5208105D1*
X716664Y-5211908D1*
X720467Y-5215799D1*
X724269Y-5223404D1*
Y-5234900D1*
X716664Y-5242505D1*
X705168Y-5246396D1*
X689870D1*
X678374Y-5242505D1*
X670680Y-5234900D1*
X517987Y-5365586D2*
X552475D1*
X563883Y-5361783D1*
X567774Y-5357892D1*
X571576Y-5350287D1*
Y-5338791D1*
X567774Y-5331186D1*
X563883Y-5327295D1*
X552475Y-5323492D1*
X517987D1*
Y-5403876D1*
X649868Y-5334988D2*
X642263Y-5327295D1*
X630767Y-5323492D1*
X615468D1*
X603972Y-5327295D1*
X596279Y-5334988D1*
Y-5342594D1*
X600170Y-5350287D1*
X603972Y-5354090D1*
X611577Y-5357892D1*
X634570Y-5365586D1*
X642263Y-5369388D1*
X646066Y-5373279D1*
X649868Y-5380884D1*
Y-5392380D1*
X642263Y-5399985D1*
X630767Y-5403876D1*
X615468D1*
X603972Y-5399985D1*
X596279Y-5392380D1*
X678462Y-5342682D2*
Y-5338879D1*
X682265Y-5331186D1*
X686067Y-5327383D1*
X693761Y-5323581D1*
X709059D1*
X716664Y-5327383D1*
X720467Y-5331186D1*
X724358Y-5338879D1*
Y-5346485D1*
X720467Y-5354178D1*
X712862Y-5365586D1*
X674571Y-5403876D1*
X728160D1*
X798759Y-5323581D2*
X760557D1*
X756754Y-5357981D1*
X760557Y-5354178D1*
X772053Y-5350287D1*
X783460D1*
X794956Y-5354178D1*
X802650Y-5361783D1*
X806452Y-5373279D1*
Y-5380884D1*
X802650Y-5392380D1*
X794956Y-5400074D1*
X783460Y-5403876D1*
X772053D1*
X760557Y-5400074D1*
X756754Y-5396183D1*
X752863Y-5388578D1*
X854147Y-5323581D2*
X842651Y-5327383D1*
X834958Y-5338879D1*
X831155Y-5357981D1*
Y-5369477D1*
X834958Y-5388578D1*
X842651Y-5400074D1*
X854147Y-5403876D1*
X861752D1*
X873249Y-5400074D1*
X880854Y-5388578D1*
X884745Y-5369477D1*
Y-5357981D1*
X880854Y-5338879D1*
X873249Y-5327383D1*
X861752Y-5323581D1*
X854147D1*
X880854Y-5338879D2*
X834958Y-5388578D1*
X909447Y-5338879D2*
X917141Y-5334988D1*
X928637Y-5323581D1*
Y-5403876D1*
X953340Y-5323492D2*
Y-5403876D1*
X999236D1*
X1023938Y-5363729D2*
X1068154D1*
X1092857Y-5338879D2*
X1100550Y-5334988D1*
X1112046Y-5323581D1*
Y-5403876D1*
X1305388Y-3433729D2*
X1358978Y-3514113D1*
Y-3433729D2*
X1305388Y-3514113D1*
X1488237Y-3412770D2*
X1480543Y-3420376D1*
X1472938Y-3431872D1*
X1465245Y-3447170D1*
X1461442Y-3466360D1*
Y-3481658D1*
X1465245Y-3500760D1*
X1472938Y-3516058D1*
X1480543Y-3527554D1*
X1488237Y-3535159D1*
X1512939Y-3460523D2*
Y-3514113D1*
Y-3475822D2*
X1524436Y-3464326D1*
X1532129Y-3460523D1*
X1543537D1*
X1551230Y-3464326D1*
X1555033Y-3475822D1*
Y-3514113D1*
Y-3475822D2*
X1566529Y-3464326D1*
X1574222Y-3460523D1*
X1585630D1*
X1593323Y-3464326D1*
X1597214Y-3475822D1*
Y-3514113D1*
X1621917Y-3460523D2*
Y-3514113D1*
Y-3475822D2*
X1633413Y-3464326D1*
X1641107Y-3460523D1*
X1652514D1*
X1660208Y-3464326D1*
X1664010Y-3475822D1*
Y-3514113D1*
Y-3475822D2*
X1675507Y-3464326D1*
X1683200Y-3460523D1*
X1694608D1*
X1702301Y-3464326D1*
X1706192Y-3475822D1*
Y-3514113D1*
X1730895Y-3412770D2*
X1738589Y-3420376D1*
X1746194Y-3431872D1*
X1753887Y-3447170D1*
X1757690Y-3466360D1*
Y-3481658D1*
X1753887Y-3500760D1*
X1746194Y-3516058D1*
X1738589Y-3527554D1*
X1730895Y-3535159D1*
X1305388Y-3606596D2*
X1313082Y-3602705D1*
X1324578Y-3591297D1*
Y-3671593D1*
X1349281Y-3606596D2*
X1356974Y-3602705D1*
X1368470Y-3591297D1*
Y-3671593D1*
X1396976Y-3663899D2*
X1393173Y-3667790D1*
X1396976Y-3671593D1*
X1400867Y-3667790D1*
X1396976Y-3663899D1*
X1429460Y-3610399D2*
Y-3606596D1*
X1433263Y-3598902D1*
X1437065Y-3595100D1*
X1444759Y-3591297D1*
X1460058D1*
X1467663Y-3595100D1*
X1471465Y-3598902D1*
X1475356Y-3606596D1*
Y-3614201D1*
X1471465Y-3621895D1*
X1463860Y-3633302D1*
X1425569Y-3671593D1*
X1479159D1*
X1507752Y-3610399D2*
Y-3606596D1*
X1511555Y-3598902D1*
X1515358Y-3595100D1*
X1523051Y-3591297D1*
X1538350D1*
X1545955Y-3595100D1*
X1549757Y-3598902D1*
X1553648Y-3606596D1*
Y-3614201D1*
X1549757Y-3621895D1*
X1542152Y-3633302D1*
X1503861Y-3671593D1*
X1557451D1*
X1305388Y-3764076D2*
X1313082Y-3760185D1*
X1324578Y-3748778D1*
Y-3829073D1*
X1372273Y-3748778D2*
X1360777Y-3752580D1*
X1353083Y-3764076D1*
X1349281Y-3783177D1*
Y-3794674D1*
X1353083Y-3813775D1*
X1360777Y-3825271D1*
X1372273Y-3829073D1*
X1379878D1*
X1391374Y-3825271D1*
X1398979Y-3813775D1*
X1402870Y-3794674D1*
Y-3783177D1*
X1398979Y-3764076D1*
X1391374Y-3752580D1*
X1379878Y-3748778D1*
X1372273D1*
X1398979Y-3764076D2*
X1353083Y-3813775D1*
X1431375Y-3821380D2*
X1427573Y-3825271D1*
X1431375Y-3829073D1*
X1435266Y-3825271D1*
X1431375Y-3821380D1*
X1467663Y-3748778D2*
X1509667D1*
X1486764Y-3779375D1*
X1498260D1*
X1505865Y-3783177D1*
X1509667Y-3786980D1*
X1513558Y-3798476D1*
Y-3806081D1*
X1509667Y-3817577D1*
X1502062Y-3825271D1*
X1490566Y-3829073D1*
X1479070D1*
X1467663Y-3825271D1*
X1463860Y-3821380D1*
X1459969Y-3813775D1*
X1553560Y-3829073D2*
X1591851Y-3748778D1*
X1538261D1*
X1351284Y-3917666D2*
X1347482Y-3910061D1*
X1335986Y-3906258D1*
X1328380D1*
X1316884Y-3910061D1*
X1309191Y-3921557D1*
X1305388Y-3940658D1*
Y-3959759D1*
X1309191Y-3975058D1*
X1316884Y-3982751D1*
X1328380Y-3986554D1*
X1332183D1*
X1343591Y-3982751D1*
X1351284Y-3975058D1*
X1355087Y-3963561D1*
Y-3959759D1*
X1351284Y-3948263D1*
X1343591Y-3940658D1*
X1332183Y-3936855D1*
X1328380D1*
X1316884Y-3940658D1*
X1309191Y-3948263D1*
X1305388Y-3959759D1*
X1383592Y-3978860D2*
X1379789Y-3982751D1*
X1383592Y-3986554D1*
X1387483Y-3982751D1*
X1383592Y-3978860D1*
X1412186Y-3921557D2*
X1419879Y-3917666D1*
X1431375Y-3906258D1*
Y-3986554D1*
X1463772Y-3906258D2*
X1505777D1*
X1482873Y-3936855D1*
X1494369D1*
X1501974Y-3940658D1*
X1505777Y-3944460D1*
X1509667Y-3955956D1*
Y-3963561D1*
X1505777Y-3975058D1*
X1498171Y-3982751D1*
X1486675Y-3986554D1*
X1475179D1*
X1463772Y-3982751D1*
X1459969Y-3978860D1*
X1456078Y-3971255D1*
X1351284Y-4063738D2*
X1313082D1*
X1309279Y-4098138D1*
X1313082Y-4094336D1*
X1324578Y-4090445D1*
X1335986D1*
X1347482Y-4094336D1*
X1355175Y-4101941D1*
X1358978Y-4113437D1*
Y-4121042D1*
X1355175Y-4132538D1*
X1347482Y-4140231D1*
X1335986Y-4144034D1*
X1324578D1*
X1313082Y-4140231D1*
X1309279Y-4136340D1*
X1305388Y-4128735D1*
X1387483Y-4136340D2*
X1383680Y-4140231D1*
X1387483Y-4144034D1*
X1391374Y-4140231D1*
X1387483Y-4136340D1*
X1431375Y-4144034D2*
X1469666Y-4063738D1*
X1416077D1*
X1494369Y-4079037D2*
X1502062Y-4075146D1*
X1513558Y-4063738D1*
Y-4144034D1*
X1305388Y-4236517D2*
X1313082Y-4232626D1*
X1324578Y-4221219D1*
Y-4301514D1*
X1353083Y-4293821D2*
X1349281Y-4297712D1*
X1353083Y-4301514D1*
X1356974Y-4297712D1*
X1353083Y-4293821D1*
X1427573Y-4232626D2*
X1423770Y-4225021D1*
X1412274Y-4221219D1*
X1404669D1*
X1393173Y-4225021D1*
X1385480Y-4236517D1*
X1381677Y-4255618D1*
Y-4274720D1*
X1385480Y-4290018D1*
X1393173Y-4297712D1*
X1404669Y-4301514D1*
X1408472D1*
X1419879Y-4297712D1*
X1427573Y-4290018D1*
X1431375Y-4278522D1*
Y-4274720D1*
X1427573Y-4263224D1*
X1419879Y-4255618D1*
X1408472Y-4251816D1*
X1404669D1*
X1393173Y-4255618D1*
X1385480Y-4263224D1*
X1381677Y-4274720D1*
X1501974Y-4221219D2*
X1463772D1*
X1459969Y-4255618D1*
X1463772Y-4251816D1*
X1475268Y-4247925D1*
X1486675D1*
X1498171Y-4251816D1*
X1505865Y-4259421D1*
X1509667Y-4270917D1*
Y-4278522D1*
X1505865Y-4290018D1*
X1498171Y-4297712D1*
X1486675Y-4301514D1*
X1475268D1*
X1463772Y-4297712D1*
X1459969Y-4293821D1*
X1456078Y-4286216D1*
X1309279Y-4397800D2*
Y-4393998D1*
X1313082Y-4386304D1*
X1316884Y-4382502D1*
X1324578Y-4378699D1*
X1339876D1*
X1347482Y-4382502D1*
X1351284Y-4386304D1*
X1355175Y-4393998D1*
Y-4401603D1*
X1351284Y-4409296D1*
X1343679Y-4420704D1*
X1305388Y-4458995D1*
X1358978D1*
X1398979D2*
X1437270Y-4378699D1*
X1383680D1*
X1465775Y-4451301D2*
X1461973Y-4455192D1*
X1465775Y-4458995D1*
X1469666Y-4455192D1*
X1465775Y-4451301D1*
X1502062Y-4378699D2*
X1544067D1*
X1521164Y-4409296D1*
X1532660D1*
X1540265Y-4413099D1*
X1544067Y-4416901D1*
X1547958Y-4428397D1*
Y-4436002D1*
X1544067Y-4447498D1*
X1536462Y-4455192D1*
X1524966Y-4458995D1*
X1513470D1*
X1502062Y-4455192D1*
X1498260Y-4451301D1*
X1494369Y-4443696D1*
X1572661Y-4393998D2*
X1580355Y-4390107D1*
X1591851Y-4378699D1*
Y-4458995D1*
X1305388Y-4551478D2*
X1313082Y-4547587D1*
X1324578Y-4536179D1*
Y-4616475D1*
X1395176Y-4536179D2*
X1356974D1*
X1353172Y-4570579D1*
X1356974Y-4566776D1*
X1368470Y-4562886D1*
X1379878D1*
X1391374Y-4566776D1*
X1399067Y-4574382D1*
X1402870Y-4585878D1*
Y-4593483D1*
X1399067Y-4604979D1*
X1391374Y-4612672D1*
X1379878Y-4616475D1*
X1368470D1*
X1356974Y-4612672D1*
X1353172Y-4608781D1*
X1349281Y-4601176D1*
X1431375Y-4608781D2*
X1427573Y-4612672D1*
X1431375Y-4616475D1*
X1435266Y-4612672D1*
X1431375Y-4608781D1*
X1482961Y-4536179D2*
X1471465Y-4539982D1*
X1463772Y-4551478D1*
X1459969Y-4570579D1*
Y-4582075D1*
X1463772Y-4601176D1*
X1471465Y-4612672D1*
X1482961Y-4616475D1*
X1490566D1*
X1502062Y-4612672D1*
X1509667Y-4601176D1*
X1513558Y-4582075D1*
Y-4570579D1*
X1509667Y-4551478D1*
X1502062Y-4539982D1*
X1490566Y-4536179D1*
X1482961D1*
X1509667Y-4551478D2*
X1463772Y-4601176D1*
X1584157Y-4547587D2*
X1580355Y-4539982D1*
X1568858Y-4536179D1*
X1561253D1*
X1549757Y-4539982D1*
X1542064Y-4551478D1*
X1538261Y-4570579D1*
Y-4589680D1*
X1542064Y-4604979D1*
X1549757Y-4612672D1*
X1561253Y-4616475D1*
X1565056D1*
X1576464Y-4612672D1*
X1584157Y-4604979D1*
X1587960Y-4593483D1*
Y-4589680D1*
X1584157Y-4578184D1*
X1576464Y-4570579D1*
X1565056Y-4566776D1*
X1561253D1*
X1549757Y-4570579D1*
X1542064Y-4578184D1*
X1538261Y-4589680D1*
X1351284Y-4705067D2*
X1347482Y-4697462D1*
X1335986Y-4693660D1*
X1328380D1*
X1316884Y-4697462D1*
X1309191Y-4708958D1*
X1305388Y-4728059D1*
Y-4747161D1*
X1309191Y-4762459D1*
X1316884Y-4770153D1*
X1328380Y-4773955D1*
X1332183D1*
X1343591Y-4770153D1*
X1351284Y-4762459D1*
X1355087Y-4750963D1*
Y-4747161D1*
X1351284Y-4735664D1*
X1343591Y-4728059D1*
X1332183Y-4724257D1*
X1328380D1*
X1316884Y-4728059D1*
X1309191Y-4735664D1*
X1305388Y-4747161D1*
X1383592Y-4766262D2*
X1379789Y-4770153D1*
X1383592Y-4773955D1*
X1387483Y-4770153D1*
X1383592Y-4766262D1*
X1435178Y-4693660D2*
X1423682Y-4697462D1*
X1415988Y-4708958D1*
X1412186Y-4728059D1*
Y-4739555D1*
X1415988Y-4758657D1*
X1423682Y-4770153D1*
X1435178Y-4773955D1*
X1442783D1*
X1454279Y-4770153D1*
X1461884Y-4758657D1*
X1465775Y-4739555D1*
Y-4728059D1*
X1461884Y-4708958D1*
X1454279Y-4697462D1*
X1442783Y-4693660D1*
X1435178D1*
X1461884Y-4708958D2*
X1415988Y-4758657D1*
X1498171Y-4693660D2*
X1540176D1*
X1517273Y-4724257D1*
X1528769D1*
X1536374Y-4728059D1*
X1540176Y-4731862D1*
X1544067Y-4743358D1*
Y-4750963D1*
X1540176Y-4762459D1*
X1532571Y-4770153D1*
X1521075Y-4773955D1*
X1509579D1*
X1498171Y-4770153D1*
X1494369Y-4766262D1*
X1490478Y-4758657D1*
X1351284Y-4851140D2*
X1313082D1*
X1309279Y-4885540D1*
X1313082Y-4881737D1*
X1324578Y-4877846D1*
X1335986D1*
X1347482Y-4881737D1*
X1355175Y-4889342D1*
X1358978Y-4900838D1*
Y-4908443D1*
X1355175Y-4919939D1*
X1347482Y-4927633D1*
X1335986Y-4931435D1*
X1324578D1*
X1313082Y-4927633D1*
X1309279Y-4923742D1*
X1305388Y-4916137D1*
X1387483Y-4923742D2*
X1383680Y-4927633D1*
X1387483Y-4931435D1*
X1391374Y-4927633D1*
X1387483Y-4923742D1*
X1431375Y-4931435D2*
X1469666Y-4851140D1*
X1416077D1*
X1498260Y-4870241D2*
Y-4866439D1*
X1502062Y-4858745D1*
X1505865Y-4854942D1*
X1513558Y-4851140D1*
X1528857D1*
X1536462Y-4854942D1*
X1540265Y-4858745D1*
X1544156Y-4866439D1*
Y-4874044D1*
X1540265Y-4881737D1*
X1532660Y-4893145D1*
X1494369Y-4931435D1*
X1547958D1*
X1305388Y-5023919D2*
X1313082Y-5020028D1*
X1324578Y-5008620D1*
Y-5088916D1*
X1353172Y-5027721D2*
Y-5023919D1*
X1356974Y-5016225D1*
X1360777Y-5012423D1*
X1368470Y-5008620D1*
X1383769D1*
X1391374Y-5012423D1*
X1395176Y-5016225D1*
X1399067Y-5023919D1*
Y-5031524D1*
X1395176Y-5039217D1*
X1387571Y-5050625D1*
X1349281Y-5088916D1*
X1402870D1*
X1431375Y-5081222D2*
X1427573Y-5085113D1*
X1431375Y-5088916D1*
X1435266Y-5085113D1*
X1431375Y-5081222D1*
X1482961Y-5008620D2*
X1471465Y-5012423D1*
X1463772Y-5023919D1*
X1459969Y-5043020D1*
Y-5054516D1*
X1463772Y-5073617D1*
X1471465Y-5085113D1*
X1482961Y-5088916D1*
X1490566D1*
X1502062Y-5085113D1*
X1509667Y-5073617D1*
X1513558Y-5054516D1*
Y-5043020D1*
X1509667Y-5023919D1*
X1502062Y-5012423D1*
X1490566Y-5008620D1*
X1482961D1*
X1509667Y-5023919D2*
X1463772Y-5073617D1*
X1584157Y-5020028D2*
X1580355Y-5012423D1*
X1568858Y-5008620D1*
X1561253D1*
X1549757Y-5012423D1*
X1542064Y-5023919D1*
X1538261Y-5043020D1*
Y-5062121D1*
X1542064Y-5077420D1*
X1549757Y-5085113D1*
X1561253Y-5088916D1*
X1565056D1*
X1576464Y-5085113D1*
X1584157Y-5077420D1*
X1587960Y-5065924D1*
Y-5062121D1*
X1584157Y-5050625D1*
X1576464Y-5043020D1*
X1565056Y-5039217D1*
X1561253D1*
X1549757Y-5043020D1*
X1542064Y-5050625D1*
X1538261Y-5062121D1*
X1351284Y-5177508D2*
X1347482Y-5169903D1*
X1335986Y-5166101D1*
X1328380D1*
X1316884Y-5169903D1*
X1309191Y-5181399D1*
X1305388Y-5200500D1*
Y-5219601D1*
X1309191Y-5234900D1*
X1316884Y-5242594D1*
X1328380Y-5246396D1*
X1332183D1*
X1343591Y-5242594D1*
X1351284Y-5234900D1*
X1355087Y-5223404D1*
Y-5219601D1*
X1351284Y-5208105D1*
X1343591Y-5200500D1*
X1332183Y-5196698D1*
X1328380D1*
X1316884Y-5200500D1*
X1309191Y-5208105D1*
X1305388Y-5219601D1*
X1383592Y-5238703D2*
X1379789Y-5242594D1*
X1383592Y-5246396D1*
X1387483Y-5242594D1*
X1383592Y-5238703D1*
X1458082Y-5177508D2*
X1454279Y-5169903D1*
X1442783Y-5166101D1*
X1435178D1*
X1423682Y-5169903D1*
X1415988Y-5181399D1*
X1412186Y-5200500D1*
Y-5219601D1*
X1415988Y-5234900D1*
X1423682Y-5242594D1*
X1435178Y-5246396D1*
X1438980D1*
X1450388Y-5242594D1*
X1458082Y-5234900D1*
X1461884Y-5223404D1*
Y-5219601D1*
X1458082Y-5208105D1*
X1450388Y-5200500D1*
X1438980Y-5196698D1*
X1435178D1*
X1423682Y-5200500D1*
X1415988Y-5208105D1*
X1412186Y-5219601D1*
X1494280Y-5166101D2*
X1536285D1*
X1513382Y-5196698D1*
X1524878D1*
X1532483Y-5200500D1*
X1536285Y-5204303D1*
X1540176Y-5215799D1*
Y-5223404D1*
X1536285Y-5234900D1*
X1528680Y-5242594D1*
X1517184Y-5246396D1*
X1505688D1*
X1494280Y-5242594D1*
X1490478Y-5238703D1*
X1486587Y-5231098D1*
X1305388Y-5338879D2*
X1313082Y-5334988D1*
X1324578Y-5323581D1*
Y-5403876D1*
X1399067Y-5350287D2*
X1395176Y-5361783D1*
X1387571Y-5369477D1*
X1376075Y-5373279D1*
X1372273D1*
X1360777Y-5369477D1*
X1353172Y-5361783D1*
X1349281Y-5350287D1*
Y-5346485D1*
X1353172Y-5334988D1*
X1360777Y-5327383D1*
X1372273Y-5323581D1*
X1376075D1*
X1387571Y-5327383D1*
X1395176Y-5334988D1*
X1399067Y-5350287D1*
Y-5369477D1*
X1395176Y-5388578D1*
X1387571Y-5400074D1*
X1376075Y-5403876D1*
X1368470D1*
X1356974Y-5400074D1*
X1353172Y-5392380D1*
X1427573Y-5396183D2*
X1423770Y-5400074D1*
X1427573Y-5403876D1*
X1431464Y-5400074D1*
X1427573Y-5396183D1*
X1456167Y-5338879D2*
X1463860Y-5334988D1*
X1475356Y-5323581D1*
Y-5403876D1*
X1515358D2*
X1553648Y-5323581D1*
X1500059D1*
X2092790Y-3433729D2*
X2123387Y-3472019D1*
Y-3514113D1*
X2153984Y-3433729D2*
X2123387Y-3472019D1*
X2283243Y-3412770D2*
X2275550Y-3420376D1*
X2267945Y-3431872D1*
X2260251Y-3447170D1*
X2256449Y-3466360D1*
Y-3481658D1*
X2260251Y-3500760D1*
X2267945Y-3516058D1*
X2275550Y-3527554D1*
X2283243Y-3535159D1*
X2307946Y-3460523D2*
Y-3514113D1*
Y-3475822D2*
X2319442Y-3464326D1*
X2327136Y-3460523D1*
X2338543D1*
X2346237Y-3464326D1*
X2350039Y-3475822D1*
Y-3514113D1*
Y-3475822D2*
X2361535Y-3464326D1*
X2369229Y-3460523D1*
X2380637D1*
X2388330Y-3464326D1*
X2392221Y-3475822D1*
Y-3514113D1*
X2416924Y-3460523D2*
Y-3514113D1*
Y-3475822D2*
X2428420Y-3464326D1*
X2436113Y-3460523D1*
X2447521D1*
X2455215Y-3464326D1*
X2459017Y-3475822D1*
Y-3514113D1*
Y-3475822D2*
X2470513Y-3464326D1*
X2478207Y-3460523D1*
X2489614D1*
X2497308Y-3464326D1*
X2501199Y-3475822D1*
Y-3514113D1*
X2525902Y-3412770D2*
X2533595Y-3420376D1*
X2541200Y-3431872D1*
X2548894Y-3447170D1*
X2552696Y-3466360D1*
Y-3481658D1*
X2548894Y-3500760D1*
X2541200Y-3516058D1*
X2533595Y-3527554D1*
X2525902Y-3535159D1*
X2092790Y-3631445D2*
X2137005D1*
X2207604Y-3591297D2*
X2169402D1*
X2165599Y-3625697D1*
X2169402Y-3621895D1*
X2180898Y-3618004D1*
X2192306D1*
X2203802Y-3621895D1*
X2211495Y-3629500D1*
X2215298Y-3640996D1*
Y-3648601D1*
X2211495Y-3660097D1*
X2203802Y-3667790D1*
X2192306Y-3671593D1*
X2180898D1*
X2169402Y-3667790D1*
X2165599Y-3663899D1*
X2161708Y-3656294D1*
X2243803Y-3663899D2*
X2240000Y-3667790D1*
X2243803Y-3671593D1*
X2247694Y-3667790D1*
X2243803Y-3663899D1*
X2310687Y-3671593D2*
Y-3591297D1*
X2272397Y-3644798D1*
X2329789D1*
X2138686Y-3748778D2*
X2100483D1*
X2096681Y-3783177D1*
X2100483Y-3779375D1*
X2111979Y-3775484D1*
X2123387D1*
X2134883Y-3779375D1*
X2142577Y-3786980D1*
X2146379Y-3798476D1*
Y-3806081D1*
X2142577Y-3817577D1*
X2134883Y-3825271D1*
X2123387Y-3829073D1*
X2111979D1*
X2100483Y-3825271D1*
X2096681Y-3821380D1*
X2092790Y-3813775D1*
X2174885Y-3821380D2*
X2171082Y-3825271D1*
X2174885Y-3829073D1*
X2178776Y-3825271D1*
X2174885Y-3821380D1*
X2241769Y-3829073D2*
Y-3748778D1*
X2203478Y-3802279D1*
X2260870D1*
X2092790Y-3946406D2*
X2137005D1*
X2161708Y-3921557D2*
X2169402Y-3917666D1*
X2180898Y-3906258D1*
Y-3986554D1*
X2209403Y-3978860D2*
X2205601Y-3982751D1*
X2209403Y-3986554D1*
X2213294Y-3982751D1*
X2209403Y-3978860D1*
X2283893Y-3917666D2*
X2280090Y-3910061D1*
X2268594Y-3906258D1*
X2260989D1*
X2249493Y-3910061D1*
X2241800Y-3921557D1*
X2237997Y-3940658D1*
Y-3959759D1*
X2241800Y-3975058D1*
X2249493Y-3982751D1*
X2260989Y-3986554D1*
X2264792D1*
X2276199Y-3982751D1*
X2283893Y-3975058D1*
X2287695Y-3963561D1*
Y-3959759D1*
X2283893Y-3948263D1*
X2276199Y-3940658D1*
X2264792Y-3936855D1*
X2260989D1*
X2249493Y-3940658D1*
X2241800Y-3948263D1*
X2237997Y-3959759D1*
X2350689Y-3986554D2*
Y-3906258D1*
X2312398Y-3959759D1*
X2369790D1*
X2092790Y-4103886D2*
X2137005D1*
X2161708Y-4079037D2*
X2169402Y-4075146D1*
X2180898Y-4063738D1*
Y-4144034D1*
X2209403Y-4136340D2*
X2205601Y-4140231D1*
X2209403Y-4144034D1*
X2213294Y-4140231D1*
X2209403Y-4136340D1*
X2283893Y-4063738D2*
X2245691D1*
X2241888Y-4098138D1*
X2245691Y-4094336D1*
X2257187Y-4090445D1*
X2268594D1*
X2280090Y-4094336D1*
X2287784Y-4101941D1*
X2291586Y-4113437D1*
Y-4121042D1*
X2287784Y-4132538D1*
X2280090Y-4140231D1*
X2268594Y-4144034D1*
X2257187D1*
X2245691Y-4140231D1*
X2241888Y-4136340D1*
X2237997Y-4128735D1*
X2323983Y-4063738D2*
X2365987D1*
X2343084Y-4094336D1*
X2354580D1*
X2362185Y-4098138D1*
X2365987Y-4101941D1*
X2369878Y-4113437D1*
Y-4121042D1*
X2365987Y-4132538D1*
X2358382Y-4140231D1*
X2346886Y-4144034D1*
X2335390D1*
X2323983Y-4140231D1*
X2320180Y-4136340D1*
X2316289Y-4128735D1*
X2092790Y-4261366D2*
X2137005D1*
X2184700Y-4221219D2*
X2173204Y-4225021D1*
X2165511Y-4236517D1*
X2161708Y-4255618D1*
Y-4267114D1*
X2165511Y-4286216D1*
X2173204Y-4297712D1*
X2184700Y-4301514D1*
X2192306D1*
X2203802Y-4297712D1*
X2211407Y-4286216D1*
X2215298Y-4267114D1*
Y-4255618D1*
X2211407Y-4236517D1*
X2203802Y-4225021D1*
X2192306Y-4221219D1*
X2184700D1*
X2211407Y-4236517D2*
X2165511Y-4286216D1*
X2243803Y-4293821D2*
X2240000Y-4297712D1*
X2243803Y-4301514D1*
X2247694Y-4297712D1*
X2243803Y-4293821D1*
X2295389Y-4221219D2*
X2283893Y-4225021D1*
X2276199Y-4236517D1*
X2272397Y-4255618D1*
Y-4267114D1*
X2276199Y-4286216D1*
X2283893Y-4297712D1*
X2295389Y-4301514D1*
X2302994D1*
X2314490Y-4297712D1*
X2322095Y-4286216D1*
X2325986Y-4267114D1*
Y-4255618D1*
X2322095Y-4236517D1*
X2314490Y-4225021D1*
X2302994Y-4221219D1*
X2295389D1*
X2322095Y-4236517D2*
X2276199Y-4286216D1*
X2396585Y-4221219D2*
X2358382D1*
X2354580Y-4255618D1*
X2358382Y-4251816D1*
X2369878Y-4247925D1*
X2381286D1*
X2392782Y-4251816D1*
X2400476Y-4259421D1*
X2404278Y-4270917D1*
Y-4278522D1*
X2400476Y-4290018D1*
X2392782Y-4297712D1*
X2381286Y-4301514D1*
X2369878D1*
X2358382Y-4297712D1*
X2354580Y-4293821D1*
X2350689Y-4286216D1*
X2115782Y-4378699D2*
X2104286Y-4382502D1*
X2096592Y-4393998D1*
X2092790Y-4413099D1*
Y-4424595D1*
X2096592Y-4443696D1*
X2104286Y-4455192D1*
X2115782Y-4458995D1*
X2123387D1*
X2134883Y-4455192D1*
X2142488Y-4443696D1*
X2146379Y-4424595D1*
Y-4413099D1*
X2142488Y-4393998D1*
X2134883Y-4382502D1*
X2123387Y-4378699D1*
X2115782D1*
X2142488Y-4393998D2*
X2096592Y-4443696D1*
X2115782Y-4536179D2*
X2104286Y-4539982D1*
X2096592Y-4551478D1*
X2092790Y-4570579D1*
Y-4582075D1*
X2096592Y-4601176D1*
X2104286Y-4612672D1*
X2115782Y-4616475D1*
X2123387D1*
X2134883Y-4612672D1*
X2142488Y-4601176D1*
X2146379Y-4582075D1*
Y-4570579D1*
X2142488Y-4551478D1*
X2134883Y-4539982D1*
X2123387Y-4536179D1*
X2115782D1*
X2142488Y-4551478D2*
X2096592Y-4601176D1*
X2174885Y-4608781D2*
X2171082Y-4612672D1*
X2174885Y-4616475D1*
X2178776Y-4612672D1*
X2174885Y-4608781D1*
X2207369Y-4555280D2*
Y-4551478D1*
X2211172Y-4543784D1*
X2214974Y-4539982D1*
X2222668Y-4536179D1*
X2237967D1*
X2245572Y-4539982D1*
X2249374Y-4543784D1*
X2253265Y-4551478D1*
Y-4559083D1*
X2249374Y-4566776D1*
X2241769Y-4578184D1*
X2203478Y-4616475D1*
X2257068D1*
X2285661Y-4555280D2*
Y-4551478D1*
X2289464Y-4543784D1*
X2293267Y-4539982D1*
X2300960Y-4536179D1*
X2316259D1*
X2323864Y-4539982D1*
X2327666Y-4543784D1*
X2331557Y-4551478D1*
Y-4559083D1*
X2327666Y-4566776D1*
X2320061Y-4578184D1*
X2281770Y-4616475D1*
X2335360D1*
X2100483Y-4693660D2*
X2142488D1*
X2119585Y-4724257D1*
X2131081D1*
X2138686Y-4728059D1*
X2142488Y-4731862D1*
X2146379Y-4743358D1*
Y-4750963D1*
X2142488Y-4762459D1*
X2134883Y-4770153D1*
X2123387Y-4773955D1*
X2111891D1*
X2100483Y-4770153D1*
X2096681Y-4766262D1*
X2092790Y-4758657D1*
X2174885Y-4766262D2*
X2171082Y-4770153D1*
X2174885Y-4773955D1*
X2178776Y-4770153D1*
X2174885Y-4766262D1*
X2218777Y-4773955D2*
X2257068Y-4693660D1*
X2203478D1*
X2297069Y-4773955D2*
X2335360Y-4693660D1*
X2281770D1*
X2131081Y-4931435D2*
Y-4851140D1*
X2092790Y-4904641D1*
X2150182D1*
X2178687Y-4923742D2*
X2174885Y-4927633D1*
X2178687Y-4931435D1*
X2182578Y-4927633D1*
X2178687Y-4923742D1*
X2245572Y-4931435D2*
Y-4851140D1*
X2207281Y-4904641D1*
X2264673D1*
X2308477Y-4851140D2*
X2297069Y-4854942D1*
X2293178Y-4862548D1*
Y-4870241D1*
X2297069Y-4877846D1*
X2304674Y-4881737D1*
X2319973Y-4885540D1*
X2331469Y-4889342D1*
X2339074Y-4897036D1*
X2342876Y-4904641D1*
Y-4916137D1*
X2339074Y-4923742D1*
X2335271Y-4927633D1*
X2323775Y-4931435D1*
X2308477D1*
X2297069Y-4927633D1*
X2293178Y-4923742D1*
X2289376Y-4916137D1*
Y-4904641D1*
X2293178Y-4897036D1*
X2300872Y-4889342D1*
X2312279Y-4885540D1*
X2327578Y-4881737D1*
X2335271Y-4877846D1*
X2339074Y-4870241D1*
Y-4862548D1*
X2335271Y-4854942D1*
X2323775Y-4851140D1*
X2308477D1*
X2092790Y-5048768D2*
X2137005D1*
X2161708Y-5023919D2*
X2169402Y-5020028D1*
X2180898Y-5008620D1*
Y-5088916D1*
X2209403Y-5081222D2*
X2205601Y-5085113D1*
X2209403Y-5088916D1*
X2213294Y-5085113D1*
X2209403Y-5081222D1*
X2241888Y-5027721D2*
Y-5023919D1*
X2245691Y-5016225D1*
X2249493Y-5012423D1*
X2257187Y-5008620D1*
X2272485D1*
X2280090Y-5012423D1*
X2283893Y-5016225D1*
X2287784Y-5023919D1*
Y-5031524D1*
X2283893Y-5039217D1*
X2276288Y-5050625D1*
X2237997Y-5088916D1*
X2291586D1*
X2323983Y-5008620D2*
X2365987D1*
X2343084Y-5039217D1*
X2354580D1*
X2362185Y-5043020D1*
X2365987Y-5046823D1*
X2369878Y-5058319D1*
Y-5065924D1*
X2365987Y-5077420D1*
X2358382Y-5085113D1*
X2346886Y-5088916D1*
X2335390D1*
X2323983Y-5085113D1*
X2320180Y-5081222D1*
X2316289Y-5073617D1*
X2092790Y-5206248D2*
X2137005D1*
X2207604Y-5166101D2*
X2169402D1*
X2165599Y-5200500D1*
X2169402Y-5196698D1*
X2180898Y-5192807D1*
X2192306D1*
X2203802Y-5196698D1*
X2211495Y-5204303D1*
X2215298Y-5215799D1*
Y-5223404D1*
X2211495Y-5234900D1*
X2203802Y-5242594D1*
X2192306Y-5246396D1*
X2180898D1*
X2169402Y-5242594D1*
X2165599Y-5238703D1*
X2161708Y-5231098D1*
X2243803Y-5238703D2*
X2240000Y-5242594D1*
X2243803Y-5246396D1*
X2247694Y-5242594D1*
X2243803Y-5238703D1*
X2310687Y-5246396D2*
Y-5166101D1*
X2272397Y-5219601D1*
X2329789D1*
X2115782Y-5323581D2*
X2104286Y-5327383D1*
X2096592Y-5338879D1*
X2092790Y-5357981D1*
Y-5369477D1*
X2096592Y-5388578D1*
X2104286Y-5400074D1*
X2115782Y-5403876D1*
X2123387D1*
X2134883Y-5400074D1*
X2142488Y-5388578D1*
X2146379Y-5369477D1*
Y-5357981D1*
X2142488Y-5338879D1*
X2134883Y-5327383D1*
X2123387Y-5323581D1*
X2115782D1*
X2142488Y-5338879D2*
X2096592Y-5388578D1*
X2933781Y-3445225D2*
X2926176Y-3437531D1*
X2914680Y-3433729D1*
X2899381D1*
X2887885Y-3437531D1*
X2880191Y-3445225D1*
Y-3452830D1*
X2884082Y-3460523D1*
X2887885Y-3464326D1*
X2895490Y-3468128D1*
X2918482Y-3475822D1*
X2926176Y-3479624D1*
X2929978Y-3483515D1*
X2933781Y-3491121D1*
Y-3502617D1*
X2926176Y-3510222D1*
X2914680Y-3514113D1*
X2899381D1*
X2887885Y-3510222D1*
X2880191Y-3502617D1*
X2958484Y-3433729D2*
X2962286Y-3437531D1*
X2966177Y-3433729D1*
X2962286Y-3429838D1*
X2958484Y-3433729D1*
X2962286Y-3460523D2*
Y-3514113D1*
X3036776Y-3433729D2*
Y-3514113D1*
Y-3472019D2*
X3029171Y-3464326D1*
X3021477Y-3460523D1*
X3009981D1*
X3002376Y-3464326D1*
X2994682Y-3472019D1*
X2990880Y-3483515D1*
Y-3491121D1*
X2994682Y-3502617D1*
X3002376Y-3510222D1*
X3009981Y-3514113D1*
X3021477D1*
X3029171Y-3510222D1*
X3036776Y-3502617D1*
X3061479Y-3483515D2*
X3107374D1*
Y-3475822D1*
X3103572Y-3468128D1*
X3099769Y-3464326D1*
X3092076Y-3460523D1*
X3080580D1*
X3072975Y-3464326D1*
X3065281Y-3472019D1*
X3061479Y-3483515D1*
Y-3491121D1*
X3065281Y-3502617D1*
X3072975Y-3510222D1*
X3080580Y-3514113D1*
X3092076D1*
X3099769Y-3510222D1*
X3107374Y-3502617D1*
X2880191Y-3591209D2*
Y-3671593D1*
X2914680D1*
X2926176Y-3667702D1*
X2929978Y-3663899D1*
X2933781Y-3656294D1*
Y-3644798D1*
X2929978Y-3637105D1*
X2926176Y-3633302D1*
X2914680Y-3629500D1*
X2926176Y-3625609D1*
X2929978Y-3621806D1*
X2933781Y-3614201D1*
Y-3606508D1*
X2929978Y-3598902D1*
X2926176Y-3595012D1*
X2914680Y-3591209D1*
X2880191D1*
Y-3629500D2*
X2914680D1*
X2977585Y-3618004D2*
X2969980Y-3621806D1*
X2962286Y-3629500D1*
X2958484Y-3640996D1*
Y-3648601D1*
X2962286Y-3660097D1*
X2969980Y-3667702D1*
X2977585Y-3671593D1*
X2989081D1*
X2996774Y-3667702D1*
X3004379Y-3660097D1*
X3008270Y-3648601D1*
Y-3640996D1*
X3004379Y-3629500D1*
X2996774Y-3621806D1*
X2989081Y-3618004D1*
X2977585D1*
X3044469Y-3591209D2*
Y-3656294D1*
X3048272Y-3667702D1*
X3055965Y-3671593D1*
X3063570D1*
X3032973Y-3618004D2*
X3059768D1*
X3099769Y-3591209D2*
Y-3656294D1*
X3103572Y-3667702D1*
X3111265Y-3671593D1*
X3118870D1*
X3088273Y-3618004D2*
X3115068D1*
X3162674D2*
X3155069Y-3621806D1*
X3147376Y-3629500D1*
X3143573Y-3640996D1*
Y-3648601D1*
X3147376Y-3660097D1*
X3155069Y-3667702D1*
X3162674Y-3671593D1*
X3174170D1*
X3181864Y-3667702D1*
X3189469Y-3660097D1*
X3193360Y-3648601D1*
Y-3640996D1*
X3189469Y-3629500D1*
X3181864Y-3621806D1*
X3174170Y-3618004D1*
X3162674D1*
X3218063D2*
Y-3671593D1*
Y-3633302D2*
X3229559Y-3621806D1*
X3237252Y-3618004D1*
X3248660D1*
X3256354Y-3621806D1*
X3260156Y-3633302D1*
Y-3671593D1*
Y-3633302D2*
X3271652Y-3621806D1*
X3279346Y-3618004D1*
X3290753D1*
X3298447Y-3621806D1*
X3302338Y-3633302D1*
Y-3671593D1*
X2906986Y-3748689D2*
Y-3829073D1*
X2880191Y-3748689D2*
X2933781D1*
X2977585Y-3775484D2*
X2969980Y-3779286D1*
X2962286Y-3786980D1*
X2958484Y-3798476D1*
Y-3806081D1*
X2962286Y-3817577D1*
X2969980Y-3825182D1*
X2977585Y-3829073D1*
X2989081D1*
X2996774Y-3825182D1*
X3004379Y-3817577D1*
X3008270Y-3806081D1*
Y-3798476D1*
X3004379Y-3786980D1*
X2996774Y-3779286D1*
X2989081Y-3775484D1*
X2977585D1*
X3032973D2*
Y-3855868D1*
Y-3786980D2*
X3040667Y-3779375D1*
X3048272Y-3775484D1*
X3059768D1*
X3067461Y-3779375D1*
X3075066Y-3786980D1*
X3078957Y-3798476D1*
Y-3806170D1*
X3075066Y-3817577D1*
X3067461Y-3825271D1*
X3059768Y-3829073D1*
X3048272D1*
X3040667Y-3825271D1*
X3032973Y-3817577D1*
X2880191Y-3906170D2*
Y-3986554D1*
X2914680D1*
X2926176Y-3982663D1*
X2929978Y-3978860D1*
X2933781Y-3971255D1*
Y-3959759D1*
X2929978Y-3952065D1*
X2926176Y-3948263D1*
X2914680Y-3944460D1*
X2926176Y-3940569D1*
X2929978Y-3936767D1*
X2933781Y-3929162D1*
Y-3921468D1*
X2929978Y-3913863D1*
X2926176Y-3909972D1*
X2914680Y-3906170D1*
X2880191D1*
Y-3944460D2*
X2914680D1*
X2977585Y-3932964D2*
X2969980Y-3936767D1*
X2962286Y-3944460D1*
X2958484Y-3955956D1*
Y-3963561D1*
X2962286Y-3975058D1*
X2969980Y-3982663D1*
X2977585Y-3986554D1*
X2989081D1*
X2996774Y-3982663D1*
X3004379Y-3975058D1*
X3008270Y-3963561D1*
Y-3955956D1*
X3004379Y-3944460D1*
X2996774Y-3936767D1*
X2989081Y-3932964D1*
X2977585D1*
X3044469Y-3906170D2*
Y-3971255D1*
X3048272Y-3982663D1*
X3055965Y-3986554D1*
X3063570D1*
X3032973Y-3932964D2*
X3059768D1*
X3099769Y-3906170D2*
Y-3971255D1*
X3103572Y-3982663D1*
X3111265Y-3986554D1*
X3118870D1*
X3088273Y-3932964D2*
X3115068D1*
X3162674D2*
X3155069Y-3936767D1*
X3147376Y-3944460D1*
X3143573Y-3955956D1*
Y-3963561D1*
X3147376Y-3975058D1*
X3155069Y-3982663D1*
X3162674Y-3986554D1*
X3174170D1*
X3181864Y-3982663D1*
X3189469Y-3975058D1*
X3193360Y-3963561D1*
Y-3955956D1*
X3189469Y-3944460D1*
X3181864Y-3936767D1*
X3174170Y-3932964D1*
X3162674D1*
X3218063D2*
Y-3986554D1*
Y-3948263D2*
X3229559Y-3936767D1*
X3237252Y-3932964D1*
X3248660D1*
X3256354Y-3936767D1*
X3260156Y-3948263D1*
Y-3986554D1*
Y-3948263D2*
X3271652Y-3936767D1*
X3279346Y-3932964D1*
X3290753D1*
X3298447Y-3936767D1*
X3302338Y-3948263D1*
Y-3986554D1*
X2906986Y-4063650D2*
Y-4144034D1*
X2880191Y-4063650D2*
X2933781D1*
X2977585Y-4090445D2*
X2969980Y-4094247D1*
X2962286Y-4101941D1*
X2958484Y-4113437D1*
Y-4121042D1*
X2962286Y-4132538D1*
X2969980Y-4140143D1*
X2977585Y-4144034D1*
X2989081D1*
X2996774Y-4140143D1*
X3004379Y-4132538D1*
X3008270Y-4121042D1*
Y-4113437D1*
X3004379Y-4101941D1*
X2996774Y-4094247D1*
X2989081Y-4090445D1*
X2977585D1*
X3032973D2*
Y-4170829D1*
Y-4101941D2*
X3040667Y-4094336D1*
X3048272Y-4090445D1*
X3059768D1*
X3067461Y-4094336D1*
X3075066Y-4101941D1*
X3078957Y-4113437D1*
Y-4121130D1*
X3075066Y-4132538D1*
X3067461Y-4140231D1*
X3059768Y-4144034D1*
X3048272D1*
X3040667Y-4140231D1*
X3032973Y-4132538D1*
X2906986Y-4221130D2*
Y-4301514D1*
X2880191Y-4221130D2*
X2933781D1*
X2977585Y-4247925D2*
X2969980Y-4251727D1*
X2962286Y-4259421D1*
X2958484Y-4270917D1*
Y-4278522D1*
X2962286Y-4290018D1*
X2969980Y-4297623D1*
X2977585Y-4301514D1*
X2989081D1*
X2996774Y-4297623D1*
X3004379Y-4290018D1*
X3008270Y-4278522D1*
Y-4270917D1*
X3004379Y-4259421D1*
X2996774Y-4251727D1*
X2989081Y-4247925D1*
X2977585D1*
X3032973D2*
Y-4328309D1*
Y-4259421D2*
X3040667Y-4251816D1*
X3048272Y-4247925D1*
X3059768D1*
X3067461Y-4251816D1*
X3075066Y-4259421D1*
X3078957Y-4270917D1*
Y-4278611D1*
X3075066Y-4290018D1*
X3067461Y-4297712D1*
X3059768Y-4301514D1*
X3048272D1*
X3040667Y-4297712D1*
X3032973Y-4290018D1*
X2906986Y-4378611D2*
Y-4458995D1*
X2880191Y-4378611D2*
X2933781D1*
X2977585Y-4405405D2*
X2969980Y-4409208D1*
X2962286Y-4416901D1*
X2958484Y-4428397D1*
Y-4436002D1*
X2962286Y-4447498D1*
X2969980Y-4455104D1*
X2977585Y-4458995D1*
X2989081D1*
X2996774Y-4455104D1*
X3004379Y-4447498D1*
X3008270Y-4436002D1*
Y-4428397D1*
X3004379Y-4416901D1*
X2996774Y-4409208D1*
X2989081Y-4405405D1*
X2977585D1*
X3032973D2*
Y-4485789D1*
Y-4416901D2*
X3040667Y-4409296D1*
X3048272Y-4405405D1*
X3059768D1*
X3067461Y-4409296D1*
X3075066Y-4416901D1*
X3078957Y-4428397D1*
Y-4436091D1*
X3075066Y-4447498D1*
X3067461Y-4455192D1*
X3059768Y-4458995D1*
X3048272D1*
X3040667Y-4455192D1*
X3032973Y-4447498D1*
X2880191Y-4536091D2*
Y-4616475D1*
X2914680D1*
X2926176Y-4612584D1*
X2929978Y-4608781D1*
X2933781Y-4601176D1*
Y-4589680D1*
X2929978Y-4581987D1*
X2926176Y-4578184D1*
X2914680Y-4574382D1*
X2926176Y-4570491D1*
X2929978Y-4566688D1*
X2933781Y-4559083D1*
Y-4551389D1*
X2929978Y-4543784D1*
X2926176Y-4539893D1*
X2914680Y-4536091D1*
X2880191D1*
Y-4574382D2*
X2914680D1*
X2977585Y-4562886D2*
X2969980Y-4566688D1*
X2962286Y-4574382D1*
X2958484Y-4585878D1*
Y-4593483D1*
X2962286Y-4604979D1*
X2969980Y-4612584D1*
X2977585Y-4616475D1*
X2989081D1*
X2996774Y-4612584D1*
X3004379Y-4604979D1*
X3008270Y-4593483D1*
Y-4585878D1*
X3004379Y-4574382D1*
X2996774Y-4566688D1*
X2989081Y-4562886D1*
X2977585D1*
X3044469Y-4536091D2*
Y-4601176D1*
X3048272Y-4612584D1*
X3055965Y-4616475D1*
X3063570D1*
X3032973Y-4562886D2*
X3059768D1*
X3099769Y-4536091D2*
Y-4601176D1*
X3103572Y-4612584D1*
X3111265Y-4616475D1*
X3118870D1*
X3088273Y-4562886D2*
X3115068D1*
X3162674D2*
X3155069Y-4566688D1*
X3147376Y-4574382D1*
X3143573Y-4585878D1*
Y-4593483D1*
X3147376Y-4604979D1*
X3155069Y-4612584D1*
X3162674Y-4616475D1*
X3174170D1*
X3181864Y-4612584D1*
X3189469Y-4604979D1*
X3193360Y-4593483D1*
Y-4585878D1*
X3189469Y-4574382D1*
X3181864Y-4566688D1*
X3174170Y-4562886D1*
X3162674D1*
X3218063D2*
Y-4616475D1*
Y-4578184D2*
X3229559Y-4566688D1*
X3237252Y-4562886D1*
X3248660D1*
X3256354Y-4566688D1*
X3260156Y-4578184D1*
Y-4616475D1*
Y-4578184D2*
X3271652Y-4566688D1*
X3279346Y-4562886D1*
X3290753D1*
X3298447Y-4566688D1*
X3302338Y-4578184D1*
Y-4616475D1*
X2880191Y-4693571D2*
Y-4773955D1*
X2914680D1*
X2926176Y-4770064D1*
X2929978Y-4766262D1*
X2933781Y-4758657D1*
Y-4747161D1*
X2929978Y-4739467D1*
X2926176Y-4735664D1*
X2914680Y-4731862D1*
X2926176Y-4727971D1*
X2929978Y-4724168D1*
X2933781Y-4716563D1*
Y-4708870D1*
X2929978Y-4701265D1*
X2926176Y-4697374D1*
X2914680Y-4693571D1*
X2880191D1*
Y-4731862D2*
X2914680D1*
X2977585Y-4720366D2*
X2969980Y-4724168D1*
X2962286Y-4731862D1*
X2958484Y-4743358D1*
Y-4750963D1*
X2962286Y-4762459D1*
X2969980Y-4770064D1*
X2977585Y-4773955D1*
X2989081D1*
X2996774Y-4770064D1*
X3004379Y-4762459D1*
X3008270Y-4750963D1*
Y-4743358D1*
X3004379Y-4731862D1*
X2996774Y-4724168D1*
X2989081Y-4720366D1*
X2977585D1*
X3044469Y-4693571D2*
Y-4758657D1*
X3048272Y-4770064D1*
X3055965Y-4773955D1*
X3063570D1*
X3032973Y-4720366D2*
X3059768D1*
X3099769Y-4693571D2*
Y-4758657D1*
X3103572Y-4770064D1*
X3111265Y-4773955D1*
X3118870D1*
X3088273Y-4720366D2*
X3115068D1*
X3162674D2*
X3155069Y-4724168D1*
X3147376Y-4731862D1*
X3143573Y-4743358D1*
Y-4750963D1*
X3147376Y-4762459D1*
X3155069Y-4770064D1*
X3162674Y-4773955D1*
X3174170D1*
X3181864Y-4770064D1*
X3189469Y-4762459D1*
X3193360Y-4750963D1*
Y-4743358D1*
X3189469Y-4731862D1*
X3181864Y-4724168D1*
X3174170Y-4720366D1*
X3162674D1*
X3218063D2*
Y-4773955D1*
Y-4735664D2*
X3229559Y-4724168D1*
X3237252Y-4720366D1*
X3248660D1*
X3256354Y-4724168D1*
X3260156Y-4735664D1*
Y-4773955D1*
Y-4735664D2*
X3271652Y-4724168D1*
X3279346Y-4720366D1*
X3290753D1*
X3298447Y-4724168D1*
X3302338Y-4735664D1*
Y-4773955D1*
X2906986Y-4851051D2*
Y-4931435D1*
X2880191Y-4851051D2*
X2933781D1*
X2977585Y-4877846D2*
X2969980Y-4881649D1*
X2962286Y-4889342D1*
X2958484Y-4900838D1*
Y-4908443D1*
X2962286Y-4919939D1*
X2969980Y-4927545D1*
X2977585Y-4931435D1*
X2989081D1*
X2996774Y-4927545D1*
X3004379Y-4919939D1*
X3008270Y-4908443D1*
Y-4900838D1*
X3004379Y-4889342D1*
X2996774Y-4881649D1*
X2989081Y-4877846D1*
X2977585D1*
X3032973D2*
Y-4958230D1*
Y-4889342D2*
X3040667Y-4881737D1*
X3048272Y-4877846D1*
X3059768D1*
X3067461Y-4881737D1*
X3075066Y-4889342D1*
X3078957Y-4900838D1*
Y-4908532D1*
X3075066Y-4919939D1*
X3067461Y-4927633D1*
X3059768Y-4931435D1*
X3048272D1*
X3040667Y-4927633D1*
X3032973Y-4919939D1*
X2906986Y-5008532D2*
Y-5088916D1*
X2880191Y-5008532D2*
X2933781D1*
X2977585Y-5035326D2*
X2969980Y-5039129D1*
X2962286Y-5046823D1*
X2958484Y-5058319D1*
Y-5065924D1*
X2962286Y-5077420D1*
X2969980Y-5085025D1*
X2977585Y-5088916D1*
X2989081D1*
X2996774Y-5085025D1*
X3004379Y-5077420D1*
X3008270Y-5065924D1*
Y-5058319D1*
X3004379Y-5046823D1*
X2996774Y-5039129D1*
X2989081Y-5035326D1*
X2977585D1*
X3032973D2*
Y-5115710D1*
Y-5046823D2*
X3040667Y-5039217D1*
X3048272Y-5035326D1*
X3059768D1*
X3067461Y-5039217D1*
X3075066Y-5046823D1*
X3078957Y-5058319D1*
Y-5066012D1*
X3075066Y-5077420D1*
X3067461Y-5085113D1*
X3059768Y-5088916D1*
X3048272D1*
X3040667Y-5085113D1*
X3032973Y-5077420D1*
X2906986Y-5166012D2*
Y-5246396D1*
X2880191Y-5166012D2*
X2933781D1*
X2977585Y-5192807D2*
X2969980Y-5196609D1*
X2962286Y-5204303D1*
X2958484Y-5215799D1*
Y-5223404D1*
X2962286Y-5234900D1*
X2969980Y-5242505D1*
X2977585Y-5246396D1*
X2989081D1*
X2996774Y-5242505D1*
X3004379Y-5234900D1*
X3008270Y-5223404D1*
Y-5215799D1*
X3004379Y-5204303D1*
X2996774Y-5196609D1*
X2989081Y-5192807D1*
X2977585D1*
X3032973D2*
Y-5273191D1*
Y-5204303D2*
X3040667Y-5196698D1*
X3048272Y-5192807D1*
X3059768D1*
X3067461Y-5196698D1*
X3075066Y-5204303D1*
X3078957Y-5215799D1*
Y-5223492D1*
X3075066Y-5234900D1*
X3067461Y-5242594D1*
X3059768Y-5246396D1*
X3048272D1*
X3040667Y-5242594D1*
X3032973Y-5234900D1*
X2906986Y-5323492D2*
Y-5403876D1*
X2880191Y-5323492D2*
X2933781D1*
X2977585Y-5350287D2*
X2969980Y-5354090D1*
X2962286Y-5361783D1*
X2958484Y-5373279D1*
Y-5380884D1*
X2962286Y-5392380D1*
X2969980Y-5399985D1*
X2977585Y-5403876D1*
X2989081D1*
X2996774Y-5399985D1*
X3004379Y-5392380D1*
X3008270Y-5380884D1*
Y-5373279D1*
X3004379Y-5361783D1*
X2996774Y-5354090D1*
X2989081Y-5350287D1*
X2977585D1*
X3032973D2*
Y-5430671D1*
Y-5361783D2*
X3040667Y-5354178D1*
X3048272Y-5350287D1*
X3059768D1*
X3067461Y-5354178D1*
X3075066Y-5361783D1*
X3078957Y-5373279D1*
Y-5380973D1*
X3075066Y-5392380D1*
X3067461Y-5400074D1*
X3059768Y-5403876D1*
X3048272D1*
X3040667Y-5400074D1*
X3032973Y-5392380D1*
X3470743Y-3472019D2*
X3505142D1*
X3516638Y-3468128D1*
X3520529Y-3464326D1*
X3524332Y-3456721D1*
Y-3449027D1*
X3520529Y-3441422D1*
X3516638Y-3437531D1*
X3505142Y-3433729D1*
X3470743D1*
Y-3514113D1*
X3497537Y-3472019D2*
X3524332Y-3514113D1*
X3568136Y-3460523D2*
X3560531Y-3464326D1*
X3552837Y-3472019D1*
X3549035Y-3483515D1*
Y-3491121D1*
X3552837Y-3502617D1*
X3560531Y-3510222D1*
X3568136Y-3514113D1*
X3579632D1*
X3587325Y-3510222D1*
X3594931Y-3502617D1*
X3598822Y-3491121D1*
Y-3483515D1*
X3594931Y-3472019D1*
X3587325Y-3464326D1*
X3579632Y-3460523D1*
X3568136D1*
X3635020Y-3433729D2*
Y-3498814D1*
X3638823Y-3510222D1*
X3646516Y-3514113D1*
X3654122D1*
X3623524Y-3460523D2*
X3650319D1*
X3724720D2*
Y-3514113D1*
Y-3472019D2*
X3717115Y-3464326D1*
X3709422Y-3460523D1*
X3698014D1*
X3690320Y-3464326D1*
X3682715Y-3472019D1*
X3678824Y-3483515D1*
Y-3491121D1*
X3682715Y-3502617D1*
X3690320Y-3510222D1*
X3698014Y-3514113D1*
X3709422D1*
X3717115Y-3510222D1*
X3724720Y-3502617D1*
X3760919Y-3433729D2*
Y-3498814D1*
X3764722Y-3510222D1*
X3772415Y-3514113D1*
X3780020D1*
X3749423Y-3460523D2*
X3776218D1*
X3804723Y-3483515D2*
X3850619D1*
Y-3475822D1*
X3846816Y-3468128D1*
X3843014Y-3464326D1*
X3835320Y-3460523D1*
X3823824D1*
X3816219Y-3464326D1*
X3808526Y-3472019D1*
X3804723Y-3483515D1*
Y-3491121D1*
X3808526Y-3502617D1*
X3816219Y-3510222D1*
X3823824Y-3514113D1*
X3835320D1*
X3843014Y-3510222D1*
X3850619Y-3502617D1*
X3470743Y-3606596D2*
X3478436Y-3602705D1*
X3489932Y-3591297D1*
Y-3671593D1*
X3533736Y-3591297D2*
X3522329Y-3595100D1*
X3518438Y-3602705D1*
Y-3610399D1*
X3522329Y-3618004D1*
X3529934Y-3621895D1*
X3545232Y-3625697D1*
X3556728Y-3629500D1*
X3564333Y-3637193D1*
X3568136Y-3644798D1*
Y-3656294D1*
X3564333Y-3663899D1*
X3560531Y-3667790D1*
X3549035Y-3671593D1*
X3533736D1*
X3522329Y-3667790D1*
X3518438Y-3663899D1*
X3514635Y-3656294D1*
Y-3644798D1*
X3518438Y-3637193D1*
X3526131Y-3629500D1*
X3537539Y-3625697D1*
X3552837Y-3621895D1*
X3560531Y-3618004D1*
X3564333Y-3610399D1*
Y-3602705D1*
X3560531Y-3595100D1*
X3549035Y-3591297D1*
X3533736D1*
X3615831D2*
X3604335Y-3595100D1*
X3596641Y-3606596D1*
X3592839Y-3625697D1*
Y-3637193D1*
X3596641Y-3656294D1*
X3604335Y-3667790D1*
X3615831Y-3671593D1*
X3623436D1*
X3634932Y-3667790D1*
X3642537Y-3656294D1*
X3646428Y-3637193D1*
Y-3625697D1*
X3642537Y-3606596D1*
X3634932Y-3595100D1*
X3623436Y-3591297D1*
X3615831D1*
X3642537Y-3606596D2*
X3596641Y-3656294D1*
X3470743Y-3764076D2*
X3478436Y-3760185D1*
X3489932Y-3748778D1*
Y-3829073D1*
X3533736Y-3748778D2*
X3522329Y-3752580D1*
X3518438Y-3760185D1*
Y-3767879D1*
X3522329Y-3775484D1*
X3529934Y-3779375D1*
X3545232Y-3783177D1*
X3556728Y-3786980D1*
X3564333Y-3794674D1*
X3568136Y-3802279D1*
Y-3813775D1*
X3564333Y-3821380D1*
X3560531Y-3825271D1*
X3549035Y-3829073D1*
X3533736D1*
X3522329Y-3825271D1*
X3518438Y-3821380D1*
X3514635Y-3813775D1*
Y-3802279D1*
X3518438Y-3794674D1*
X3526131Y-3786980D1*
X3537539Y-3783177D1*
X3552837Y-3779375D1*
X3560531Y-3775484D1*
X3564333Y-3767879D1*
Y-3760185D1*
X3560531Y-3752580D1*
X3549035Y-3748778D1*
X3533736D1*
X3615831D2*
X3604335Y-3752580D1*
X3596641Y-3764076D1*
X3592839Y-3783177D1*
Y-3794674D1*
X3596641Y-3813775D1*
X3604335Y-3825271D1*
X3615831Y-3829073D1*
X3623436D1*
X3634932Y-3825271D1*
X3642537Y-3813775D1*
X3646428Y-3794674D1*
Y-3783177D1*
X3642537Y-3764076D1*
X3634932Y-3752580D1*
X3623436Y-3748778D1*
X3615831D1*
X3642537Y-3764076D2*
X3596641Y-3813775D1*
X3520529Y-3932964D2*
X3516638Y-3944460D1*
X3509033Y-3952154D1*
X3497537Y-3955956D1*
X3493735D1*
X3482239Y-3952154D1*
X3474634Y-3944460D1*
X3470743Y-3932964D1*
Y-3929162D1*
X3474634Y-3917666D1*
X3482239Y-3910061D1*
X3493735Y-3906258D1*
X3497537D1*
X3509033Y-3910061D1*
X3516638Y-3917666D1*
X3520529Y-3932964D1*
Y-3952154D1*
X3516638Y-3971255D1*
X3509033Y-3982751D1*
X3497537Y-3986554D1*
X3489932D1*
X3478436Y-3982751D1*
X3474634Y-3975058D1*
X3568224Y-3906258D2*
X3556728Y-3910061D1*
X3549035Y-3921557D1*
X3545232Y-3940658D1*
Y-3952154D1*
X3549035Y-3971255D1*
X3556728Y-3982751D1*
X3568224Y-3986554D1*
X3575829D1*
X3587325Y-3982751D1*
X3594931Y-3971255D1*
X3598822Y-3952154D1*
Y-3940658D1*
X3594931Y-3921557D1*
X3587325Y-3910061D1*
X3575829Y-3906258D1*
X3568224D1*
X3594931Y-3921557D2*
X3549035Y-3971255D1*
X3520529Y-4090445D2*
X3516638Y-4101941D1*
X3509033Y-4109634D1*
X3497537Y-4113437D1*
X3493735D1*
X3482239Y-4109634D1*
X3474634Y-4101941D1*
X3470743Y-4090445D1*
Y-4086642D1*
X3474634Y-4075146D1*
X3482239Y-4067541D1*
X3493735Y-4063738D1*
X3497537D1*
X3509033Y-4067541D1*
X3516638Y-4075146D1*
X3520529Y-4090445D1*
Y-4109634D1*
X3516638Y-4128735D1*
X3509033Y-4140231D1*
X3497537Y-4144034D1*
X3489932D1*
X3478436Y-4140231D1*
X3474634Y-4132538D1*
X3568224Y-4063738D2*
X3556728Y-4067541D1*
X3549035Y-4079037D1*
X3545232Y-4098138D1*
Y-4109634D1*
X3549035Y-4128735D1*
X3556728Y-4140231D1*
X3568224Y-4144034D1*
X3575829D1*
X3587325Y-4140231D1*
X3594931Y-4128735D1*
X3598822Y-4109634D1*
Y-4098138D1*
X3594931Y-4079037D1*
X3587325Y-4067541D1*
X3575829Y-4063738D1*
X3568224D1*
X3594931Y-4079037D2*
X3549035Y-4128735D1*
X3493735Y-4221219D2*
X3482239Y-4225021D1*
X3474545Y-4236517D1*
X3470743Y-4255618D1*
Y-4267114D1*
X3474545Y-4286216D1*
X3482239Y-4297712D1*
X3493735Y-4301514D1*
X3501340D1*
X3512836Y-4297712D1*
X3520441Y-4286216D1*
X3524332Y-4267114D1*
Y-4255618D1*
X3520441Y-4236517D1*
X3512836Y-4225021D1*
X3501340Y-4221219D1*
X3493735D1*
X3520441Y-4236517D2*
X3474545Y-4286216D1*
X3474634Y-4397800D2*
Y-4393998D1*
X3478436Y-4386304D1*
X3482239Y-4382502D1*
X3489932Y-4378699D1*
X3505231D1*
X3512836Y-4382502D1*
X3516638Y-4386304D1*
X3520529Y-4393998D1*
Y-4401603D1*
X3516638Y-4409296D1*
X3509033Y-4420704D1*
X3470743Y-4458995D1*
X3524332D1*
X3564333D2*
X3602624Y-4378699D1*
X3549035D1*
X3650319D2*
X3638823Y-4382502D1*
X3631129Y-4393998D1*
X3627327Y-4413099D1*
Y-4424595D1*
X3631129Y-4443696D1*
X3638823Y-4455192D1*
X3650319Y-4458995D1*
X3657924D1*
X3669420Y-4455192D1*
X3677025Y-4443696D1*
X3680916Y-4424595D1*
Y-4413099D1*
X3677025Y-4393998D1*
X3669420Y-4382502D1*
X3657924Y-4378699D1*
X3650319D1*
X3677025Y-4393998D2*
X3631129Y-4443696D1*
X3493735Y-4536179D2*
X3482239Y-4539982D1*
X3474545Y-4551478D1*
X3470743Y-4570579D1*
Y-4582075D1*
X3474545Y-4601176D1*
X3482239Y-4612672D1*
X3493735Y-4616475D1*
X3501340D1*
X3512836Y-4612672D1*
X3520441Y-4601176D1*
X3524332Y-4582075D1*
Y-4570579D1*
X3520441Y-4551478D1*
X3512836Y-4539982D1*
X3501340Y-4536179D1*
X3493735D1*
X3520441Y-4551478D2*
X3474545Y-4601176D1*
X3474634Y-4712761D2*
Y-4708958D1*
X3478436Y-4701265D1*
X3482239Y-4697462D1*
X3489932Y-4693660D1*
X3505231D1*
X3512836Y-4697462D1*
X3516638Y-4701265D1*
X3520529Y-4708958D1*
Y-4716563D1*
X3516638Y-4724257D1*
X3509033Y-4735664D1*
X3470743Y-4773955D1*
X3524332D1*
X3564333D2*
X3602624Y-4693660D1*
X3549035D1*
X3650319D2*
X3638823Y-4697462D1*
X3631129Y-4708958D1*
X3627327Y-4728059D1*
Y-4739555D1*
X3631129Y-4758657D1*
X3638823Y-4770153D1*
X3650319Y-4773955D1*
X3657924D1*
X3669420Y-4770153D1*
X3677025Y-4758657D1*
X3680916Y-4739555D1*
Y-4728059D1*
X3677025Y-4708958D1*
X3669420Y-4697462D1*
X3657924Y-4693660D1*
X3650319D1*
X3677025Y-4708958D2*
X3631129Y-4758657D1*
X3474634Y-4870241D2*
Y-4866439D1*
X3478436Y-4858745D1*
X3482239Y-4854942D1*
X3489932Y-4851140D1*
X3505231D1*
X3512836Y-4854942D1*
X3516638Y-4858745D1*
X3520529Y-4866439D1*
Y-4874044D1*
X3516638Y-4881737D1*
X3509033Y-4893145D1*
X3470743Y-4931435D1*
X3524332D1*
X3564333D2*
X3602624Y-4851140D1*
X3549035D1*
X3650319D2*
X3638823Y-4854942D1*
X3631129Y-4866439D1*
X3627327Y-4885540D1*
Y-4897036D1*
X3631129Y-4916137D1*
X3638823Y-4927633D1*
X3650319Y-4931435D1*
X3657924D1*
X3669420Y-4927633D1*
X3677025Y-4916137D1*
X3680916Y-4897036D1*
Y-4885540D1*
X3677025Y-4866439D1*
X3669420Y-4854942D1*
X3657924Y-4851140D1*
X3650319D1*
X3677025Y-4866439D2*
X3631129Y-4916137D1*
X3520529Y-5035326D2*
X3516638Y-5046823D1*
X3509033Y-5054516D1*
X3497537Y-5058319D1*
X3493735D1*
X3482239Y-5054516D1*
X3474634Y-5046823D1*
X3470743Y-5035326D1*
Y-5031524D1*
X3474634Y-5020028D1*
X3482239Y-5012423D1*
X3493735Y-5008620D1*
X3497537D1*
X3509033Y-5012423D1*
X3516638Y-5020028D1*
X3520529Y-5035326D1*
Y-5054516D1*
X3516638Y-5073617D1*
X3509033Y-5085113D1*
X3497537Y-5088916D1*
X3489932D1*
X3478436Y-5085113D1*
X3474634Y-5077420D1*
X3568224Y-5008620D2*
X3556728Y-5012423D1*
X3549035Y-5023919D1*
X3545232Y-5043020D1*
Y-5054516D1*
X3549035Y-5073617D1*
X3556728Y-5085113D1*
X3568224Y-5088916D1*
X3575829D1*
X3587325Y-5085113D1*
X3594931Y-5073617D1*
X3598822Y-5054516D1*
Y-5043020D1*
X3594931Y-5023919D1*
X3587325Y-5012423D1*
X3575829Y-5008620D1*
X3568224D1*
X3594931Y-5023919D2*
X3549035Y-5073617D1*
X3493735Y-5166101D2*
X3482239Y-5169903D1*
X3474545Y-5181399D1*
X3470743Y-5200500D1*
Y-5211996D1*
X3474545Y-5231098D1*
X3482239Y-5242594D1*
X3493735Y-5246396D1*
X3501340D1*
X3512836Y-5242594D1*
X3520441Y-5231098D1*
X3524332Y-5211996D1*
Y-5200500D1*
X3520441Y-5181399D1*
X3512836Y-5169903D1*
X3501340Y-5166101D1*
X3493735D1*
X3520441Y-5181399D2*
X3474545Y-5231098D1*
X3493735Y-5323581D2*
X3482239Y-5327383D1*
X3474545Y-5338879D1*
X3470743Y-5357981D1*
Y-5369477D1*
X3474545Y-5388578D1*
X3482239Y-5400074D1*
X3493735Y-5403876D1*
X3501340D1*
X3512836Y-5400074D1*
X3520441Y-5388578D1*
X3524332Y-5369477D1*
Y-5357981D1*
X3520441Y-5338879D1*
X3512836Y-5327383D1*
X3501340Y-5323581D1*
X3493735D1*
X3520441Y-5338879D2*
X3474545Y-5388578D1*
X3943184Y-3433729D2*
X3973781Y-3514113D1*
X4004378Y-3433729D1*
X4074977Y-3460523D2*
Y-3514113D1*
Y-3472019D2*
X4067372Y-3464326D1*
X4059678Y-3460523D1*
X4048270D1*
X4040577Y-3464326D1*
X4032972Y-3472019D1*
X4029081Y-3483515D1*
Y-3491121D1*
X4032972Y-3502617D1*
X4040577Y-3510222D1*
X4048270Y-3514113D1*
X4059678D1*
X4067372Y-3510222D1*
X4074977Y-3502617D1*
X4099679Y-3433729D2*
Y-3514113D1*
X4124382Y-3460523D2*
Y-3498814D1*
X4128185Y-3510222D1*
X4135878Y-3514113D1*
X4147374D1*
X4154979Y-3510222D1*
X4166475Y-3498814D1*
Y-3460523D2*
Y-3514113D1*
X4191178Y-3483515D2*
X4237074D1*
Y-3475822D1*
X4233272Y-3468128D1*
X4229469Y-3464326D1*
X4221775Y-3460523D1*
X4210279D1*
X4202674Y-3464326D1*
X4194981Y-3472019D1*
X4191178Y-3483515D1*
Y-3491121D1*
X4194981Y-3502617D1*
X4202674Y-3510222D1*
X4210279Y-3514113D1*
X4221775D1*
X4229469Y-3510222D1*
X4237074Y-3502617D1*
X3981474Y-3671593D2*
Y-3591297D1*
X3943184Y-3644798D1*
X4000575D1*
X4040577Y-3671593D2*
X4078868Y-3591297D1*
X4025278D1*
X4103570Y-3618004D2*
Y-3656294D1*
X4107373Y-3667702D1*
X4115066Y-3671593D1*
X4126563D1*
X4134168Y-3667702D1*
X4145664Y-3656294D1*
Y-3618004D2*
Y-3671593D1*
X3981474Y-3829073D2*
Y-3748778D1*
X3943184Y-3802279D1*
X4000575D1*
X4040577Y-3829073D2*
X4078868Y-3748778D1*
X4025278D1*
X4103570Y-3775484D2*
Y-3813775D1*
X4107373Y-3825182D1*
X4115066Y-3829073D1*
X4126563D1*
X4134168Y-3825182D1*
X4145664Y-3813775D1*
Y-3775484D2*
Y-3829073D1*
X3943184Y-3906170D2*
Y-3986554D1*
X3977672D1*
X3989168Y-3982663D1*
X3992970Y-3978860D1*
X3996773Y-3971255D1*
Y-3959759D1*
X3992970Y-3952065D1*
X3989168Y-3948263D1*
X3977672Y-3944460D1*
X3989168Y-3940569D1*
X3992970Y-3936767D1*
X3996773Y-3929162D1*
Y-3921468D1*
X3992970Y-3913863D1*
X3989168Y-3909972D1*
X3977672Y-3906170D1*
X3943184D1*
Y-3944460D2*
X3977672D1*
X4082759Y-3986554D2*
X4052073Y-3906170D1*
X4021476Y-3986554D1*
X4032972Y-3959759D2*
X4071263D1*
X4134256Y-3906170D2*
Y-3986554D1*
X4107461Y-3906170D2*
X4161051D1*
X4231649Y-3906258D2*
X4193447D1*
X4189644Y-3940658D1*
X4193447Y-3936855D1*
X4204943Y-3932964D1*
X4216351D1*
X4227847Y-3936855D1*
X4235540Y-3944460D1*
X4239343Y-3955956D1*
Y-3963561D1*
X4235540Y-3975058D1*
X4227847Y-3982751D1*
X4216351Y-3986554D1*
X4204943D1*
X4193447Y-3982751D1*
X4189644Y-3978860D1*
X4185753Y-3971255D1*
X4302336Y-3986554D2*
Y-3906258D1*
X4264046Y-3959759D1*
X4321438D1*
X4346140Y-3906170D2*
X4399730D1*
X4346140Y-3986554D1*
X4399730D1*
X4474219Y-3906170D2*
X4424432D1*
Y-3986554D1*
Y-3944460D2*
X4455030D1*
X4498922Y-3906170D2*
Y-3986554D1*
X4523625Y-3906170D2*
Y-3986554D1*
X4569521D1*
X4655418D2*
Y-3906170D1*
X4624821Y-3986554D1*
X4594223Y-3906170D1*
Y-3986554D1*
X3943184Y-4063650D2*
Y-4144034D1*
X3977672D1*
X3989168Y-4140143D1*
X3992970Y-4136340D1*
X3996773Y-4128735D1*
Y-4117239D1*
X3992970Y-4109546D1*
X3989168Y-4105743D1*
X3977672Y-4101941D1*
X3989168Y-4098050D1*
X3992970Y-4094247D1*
X3996773Y-4086642D1*
Y-4078949D1*
X3992970Y-4071343D1*
X3989168Y-4067452D1*
X3977672Y-4063650D1*
X3943184D1*
Y-4101941D2*
X3977672D1*
X4082759Y-4144034D2*
X4052073Y-4063650D1*
X4021476Y-4144034D1*
X4032972Y-4117239D2*
X4071263D1*
X4134256Y-4063650D2*
Y-4144034D1*
X4107461Y-4063650D2*
X4161051D1*
X4231649Y-4063738D2*
X4193447D1*
X4189644Y-4098138D1*
X4193447Y-4094336D1*
X4204943Y-4090445D1*
X4216351D1*
X4227847Y-4094336D1*
X4235540Y-4101941D1*
X4239343Y-4113437D1*
Y-4121042D1*
X4235540Y-4132538D1*
X4227847Y-4140231D1*
X4216351Y-4144034D1*
X4204943D1*
X4193447Y-4140231D1*
X4189644Y-4136340D1*
X4185753Y-4128735D1*
X4302336Y-4144034D2*
Y-4063738D1*
X4264046Y-4117239D1*
X4321438D1*
X4346140Y-4063650D2*
X4399730D1*
X4346140Y-4144034D1*
X4399730D1*
X4474219Y-4063650D2*
X4424432D1*
Y-4144034D1*
Y-4101941D2*
X4455030D1*
X4498922Y-4063650D2*
Y-4144034D1*
X4523625Y-4063650D2*
Y-4144034D1*
X4569521D1*
X4655418D2*
Y-4063650D1*
X4624821Y-4144034D1*
X4594223Y-4063650D1*
Y-4144034D1*
X4004378Y-4616475D2*
Y-4536091D1*
X3973781Y-4616475D1*
X3943184Y-4536091D1*
Y-4616475D1*
X4090275D2*
Y-4536091D1*
X4059678Y-4616475D1*
X4029081Y-4536091D1*
Y-4616475D1*
X4114978Y-4536091D2*
Y-4616475D1*
X4149466D1*
X4160962Y-4612584D1*
X4164765Y-4608781D1*
X4168567Y-4601176D1*
Y-4589680D1*
X4164765Y-4581987D1*
X4160962Y-4578184D1*
X4149466Y-4574382D1*
X4160962Y-4570491D1*
X4164765Y-4566688D1*
X4168567Y-4559083D1*
Y-4551389D1*
X4164765Y-4543784D1*
X4160962Y-4539893D1*
X4149466Y-4536091D1*
X4114978D1*
Y-4574382D2*
X4149466D1*
X4243057Y-4536091D2*
X4193270D1*
Y-4616475D1*
Y-4574382D2*
X4223867D1*
X4267760Y-4551478D2*
X4275453Y-4547587D1*
X4286949Y-4536179D1*
Y-4616475D1*
X4326951D2*
X4365241Y-4536179D1*
X4311652D1*
X4412936D2*
X4401440Y-4539982D1*
X4393747Y-4551478D1*
X4389944Y-4570579D1*
Y-4582075D1*
X4393747Y-4601176D1*
X4401440Y-4612672D1*
X4412936Y-4616475D1*
X4420541D1*
X4432038Y-4612672D1*
X4439643Y-4601176D1*
X4443534Y-4582075D1*
Y-4570579D1*
X4439643Y-4551478D1*
X4432038Y-4539982D1*
X4420541Y-4536179D1*
X4412936D1*
X4439643Y-4551478D2*
X4393747Y-4601176D1*
X3950877Y-4693660D2*
X3992882D1*
X3969978Y-4724257D1*
X3981474D1*
X3989079Y-4728059D1*
X3992882Y-4731862D1*
X3996773Y-4743358D1*
Y-4750963D1*
X3992882Y-4762459D1*
X3985277Y-4770153D1*
X3973781Y-4773955D1*
X3962285D1*
X3950877Y-4770153D1*
X3947075Y-4766262D1*
X3943184Y-4758657D1*
X4021476Y-4693571D2*
Y-4773955D1*
X4059766Y-4720366D2*
X4021476Y-4758657D1*
X4036774Y-4743358D2*
X4063569Y-4773955D1*
X4095965Y-4693660D2*
X4137970D1*
X4115066Y-4724257D1*
X4126563D1*
X4134168Y-4728059D1*
X4137970Y-4731862D1*
X4141861Y-4743358D1*
Y-4750963D1*
X4137970Y-4762459D1*
X4130365Y-4770153D1*
X4118869Y-4773955D1*
X4107373D1*
X4095965Y-4770153D1*
X4092163Y-4766262D1*
X4088272Y-4758657D1*
X3947075Y-4870241D2*
Y-4866439D1*
X3950877Y-4858745D1*
X3954680Y-4854942D1*
X3962373Y-4851140D1*
X3977672D1*
X3985277Y-4854942D1*
X3989079Y-4858745D1*
X3992970Y-4866439D1*
Y-4874044D1*
X3989079Y-4881737D1*
X3981474Y-4893145D1*
X3943184Y-4931435D1*
X3996773D1*
X4044468Y-4851140D2*
X4032972Y-4854942D1*
X4025278Y-4866439D1*
X4021476Y-4885540D1*
Y-4897036D1*
X4025278Y-4916137D1*
X4032972Y-4927633D1*
X4044468Y-4931435D1*
X4052073D1*
X4063569Y-4927633D1*
X4071174Y-4916137D1*
X4075065Y-4897036D1*
Y-4885540D1*
X4071174Y-4866439D1*
X4063569Y-4854942D1*
X4052073Y-4851140D1*
X4044468D1*
X4071174Y-4866439D2*
X4025278Y-4916137D1*
X4099768Y-4851051D2*
Y-4931435D1*
X4138059Y-4877846D2*
X4099768Y-4916137D1*
X4115066Y-4900838D2*
X4141861Y-4931435D1*
X3943184Y-5023919D2*
X3950877Y-5020028D1*
X3962373Y-5008620D1*
Y-5088916D1*
X4010068Y-5008620D2*
X3998572Y-5012423D1*
X3990878Y-5023919D1*
X3987076Y-5043020D1*
Y-5054516D1*
X3990878Y-5073617D1*
X3998572Y-5085113D1*
X4010068Y-5088916D1*
X4017673D1*
X4029169Y-5085113D1*
X4036774Y-5073617D1*
X4040665Y-5054516D1*
Y-5043020D1*
X4036774Y-5023919D1*
X4029169Y-5012423D1*
X4017673Y-5008620D1*
X4010068D1*
X4036774Y-5023919D2*
X3990878Y-5073617D1*
X4088360Y-5008620D2*
X4076864Y-5012423D1*
X4069171Y-5023919D1*
X4065368Y-5043020D1*
Y-5054516D1*
X4069171Y-5073617D1*
X4076864Y-5085113D1*
X4088360Y-5088916D1*
X4095965D1*
X4107461Y-5085113D1*
X4115066Y-5073617D1*
X4118957Y-5054516D1*
Y-5043020D1*
X4115066Y-5023919D1*
X4107461Y-5012423D1*
X4095965Y-5008620D1*
X4088360D1*
X4115066Y-5023919D2*
X4069171Y-5073617D1*
X4143660Y-5008532D2*
Y-5088916D1*
X4181951Y-5035326D2*
X4143660Y-5073617D1*
X4158959Y-5058319D2*
X4185753Y-5088916D1*
X3943184Y-5181399D2*
X3950877Y-5177508D1*
X3962373Y-5166101D1*
Y-5246396D1*
X3987076Y-5166012D2*
Y-5246396D1*
X4025367Y-5192807D2*
X3987076Y-5231098D1*
X4002375Y-5215799D2*
X4029169Y-5246396D1*
X2150000Y-526198D2*
D58*
Y-626678D1*
X2180879Y-559692D2*
Y-626678D1*
Y-578815D2*
X2195249Y-564445D1*
X2204866Y-559692D1*
X2219125D1*
X2228742Y-564445D1*
X2233496Y-578815D1*
Y-626678D1*
X2321854Y-574062D2*
X2312237Y-564445D1*
X2302621Y-559692D1*
X2288361D1*
X2278744Y-564445D1*
X2269238Y-574062D1*
X2264374Y-588432D1*
Y-597938D1*
X2269238Y-612308D1*
X2278744Y-621815D1*
X2288361Y-626678D1*
X2302621D1*
X2312237Y-621815D1*
X2321854Y-612308D1*
X2352733Y-526198D2*
Y-626678D1*
Y-578815D2*
X2367103Y-564445D1*
X2376720Y-559692D1*
X2391090D1*
X2400596Y-564445D1*
X2405349Y-578815D1*
Y-626678D1*
X2436228Y-588432D2*
X2493598D1*
Y-578815D1*
X2488845Y-569198D1*
X2484091Y-564445D1*
X2474474Y-559692D1*
X2460104D1*
X2450598Y-564445D1*
X2440981Y-574062D1*
X2436228Y-588432D1*
Y-597938D1*
X2440981Y-612308D1*
X2450598Y-621815D1*
X2460104Y-626678D1*
X2474474D1*
X2484091Y-621815D1*
X2493598Y-612308D1*
X2577093Y-574062D2*
X2572340Y-564445D1*
X2557970Y-559692D1*
X2543599D1*
X2529229Y-564445D1*
X2524476Y-574062D1*
X2529229Y-583568D1*
X2538846Y-588432D1*
X2562723Y-593185D1*
X2572340Y-597938D1*
X2577093Y-607555D1*
Y-612308D1*
X2572340Y-621815D1*
X2557970Y-626678D1*
X2543599D1*
X2529229Y-621815D1*
X2524476Y-612308D1*
X2276493Y-3276678D2*
Y-3176198D1*
X2238247Y-3276678D1*
X2200000Y-3176198D1*
Y-3276678D1*
X2307372Y-3238432D2*
X2364742D1*
Y-3228815D1*
X2359989Y-3219198D1*
X2355235Y-3214445D1*
X2345619Y-3209692D1*
X2331248D1*
X2321742Y-3214445D1*
X2312125Y-3224062D1*
X2307372Y-3238432D1*
Y-3247938D1*
X2312125Y-3262308D1*
X2321742Y-3271815D1*
X2331248Y-3276678D1*
X2345619D1*
X2355235Y-3271815D1*
X2364742Y-3262308D1*
X2409990Y-3176198D2*
Y-3257555D1*
X2414744Y-3271815D1*
X2424360Y-3276678D1*
X2433867D1*
X2395620Y-3209692D2*
X2429114D1*
X2464745D2*
Y-3276678D1*
Y-3238432D2*
X2469609Y-3224062D1*
X2479115Y-3214445D1*
X2488732Y-3209692D1*
X2503102D1*
X2533981Y-3176198D2*
X2538734Y-3180951D1*
X2543598Y-3176198D1*
X2538734Y-3171335D1*
X2533981Y-3176198D1*
X2538734Y-3209692D2*
Y-3276678D1*
X2631957Y-3224062D2*
X2622340Y-3214445D1*
X2612723Y-3209692D1*
X2598463D1*
X2588846Y-3214445D1*
X2579340Y-3224062D1*
X2574476Y-3238432D1*
Y-3247938D1*
X2579340Y-3262308D1*
X2588846Y-3271815D1*
X2598463Y-3276678D1*
X2612723D1*
X2622340Y-3271815D1*
X2631957Y-3262308D1*
X-60553Y-132577D2*
D60*
X-30409D1*
Y-119644D1*
X-31868Y-115333D1*
X-33294Y-113907D1*
X-36146Y-112481D1*
X-40457D1*
X-43342Y-113907D1*
X-44768Y-115333D1*
X-46194Y-119644D1*
X-47653Y-115333D1*
X-49079Y-113907D1*
X-51931Y-112481D1*
X-54816D1*
X-57668Y-113907D1*
X-59127Y-115333D1*
X-60553Y-119644D1*
Y-132577D1*
X-46194D2*
Y-119644D1*
X-60553Y-94595D2*
X-59127Y-97480D1*
X-56242Y-100332D1*
X-53390Y-101791D1*
X-49079Y-103217D1*
X-41883D1*
X-37605Y-101791D1*
X-34720Y-100332D1*
X-31868Y-97480D1*
X-30409Y-94595D1*
Y-88858D1*
X-31868Y-86006D1*
X-34720Y-83121D1*
X-37605Y-81695D1*
X-41883Y-80269D1*
X-49079D1*
X-53390Y-81695D1*
X-56242Y-83121D1*
X-59127Y-86006D1*
X-60553Y-88858D1*
Y-94595D1*
X-30409Y-48025D2*
X-60553Y-59532D1*
X-30409Y-71006D1*
X-40457Y-66695D2*
Y-52336D1*
X-46194Y-38761D2*
Y-25861D1*
X-47653Y-21550D1*
X-49079Y-20091D1*
X-51931Y-18665D1*
X-54816D1*
X-57668Y-20091D1*
X-59127Y-21550D1*
X-60553Y-25861D1*
Y-38761D1*
X-30409D1*
X-46194Y-28713D2*
X-30409Y-18665D1*
X-60553Y-9402D2*
X-30409D1*
Y646D1*
X-31868Y4957D1*
X-34720Y7842D1*
X-37605Y9268D1*
X-41883Y10694D1*
X-49079D1*
X-53390Y9268D1*
X-56242Y7842D1*
X-59127Y4957D1*
X-60553Y646D1*
Y-9402D1*
Y67755D2*
Y49118D1*
X-30409D1*
Y67755D1*
X-46194Y49118D2*
Y60592D1*
X-60553Y77019D2*
X-30409D1*
Y87067D1*
X-31868Y91378D1*
X-34720Y94263D1*
X-37605Y95689D1*
X-41883Y97115D1*
X-49079D1*
X-53390Y95689D1*
X-56242Y94263D1*
X-59127Y91378D1*
X-60553Y87067D1*
Y77019D1*
X-53390Y127900D2*
X-56242Y126474D1*
X-59127Y123589D1*
X-60553Y120737D1*
Y115000D1*
X-59127Y112115D1*
X-56242Y109263D1*
X-53390Y107804D1*
X-49079Y106378D1*
X-41883D1*
X-37605Y107804D1*
X-34720Y109263D1*
X-31868Y112115D1*
X-30409Y115000D1*
Y120737D1*
X-31868Y123589D1*
X-34720Y126474D1*
X-37605Y127900D1*
X-41883D1*
Y120737D1*
X-60553Y155801D2*
Y137164D1*
X-30409D1*
Y155801D1*
X-46194Y137164D2*
Y148638D1*
X1143217Y98468D2*
D61*
X1123121D1*
X1123120Y89846D1*
X1124093Y86972D1*
X1125044Y86021D1*
X1126945Y85071D1*
X1129819D1*
X1131743Y86021D1*
X1132693Y86972D1*
X1133644Y89846D1*
X1134617Y86972D1*
X1135567Y86021D1*
X1137468Y85071D1*
X1139392D1*
X1141293Y86021D1*
X1142266Y86972D1*
X1143216Y89846D1*
X1143217Y98468D1*
X1133644D2*
Y89846D1*
X1143216Y73147D2*
X1142266Y75070D1*
X1140342Y76972D1*
X1138441Y77944D1*
X1135567Y78895D1*
X1130770D1*
X1127918Y77944D1*
X1125994Y76972D1*
X1124093Y75070D1*
X1123120Y73147D1*
Y69322D1*
X1124093Y67421D1*
X1125994Y65498D1*
X1127918Y64547D1*
X1130770Y63596D1*
X1135567D1*
X1138441Y64547D1*
X1140342Y65498D1*
X1142266Y67421D1*
X1143216Y69322D1*
Y73147D1*
X1123121Y42100D2*
X1143216Y49771D1*
X1123120Y57421D1*
X1129819Y54547D2*
Y44974D1*
X1133644Y35924D2*
Y27324D1*
X1134617Y24450D1*
X1135567Y23478D1*
X1137468Y22527D1*
X1139392D1*
X1141293Y23478D1*
X1142266Y24450D1*
X1143216Y27324D1*
Y35924D1*
X1123121D1*
X1133644Y29226D2*
X1123121Y22527D1*
X1143216Y16351D2*
X1123121D1*
Y9653D1*
X1124093Y6779D1*
X1125995Y4855D1*
X1127918Y3905D1*
X1130770Y2954D1*
X1135567D1*
X1138441Y3905D1*
X1140342Y4855D1*
X1142266Y6779D1*
X1143216Y9653D1*
Y16351D1*
Y-35087D2*
Y-22662D1*
X1123121D1*
Y-35087D1*
X1133644Y-22662D2*
Y-30311D1*
X1143216Y-41262D2*
X1123121D1*
Y-47961D1*
X1124093Y-50835D1*
X1125995Y-52759D1*
X1127918Y-53709D1*
X1130770Y-54660D1*
X1135567D1*
X1138441Y-53709D1*
X1140342Y-52759D1*
X1142266Y-50835D1*
X1143216Y-47961D1*
Y-41262D1*
X1138441Y-75183D2*
X1140342Y-74233D1*
X1142266Y-72309D1*
X1143217Y-70408D1*
Y-66584D1*
X1142266Y-64660D1*
X1140342Y-62759D1*
X1138441Y-61786D1*
X1135567Y-60835D1*
X1130770D1*
X1127918Y-61786D1*
X1125995Y-62759D1*
X1124093Y-64660D1*
X1123121Y-66584D1*
Y-70408D1*
X1124093Y-72309D1*
X1125995Y-74233D1*
X1127918Y-75183D1*
X1130770D1*
Y-70408D1*
X1143217Y-93784D2*
Y-81359D1*
X1123121D1*
Y-93784D1*
X1133644Y-81359D2*
Y-89008D1*
M02*
