%TF.GenerationSoftware,Novarm,DipTrace,3.0.0.1*%
%TF.CreationDate,2016-04-16T08:32:14+09:00*%
%FSLAX26Y26*%
%MOIN*%
%TF.FileFunction,Legend,Bot*%
%TF.Part,Single*%
%ADD10C,0.009843*%
%ADD16C,0.015749*%
%ADD20C,0.015422*%
%ADD56C,0.00772*%
G75*
G01*
%LPD*%
X332619Y-200680D2*
D10*
Y-224320D1*
X320800Y-212500D2*
X344413D1*
X362565D2*
G02X362565Y-212500I99965J0D01*
G01*
X209861Y-43982D2*
Y-114860D1*
X272856Y-43982D2*
Y-114860D1*
D16*
X241358Y24909D3*
D20*
X652209Y68349D3*
X602067Y59148D2*
D10*
Y-58957D1*
X582382D1*
Y59148D1*
X602067D1*
X268993Y124907D2*
Y172140D1*
X206007Y124907D2*
Y172140D1*
X437428Y-51215D2*
D56*
X439805Y-46462D1*
X444613Y-41654D1*
X449367Y-39277D1*
X458928D1*
X463737Y-41654D1*
X468490Y-46462D1*
X470922Y-51215D1*
X473298Y-58400D1*
Y-70394D1*
X470922Y-77523D1*
X468490Y-82332D1*
X463737Y-87085D1*
X458928Y-89517D1*
X449367D1*
X444613Y-87085D1*
X439805Y-82332D1*
X437428Y-77523D1*
X421989Y-48894D2*
X417181Y-46462D1*
X409996Y-39332D1*
Y-89517D1*
X136638Y-34196D2*
X186878D1*
Y-50942D1*
X184446Y-58127D1*
X179693Y-62936D1*
X174884Y-65312D1*
X167755Y-67689D1*
X155761D1*
X148576Y-65312D1*
X143823Y-62936D1*
X139014Y-58127D1*
X136638Y-50942D1*
Y-34196D1*
X146255Y-83128D2*
X143823Y-87937D1*
X136693Y-95122D1*
X186878D1*
X611597Y149274D2*
X616350Y146953D1*
X621159Y142144D1*
X623535Y137336D1*
X625967Y130151D1*
Y118213D1*
X623535Y111028D1*
X621159Y106275D1*
X616350Y101466D1*
X611597Y99090D1*
X602035D1*
X597227Y101466D1*
X592474Y106275D1*
X590097Y111028D1*
X587665Y118213D1*
Y130151D1*
X590097Y137336D1*
X592474Y142144D1*
X597227Y146953D1*
X602035Y149274D1*
X611597D1*
X604412Y108651D2*
X590097Y94281D1*
X572226Y139657D2*
X567418Y142089D1*
X560232Y149219D1*
Y99034D1*
X152776Y178987D2*
Y157487D1*
X150344Y150302D1*
X147967Y147870D1*
X143214Y145493D1*
X138406D1*
X133652Y147870D1*
X131220Y150302D1*
X128844Y157487D1*
Y178987D1*
X179084D1*
X152776Y162240D2*
X179084Y145493D1*
X138461Y130054D2*
X136029Y125246D1*
X128899Y118061D1*
X179084D1*
X613183Y321156D2*
Y270916D1*
X629929Y321156D2*
X596436D1*
X580997Y294848D2*
X559442D1*
X552312Y297224D1*
X549880Y299656D1*
X547503Y304409D1*
Y311595D1*
X549880Y316348D1*
X552312Y318780D1*
X559442Y321156D1*
X580997D1*
Y270916D1*
X532064Y311539D2*
X527256Y313971D1*
X520071Y321101D1*
Y270916D1*
X823933Y171156D2*
Y120916D1*
X840679Y171156D2*
X807186D1*
X791747Y144848D2*
X770192D1*
X763062Y147224D1*
X760630Y149656D1*
X758253Y154409D1*
Y161595D1*
X760630Y166348D1*
X763062Y168780D1*
X770192Y171156D1*
X791747D1*
Y120916D1*
X740382Y159163D2*
Y161539D1*
X738006Y166348D1*
X735629Y168724D1*
X730821Y171101D1*
X721259D1*
X716506Y168724D1*
X714129Y166348D1*
X711697Y161539D1*
Y156786D1*
X714129Y151978D1*
X718882Y144848D1*
X742814Y120916D1*
X709321D1*
X823933Y46156D2*
Y-4084D1*
X840679Y46156D2*
X807186D1*
X791747Y19848D2*
X770192D1*
X763062Y22224D1*
X760630Y24656D1*
X758253Y29409D1*
Y36595D1*
X760630Y41348D1*
X763062Y43780D1*
X770192Y46156D1*
X791747D1*
Y-4084D1*
X738006Y46101D2*
X711753D1*
X726067Y26978D1*
X718882D1*
X714129Y24601D1*
X711753Y22224D1*
X709321Y15039D1*
Y10286D1*
X711753Y3101D1*
X716506Y-1707D1*
X723691Y-4084D1*
X730876D1*
X738006Y-1707D1*
X740382Y725D1*
X742814Y5478D1*
M02*
