%TF.GenerationSoftware,Novarm,DipTrace,3.0.0.1*%
%TF.CreationDate,2016-04-16T08:32:13+09:00*%
%FSLAX26Y26*%
%MOIN*%
%TF.FileFunction,Copper,L2,Bot*%
%TF.Part,Single*%
%TA.AperFunction,Conductor*%
%ADD13C,0.02*%
%TA.AperFunction,ComponentPad*%
%ADD14R,0.070866X0.070866*%
%ADD15C,0.07874*%
%ADD17R,0.062992X0.031496*%
%ADD18O,0.12X0.07*%
%TA.AperFunction,ComponentPad*%
%ADD19C,0.07874*%
%ADD21R,0.041339X0.025591*%
%ADD22R,0.070866X0.055118*%
%ADD24C,0.070866*%
%TA.AperFunction,ComponentPad*%
%ADD26C,0.098425*%
%TA.AperFunction,ViaPad*%
%ADD27C,0.04*%
G75*
G01*
%LPD*%
X512500Y-212500D2*
D13*
X637500Y-87500D1*
Y-37303D1*
X749803D2*
X775000Y-62500D1*
X637500Y-37303D2*
X674803D1*
X700000Y-62500D1*
X775000D1*
X241360Y-12493D2*
Y83640D1*
X237500Y87500D1*
X375000D2*
X587500D1*
X637500Y37500D1*
X750000D2*
X775000Y62500D1*
X637500Y37500D2*
X675000D1*
X700000Y62500D1*
X775000D1*
X437500Y212500D2*
Y200000D1*
X450000D1*
X237500Y209547D2*
X301816Y145231D1*
X314316D1*
X325000Y134547D1*
Y105D1*
Y-125000D1*
X412500Y-212500D1*
X314316Y145231D2*
X370231D1*
X437500Y212500D1*
X546949Y98D2*
X325000Y105D1*
X437500Y212500D2*
X575000D1*
X70000Y-54000D2*
X149008D1*
X241360Y-146352D1*
D27*
X375000Y87500D3*
D14*
X412500Y-212500D3*
D15*
X512500D3*
D14*
X437500Y212500D3*
D15*
X337500D3*
D17*
X241360Y-12493D3*
Y-146352D3*
D18*
X70005Y-161988D3*
Y54012D3*
Y-53988D3*
Y162012D3*
D14*
X1050000Y50000D3*
D19*
Y-50000D3*
D21*
X637500Y37500D3*
Y-37303D3*
X546949Y98D3*
D22*
X237500Y87500D3*
Y209547D3*
D24*
X575000Y212500D3*
X775000Y62500D3*
Y-62500D3*
D26*
X1025000Y212500D3*
Y-212500D3*
M02*
