%TF.GenerationSoftware,Novarm,DipTrace,3.0.0.1*%
%TF.CreationDate,2016-04-16T08:32:12+09:00*%
%FSLAX26Y26*%
%MOIN*%
%TF.FileFunction,Copper,L1,Top*%
%TF.Part,Single*%
%TA.AperFunction,Conductor*%
%ADD13C,0.02*%
%TA.AperFunction,ComponentPad*%
%ADD14R,0.070866X0.070866*%
%ADD15C,0.07874*%
%ADD17R,0.062992X0.031496*%
%ADD18O,0.12X0.07*%
%TA.AperFunction,ComponentPad*%
%ADD19C,0.07874*%
%ADD22R,0.070866X0.055118*%
%ADD23R,0.055118X0.070866*%
%ADD25R,0.086614X0.066929*%
%TA.AperFunction,ComponentPad*%
%ADD26C,0.098425*%
%TA.AperFunction,ViaPad*%
%ADD27C,0.04*%
G75*
G01*
%LPD*%
X70000Y108000D2*
D13*
X138358D1*
X225000Y21358D1*
X70000Y216000D2*
X203500D1*
X225000Y237500D1*
X312500D1*
X337500Y212500D1*
X512500Y-212500D2*
X587500Y-137500D1*
Y-50000D1*
X475000Y-109547D2*
Y-175000D1*
X512500Y-212500D1*
X337500Y212500D2*
X425000Y125000D1*
Y62500D1*
X387500Y25000D1*
Y-22047D1*
X475000Y-109547D1*
X225000Y115453D2*
X259549D1*
X312407Y62594D1*
X331251Y43751D1*
Y-212500D1*
X322047D1*
X375000Y87500D2*
X337312D1*
X312407Y62594D1*
X225000Y-112500D2*
Y-187500D1*
X200000Y-212500D1*
X922146Y50000D2*
X1050000D1*
X922146D2*
Y109646D1*
X1025000Y212500D1*
X922146Y-50000D2*
X1050000D1*
X922146D2*
Y-109646D1*
X1025000Y-212500D1*
X437500Y212500D2*
Y200000D1*
X587500Y50000D1*
X512500D1*
X475000Y12500D1*
D27*
X375000Y87500D3*
D14*
X412500Y-212500D3*
D15*
X512500D3*
D14*
X437500Y212500D3*
D15*
X337500D3*
D17*
X225000Y-112500D3*
Y21358D3*
D18*
X70005Y-215988D3*
Y-107988D3*
Y12D3*
Y216012D3*
Y108012D3*
D14*
X1050000Y50000D3*
D19*
Y-50000D3*
D22*
X225000Y237500D3*
Y115453D3*
X475000Y-109547D3*
Y12500D3*
D23*
X200000Y-212500D3*
X322047D3*
D25*
X587500Y50000D3*
Y-50000D3*
X922146D3*
Y50000D3*
D26*
X1025000Y212500D3*
Y-212500D3*
M02*
